<?xml version="1.0" standalone="no"?>
<!DOCTYPE svg PUBLIC "-//W3C//DTD SVG 1.1//EN" "http://www.w3.org/Graphics/SVG/1.1/DTD/svg11.dtd" >
<svg>
<metadata>
Created by FontForge 20120731 at Sat Jul 30 17:01:17 2016
 By Apache
Copyright (c) 2014 by B\u0142 a\u017C ej Ostoja Lniski. All rights reserved.
</metadata>
<defs>
<font id="Cervo-Medium" horiz-adv-x="200" >
  <font-face 
    font-family="Cervo Medium"
    font-weight="400"
    font-stretch="normal"
    units-per-em="1000"
    panose-1="0 0 0 0 0 0 0 0 0 0"
    ascent="700"
    descent="-300"
    x-height="500"
    cap-height="700"
    bbox="-23.1938 -293 738 932"
    underline-thickness="50"
    underline-position="-50"
    unicode-range="U+0020-2248"
  />
<missing-glyph horiz-adv-x="464" 
d="M30 -292v995h404v-995h-404z" />
    <glyph glyph-name=".notdef" horiz-adv-x="464" 
d="M30 -292v995h404v-995h-404z" />
    <glyph glyph-name="C" unicode="C" horiz-adv-x="395" 
d="M140 160c0 -52 29 -72 60 -72s60 20 60 72v7c0 15 5 20 20 20h59c15 0 21 -12 20 -26c-9 -119 -81 -165 -159 -165c-83 0 -160 52 -160 190v328c0 138 77 190 160 190c78 0 150 -46 159 -165c1 -14 -5 -26 -20 -26h-59c-15 0 -20 5 -20 20v7c0 52 -29 72 -60 72
s-60 -20 -60 -72v-380z" />
    <glyph glyph-name="A" unicode="A" horiz-adv-x="412" 
d="M364 0h-60c-13 0 -19 0 -22 15l-9 54c-4 20 -4 20 -22 20h-89c-19 0 -19 0 -23 -20l-9 -54c-3 -15 -9 -15 -22 -15h-60c-10 0 -20 0 -17 17l126 665c3 15 6 18 22 18h54c16 0 19 -3 22 -18l126 -665c3 -17 -7 -17 -17 -17zM202 446l-41 -243c-3 -20 -3 -20 17 -20h56
c20 0 20 0 17 20l-41 243c-1 5 -7 5 -8 0z" />
    <glyph glyph-name="I" unicode="I" 
d="M150 20c0 -15 -5 -20 -20 -20h-60c-15 0 -20 5 -20 20v660c0 15 5 20 20 20h60c15 0 20 -5 20 -20v-660z" />
    <glyph glyph-name="E" unicode="E" horiz-adv-x="341" 
d="M70 0c-15 0 -20 5 -20 20v660c0 15 5 20 20 20h211c15 0 20 -5 20 -20v-54c0 -15 -5 -20 -20 -20h-111c-20 0 -20 0 -20 -20v-150c0 -20 0 -20 20 -20h111c15 0 20 -5 20 -20v-54c0 -15 -5 -20 -20 -20h-111c-20 0 -20 0 -20 -20v-188c0 -20 0 -20 20 -20h111
c15 0 20 -5 20 -20v-54c0 -15 -5 -20 -20 -20h-211z" />
    <glyph glyph-name="F" unicode="F" horiz-adv-x="331" 
d="M70 0c-15 0 -20 5 -20 20v660c0 15 5 20 20 20h211c15 0 20 -5 20 -20v-54c0 -15 -5 -20 -20 -20h-111c-20 0 -20 0 -20 -20v-150c0 -20 0 -20 20 -20h80c15 0 20 -5 20 -20v-54c0 -15 -5 -20 -20 -20h-80c-20 0 -20 0 -20 -20v-282c0 -15 -5 -20 -20 -20h-60z" />
    <glyph glyph-name="H" unicode="H" horiz-adv-x="400" 
d="M250 302c0 20 0 20 -20 20h-60c-20 0 -20 0 -20 -20v-282c0 -15 -5 -20 -20 -20h-60c-15 0 -20 5 -20 20v660c0 15 5 20 20 20h60c15 0 20 -5 20 -20v-244c0 -20 0 -20 20 -20h60c20 0 20 0 20 20v244c0 15 5 20 20 20h60c15 0 20 -5 20 -20v-660c0 -15 -5 -20 -20 -20
h-60c-15 0 -20 5 -20 20v282z" />
    <glyph glyph-name="L" unicode="L" horiz-adv-x="316" 
d="M70 0c-15 0 -20 5 -20 20v660c0 15 5 20 20 20h60c15 0 20 -5 20 -20v-565c0 -21 0 -21 21 -21h110c15 0 20 -5 20 -20v-54c0 -15 -5 -20 -20 -20h-211z" />
    <glyph glyph-name="V" unicode="V" horiz-adv-x="442" 
d="M339 700h60c10 0 21 0 17 -17l-146 -665c-3 -15 -6 -18 -22 -18h-54c-16 0 -19 3 -22 18l-146 665c-4 17 7 17 17 17h60c13 0 19 0 22 -15l92 -454c1 -5 7 -5 8 0l92 454c3 15 9 15 22 15z" />
    <glyph glyph-name="G" unicode="G" horiz-adv-x="400" 
d="M140 160c0 -52 29 -72 60 -72s60 20 60 72v142c0 20 0 20 -20 20h-8c-16 0 -20 4 -20 20v54c0 15 4 20 20 20h108c15 0 20 -5 20 -20v-210c0 -115 -57 -190 -160 -190c-83 0 -160 52 -160 190v328c0 138 77 190 160 190c78 0 150 -46 159 -165c1 -14 -5 -26 -20 -26h-59
c-15 0 -20 5 -20 20v7c0 52 -29 72 -60 72s-60 -20 -60 -72v-380z" />
    <glyph glyph-name="T" unicode="T" horiz-adv-x="330" 
d="M15 680c0 15 5 20 20 20h260c15 0 20 -5 20 -20v-54c0 -15 -5 -20 -20 -20h-60c-20 0 -20 0 -20 -20v-566c0 -15 -5 -20 -20 -20h-60c-15 0 -20 5 -20 20v566c0 20 0 20 -19 20h-61c-15 0 -20 5 -20 20v54z" />
    <glyph glyph-name="J" unicode="J" horiz-adv-x="244" 
d="M35 94c64 4 64 43 64 104v482c0 15 5 20 20 20h60c15 0 20 -5 20 -20v-480c0 -151 -50 -200 -164 -200c-15 0 -20 5 -20 20v54c0 15 5 19 20 20z" />
    <glyph glyph-name="space" unicode=" " 
 />
    <glyph glyph-name="U" unicode="U" horiz-adv-x="410" 
d="M265 680c0 15 5 20 20 20h60c15 0 20 -5 20 -20v-494c0 -138 -77 -190 -160 -190s-160 52 -160 190v494c0 15 5 20 20 20h60c15 0 20 -5 20 -20v-520c0 -52 29 -72 60 -72s60 20 60 72v520z" />
    <glyph glyph-name="W" unicode="W" horiz-adv-x="624" 
d="M317 395c-1 7 -9 7 -10 0l-71 -375c-3 -15 -5 -20 -23 -20h-39c-18 0 -20 5 -23 20l-125 660c-3 14 1 20 17 20h60c16 0 20 -4 23 -20l66 -396c1 -5 8 -5 9 0l75 396c3 16 7 20 22 20h28c15 0 19 -4 22 -20l75 -396c1 -5 8 -5 9 0l66 396c3 16 7 20 23 20h60
c16 0 20 -6 17 -20l-125 -660c-3 -15 -5 -20 -23 -20h-49c-18 0 -20 5 -23 20z" />
    <glyph glyph-name="Y" unicode="Y" horiz-adv-x="350" 
d="M145 0c-15 0 -20 5 -20 20v204c0 10 -103 456 -103 456c-3 11 0 20 13 20h64c18 0 19 -5 23 -20l48 -242c1 -7 9 -7 10 0l48 242c4 15 5 20 23 20h64c13 0 16 -9 13 -20c0 0 -103 -446 -103 -456v-204c0 -15 -5 -20 -20 -20h-60z" />
    <glyph glyph-name="N" unicode="N" horiz-adv-x="465" 
d="M395 0h-45c-9 0 -16 2 -20 12l-172 403c-3 7 -8 4 -8 -1v-394c0 -15 -5 -20 -20 -20h-60c-15 0 -20 5 -20 20v660c0 15 5 20 20 20h45c11 0 16 -2 20 -13l172 -403c3 -6 8 -4 8 1v395c0 15 5 20 20 20h60c15 0 20 -5 20 -20v-660c0 -15 -5 -20 -20 -20z" />
    <glyph glyph-name="M" unicode="M" horiz-adv-x="582" 
d="M280 0c-10 0 -18 0 -22 14l-102 327c-1 5 -6 4 -6 0v-321c0 -15 -5 -20 -20 -20h-60c-15 0 -20 5 -20 20v660c0 15 5 20 20 20h45c12 0 16 -3 19 -12l153 -486c1 -5 7 -5 8 0l153 486c3 9 7 12 19 12h45c15 0 20 -5 20 -20v-660c0 -15 -5 -20 -20 -20h-60
c-15 0 -20 5 -20 20v321c0 4 -5 5 -6 0l-102 -327c-4 -14 -12 -14 -22 -14h-22z" />
    <glyph glyph-name="Z" unicode="Z" horiz-adv-x="340" 
d="M306 597l-167 -495c-2 -6 0 -8 5 -8h146c15 0 20 -5 20 -20v-54c0 -15 -5 -20 -20 -20h-240c-15 0 -20 5 -20 20v61c0 10 0 12 4 22l167 495c2 5 0 8 -5 8h-146c-15 0 -20 5 -20 20v54c0 15 5 20 20 20h240c15 0 20 -5 20 -20v-61c0 -10 0 -10 -4 -22z" />
    <glyph glyph-name="K" unicode="K" horiz-adv-x="381" 
d="M150 20c0 -15 -5 -20 -20 -20h-60c-15 0 -20 5 -20 20v660c0 15 5 20 20 20h60c15 0 20 -5 20 -20v-243c0 -5 5 -7 8 -1l105 244c8 18 14 20 29 20h59c15 0 17 -9 12 -20l-108 -249c-2 -5 -3 -7 0 -18l108 -393c3 -11 0 -20 -15 -20h-59c-15 0 -22 5 -26 20l-77 279
c-1 4 -6 5 -8 0l-24 -56c-3 -7 -4 -14 -4 -24v-199z" />
    <glyph glyph-name="X" unicode="X" horiz-adv-x="343" 
d="M122 350l-105 329c-5 16 3 21 11 21h64c13 0 17 0 22 -15l52 -180c2 -6 8 -6 10 0l53 180c5 15 9 15 22 15h64c8 0 16 -5 11 -21l-105 -329l105 -329c5 -16 -3 -21 -11 -21h-64c-13 0 -17 0 -22 15l-53 180c-2 6 -8 6 -10 0l-52 -180c-5 -15 -9 -15 -22 -15h-64
c-8 0 -16 5 -11 21z" />
    <glyph glyph-name="Q" unicode="Q" horiz-adv-x="400" 
d="M360 514v-327c0 -85 -30 -138 -71 -165l17 -64c4 -14 1 -20 -14 -24l-58 -16c-13 -4 -20 0 -24 14l-18 65c-80 3 -152 56 -152 190v327c0 138 77 190 160 190s160 -52 160 -190zM260 160v380c0 52 -29 72 -60 72s-60 -20 -60 -72v-380c0 -52 29 -72 60 -72s60 20 60 72z
" />
    <glyph glyph-name="B" unicode="B" horiz-adv-x="390" 
d="M350 510c0 -62 -16 -105 -40 -135c-4 -5 -4 -7 0 -12c25 -31 40 -75 40 -137v-36c0 -138 -77 -190 -160 -190h-120c-15 0 -20 5 -20 20v660c0 15 5 20 20 20h120c83 0 160 -52 160 -190zM150 302v-188c0 -20 0 -20 20 -20h20c31 0 60 20 60 72v84c0 52 -29 72 -60 72h-30
c-10 -1 -10 -5 -10 -20zM150 437c0 -21 0 -21 20 -21h20c34 2 60 22 60 72v46c0 52 -29 72 -60 72h-20c-20 0 -20 0 -20 -20v-149z" />
    <glyph glyph-name="P" unicode="P" horiz-adv-x="380" 
d="M70 700h120c83 0 160 -52 160 -190v-87c0 -138 -77 -190 -160 -190h-30c-10 -1 -10 -5 -10 -20v-193c0 -15 -6 -20 -20 -20h-60c-16 0 -20 5 -20 20v660c0 15 5 20 20 20zM150 348c0 -21 0 -21 20 -21h20c31 0 60 20 60 72v135c0 52 -29 72 -60 72h-20
c-20 0 -20 0 -20 -20v-238z" />
    <glyph glyph-name="R" unicode="R" horiz-adv-x="391" 
d="M200 700c83 0 150 -48 150 -186v-32c0 -91 -26 -137 -61 -163l60 -298c4 -16 -4 -21 -12 -21h-63c-13 0 -19 0 -22 15l-51 269c-2 9 -8 9 -12 9h-19c-20 0 -20 0 -20 -20v-253c0 -15 -5 -20 -20 -20h-60c-15 0 -20 5 -20 20v660c0 15 5 20 20 20h130zM200 612h-30
c-20 0 -20 0 -20 -20v-191c0 -20 0 -20 20 -20h30c31 0 50 20 50 71v88c0 52 -19 72 -50 72z" />
    <glyph glyph-name="S" unicode="S" horiz-adv-x="367" 
d="M181 -4c-92 0 -162 76 -160 164c0 17 4 22 21 22h58c13 0 20 -5 20 -23c0 -39 20 -71 61 -71c40 0 58 31 62 59c19 119 -201 234 -211 399c-5 86 57 158 147 158c69 0 135 -53 143 -133c2 -27 0 -32 -20 -32h-55c-15 0 -20 5 -20 20c0 36 -21 53 -48 53
c-46 0 -51 -45 -49 -65c11 -112 191 -213 210 -370c11 -90 -56 -181 -159 -181z" />
    <glyph glyph-name="ogonek" unicode="&#x2db;" horiz-adv-x="151" 
d="M63 16h58c-7 -9 -22 -30 -25 -37c-11 -25 6 -36 25 -38c9 -1 11 -3 9 -12l-16 -69c-2 -8 -6 -9 -13 -8c-65 11 -104 70 -65 130c4 7 20 27 27 34z" />
    <glyph glyph-name="Aogonek" unicode="&#x104;" horiz-adv-x="412" 
d="M364 0h-7c-6 -8 -12 -17 -13 -21c-11 -25 6 -36 25 -38c9 -1 11 -3 9 -12l-16 -69c-2 -8 -6 -9 -13 -8c-65 11 -104 70 -65 130c2 4 7 11 13 18c-9 0 -13 3 -15 15l-9 54c-4 20 -4 20 -22 20h-89c-19 0 -19 0 -23 -20l-9 -54c-3 -15 -9 -15 -22 -15h-60
c-10 0 -20 0 -17 17l126 665c3 15 6 18 22 18h54c16 0 19 -3 22 -18l126 -665c3 -17 -7 -17 -17 -17zM202 446l-41 -243c-3 -20 -3 -20 17 -20h56c20 0 20 0 17 20l-41 243c-1 5 -7 5 -8 0z" />
    <glyph glyph-name="o" unicode="o" horiz-adv-x="380" 
d="M340 320v-140c0 -138 -79 -184 -150 -184s-150 46 -150 184v140c0 138 79 184 150 184s150 -46 150 -184zM240 336c0 60 -23 76 -50 76s-50 -16 -50 -76v-172c0 -60 23 -76 50 -76s50 16 50 76v172z" />
    <glyph glyph-name="l" unicode="l" horiz-adv-x="239" 
d="M45 200v480c0 15 5 20 20 20h60c15 0 20 -5 20 -20v-482c0 -61 0 -103 54 -104c15 -1 20 -5 20 -20v-54c0 -15 -5 -20 -20 -20c-114 0 -154 49 -154 200z" />
    <glyph glyph-name="d" unicode="d" horiz-adv-x="398" 
d="M248 164v172c0 60 -27 76 -54 76s-54 -16 -54 -76v-172c0 -60 27 -76 54 -76s54 16 54 76zM328 0h-60c-15 0 -20 5 -20 20v13c-15 -20 -38 -35 -74 -37c-75 -3 -134 47 -134 170v168c0 123 59 173 134 170c36 -2 59 -18 74 -38v214c0 15 5 20 20 20h60c15 0 20 -5 20 -20
v-660c0 -15 -5 -20 -20 -20z" />
    <glyph glyph-name="b" unicode="b" horiz-adv-x="398" 
d="M150 336v-172c0 -60 27 -76 54 -76s54 16 54 76v172c0 60 -27 76 -54 76s-54 -16 -54 -76zM130 0h-60c-15 0 -20 5 -20 20v660c0 15 5 20 20 20h60c15 0 20 -5 20 -20v-214c15 20 38 36 74 38c75 3 134 -47 134 -170v-168c0 -123 -59 -173 -134 -170c-36 2 -59 17 -74 37
v-13c0 -15 -5 -20 -20 -20z" />
    <glyph glyph-name="period" unicode="." horiz-adv-x="153" 
d="M30 57c0 31 25 56 56 56s57 -25 57 -56s-26 -57 -57 -57s-56 26 -56 57z" />
    <glyph glyph-name="j" unicode="j" 
d="M16 -86c34 4 34 48 34 109v457c0 15 5 20 20 20h60c15 0 20 -5 20 -20v-484c0 -137 -57 -176 -134 -176c-15 0 -20 5 -20 20v54c0 15 5 19 20 20zM44 601c0 31 24 56 56 56c31 0 56 -25 56 -56c0 -32 -25 -56 -56 -56c-32 0 -56 24 -56 56z" />
    <glyph glyph-name="i" unicode="i" 
d="M70 0c-15 0 -20 5 -20 20v460c0 15 5 20 20 20h60c15 0 20 -5 20 -20v-460c0 -15 -5 -20 -20 -20h-60zM44 601c0 31 24 56 56 56c31 0 56 -25 56 -56c0 -32 -25 -56 -56 -56c-32 0 -56 24 -56 56z" />
    <glyph glyph-name="p" unicode="p" horiz-adv-x="398" 
d="M150 164c0 -60 27 -76 54 -76s54 16 54 76v172c0 60 -27 76 -54 76s-54 -16 -54 -76v-172zM70 500h60c15 0 20 -5 20 -20v-13c15 20 38 35 74 37c75 3 134 -47 134 -170v-168c0 -123 -59 -173 -134 -170c-36 2 -59 18 -74 38v-194c0 -15 -5 -20 -20 -20h-60
c-15 0 -20 5 -20 20v640c0 15 6 20 20 20z" />
    <glyph glyph-name="n" unicode="n" horiz-adv-x="403" 
d="M258 20v316c0 60 -27 76 -54 76s-54 -16 -54 -76v-316c0 -15 -5 -20 -20 -20h-60c-15 0 -20 5 -20 20v460c0 15 5 20 20 20h57c15 0 20 -5 20 -20v-19c15 22 39 41 77 43c75 3 134 -47 134 -170v-314c0 -15 -5 -20 -20 -20h-60c-15 0 -20 5 -20 20z" />
    <glyph glyph-name="g" unicode="g" horiz-adv-x="403" 
d="M45 334c0 119 56 170 128 170c41 0 67 -20 83 -43v19c0 15 4 20 20 20h57c15 0 20 -5 20 -20v-479c0 -123 -71 -184 -164 -184c-65 0 -115 28 -145 89c-5 10 -6 19 9 24l61 20c12 4 19 3 27 -10c17 -26 35 -29 48 -29c19 0 64 9 64 99v24c-16 -21 -41 -38 -80 -38
c-72 0 -128 50 -128 170v168zM253 164v172c0 60 -27 76 -54 76s-54 -16 -54 -76v-172c0 -60 27 -76 54 -76s54 16 54 76z" />
    <glyph glyph-name="a" unicode="a" horiz-adv-x="382" 
d="M337 350v-281c1 -21 5 -37 8 -49c3 -15 -5 -20 -20 -20h-56c-14 0 -19 3 -22 30c0 0 -32 -34 -83 -34c-72 0 -127 44 -127 133v44c0 110 95 122 155 144c30 11 45 26 45 50c0 23 -18 45 -45 45c-25 0 -49 -21 -47 -59c1 -15 -4 -20 -20 -20h-56c-15 0 -19 5 -20 20
c-3 83 61 151 143 151c75 0 145 -58 145 -154zM187 88c43 0 49 38 50 80v80c-54 -24 -100 -35 -100 -85v-8c0 -15 0 -67 50 -67z" />
    <glyph glyph-name="u" unicode="u" horiz-adv-x="403" 
d="M145 164c0 -60 27 -76 54 -76s54 16 54 76v316c0 15 5 20 20 20h60c15 0 20 -5 20 -20v-460c0 -15 -5 -20 -20 -20h-57c-15 0 -20 5 -20 20v19c-15 -22 -39 -41 -77 -43c-75 -3 -134 47 -134 170v314c0 15 5 20 20 20h60c15 0 20 -5 20 -20v-316z" />
    <glyph glyph-name="t" unicode="t" horiz-adv-x="244" 
d="M50 200v196c0 8 -2 10 -10 10c-15 0 -20 5 -20 20v54c0 15 5 20 20 20c8 0 10 2 10 10v77c0 15 5 20 20 20h60c15 0 20 -5 20 -20v-77c0 -8 2 -10 10 -10h25c15 0 20 -5 20 -20v-54c0 -15 -5 -20 -20 -20h-25c-8 0 -10 -2 -10 -10v-198c0 -61 0 -103 54 -104
c15 -1 20 -5 20 -20v-54c0 -15 -5 -20 -20 -20c-114 0 -154 49 -154 200z" />
    <glyph glyph-name="e" unicode="e" horiz-adv-x="380" 
d="M240 342c-1 55 -24 70 -50 70s-48 -15 -50 -70c0 -20 0 -20 20 -20h60c20 0 20 0 20 20zM140 213v-49c0 -60 23 -76 50 -76c20 0 46 11 48 53c1 17 2 26 20 26h57c15 0 19 -5 20 -20c3 -57 -40 -151 -145 -151c-71 0 -150 46 -150 184v140c0 138 79 184 150 184
s150 -46 150 -184v-67c0 -16 -5 -20 -21 -20h-159c-15 0 -20 -5 -20 -20z" />
    <glyph glyph-name="f" unicode="f" horiz-adv-x="229" 
d="M70 0c-15 0 -20 5 -20 20v376c0 8 -2 10 -10 10c-15 0 -20 5 -20 20v54c0 15 5 20 20 20c8 0 10 2 10 10c0 142 42 190 154 190c15 0 20 -5 20 -20v-54c0 -15 -5 -19 -20 -20c-51 -1 -54 -40 -54 -96c0 -8 2 -10 10 -10h25c15 0 20 -5 20 -20v-54c0 -15 -5 -20 -20 -20
h-25c-8 0 -10 -2 -10 -10v-376c0 -15 -5 -20 -20 -20h-60z" />
    <glyph glyph-name="c" unicode="c" horiz-adv-x="376" 
d="M190 -4c-71 0 -150 46 -150 184v140c0 138 79 184 150 184c105 0 148 -94 145 -151c-1 -15 -5 -20 -20 -20h-57c-18 0 -19 9 -20 26c-2 42 -28 53 -48 53c-27 0 -50 -16 -50 -76v-172c0 -60 23 -76 50 -76c20 0 46 11 48 53c1 17 2 26 20 26h57c15 0 19 -5 20 -20
c3 -57 -40 -151 -145 -151z" />
    <glyph glyph-name="h" unicode="h" horiz-adv-x="403" 
d="M258 20v316c0 60 -27 76 -54 76s-54 -16 -54 -76v-316c0 -15 -5 -20 -20 -20h-60c-15 0 -20 5 -20 20v660c0 15 5 20 20 20h60c15 0 20 -5 20 -20v-215c15 20 38 37 74 39c75 3 134 -47 134 -170v-314c0 -15 -5 -20 -20 -20h-60c-15 0 -20 5 -20 20z" />
    <glyph glyph-name="m" unicode="m" horiz-adv-x="611" 
d="M486 0c-15 0 -20 5 -20 20v316c0 60 -27 76 -54 76s-54 -16 -54 -76v-316c0 -15 -5 -20 -20 -20h-60c-15 0 -20 5 -20 20v316c0 60 -27 76 -54 76s-54 -16 -54 -76v-316c0 -15 -5 -20 -20 -20h-60c-15 0 -20 5 -20 20v460c0 15 5 20 20 20h53c15 0 20 -5 20 -20v-20
c15 22 43 42 81 44c40 0 75 -12 100 -44c5 7 41 44 105 44c78 0 137 -47 137 -170v-314c0 -15 -5 -20 -20 -20h-60z" />
    <glyph glyph-name="r" unicode="r" horiz-adv-x="267" 
d="M232 405c-16 4 -23 5 -32 5c-50 0 -50 -52 -50 -102v-288c0 -15 -5 -20 -20 -20h-60c-15 0 -20 5 -20 20v460c0 15 5 20 20 20h60c15 0 20 -5 20 -20v-12c23 23 51 31 72 32h10c15 0 20 -5 20 -20v-55c0 -15 -5 -24 -20 -20z" />
    <glyph glyph-name="q" unicode="q" horiz-adv-x="398" 
d="M248 164v172c0 60 -27 76 -54 76s-54 -16 -54 -76v-172c0 -60 27 -76 54 -76s54 16 54 76zM268 500h60c15 0 20 -5 20 -20v-640c0 -15 -5 -20 -20 -20h-60c-15 0 -20 5 -20 20v194c-15 -20 -38 -36 -74 -38c-75 -3 -134 47 -134 170v168c0 123 59 173 134 170
c36 -2 59 -17 74 -37v13c0 15 5 20 20 20z" />
    <glyph glyph-name="k" unicode="k" horiz-adv-x="379" 
d="M70 0c-15 0 -20 5 -20 20v660c0 15 5 20 20 20h60c15 0 20 -5 20 -20v-382l102 187c8 15 12 15 22 15h71c9 0 18 -4 9 -21l-103 -189l110 -269c6 -15 -2 -21 -13 -21h-60c-13 0 -16 0 -22 15l-76 182l-40 -73v-104c0 -15 -5 -20 -20 -20h-60z" />
    <glyph glyph-name="v" unicode="v" horiz-adv-x="366" 
d="M268 500h60c10 0 21 0 17 -17l-113 -465c-4 -15 -6 -18 -22 -18h-54c-16 0 -18 3 -22 18l-113 465c-4 17 7 17 17 17h60c13 0 19 0 22 -15l59 -280c1 -5 7 -5 8 0l59 280c3 15 9 15 22 15z" />
    <glyph glyph-name="w" unicode="w" horiz-adv-x="554" 
d="M456 500h60c10 0 20 0 17 -17l-93 -465c-3 -15 -6 -18 -22 -18h-39c-16 0 -18 3 -22 18l-76 278c-1 5 -7 5 -8 0l-76 -278c-4 -15 -6 -18 -22 -18h-39c-16 0 -19 3 -22 18l-93 465c-3 17 7 17 17 17h60c13 0 19 0 22 -15l44 -257c1 -5 7 -5 8 0l70 257c4 12 9 15 20 15
h30c11 0 16 -3 20 -15l70 -257c1 -5 7 -5 8 0l44 257c3 15 9 15 22 15z" />
    <glyph glyph-name="y" unicode="y" horiz-adv-x="352" 
d="M172 161c1 -5 7 -5 8 0l52 324c3 15 9 15 22 15h60c10 0 20 0 17 -17l-99 -495c-28 -145 -78 -168 -154 -168c-15 0 -20 5 -20 20v54c0 15 5 20 20 20c54 1 47 50 42 77l-99 492c-3 17 7 17 17 17h60c13 0 20 0 22 -15z" />
    <glyph glyph-name="x" unicode="x" horiz-adv-x="341" 
d="M221 15l-51 117l-50 -117c-7 -15 -11 -15 -24 -15h-62c-8 0 -18 5 -11 21l97 228l-98 230c-6 15 3 21 11 21h64c13 0 16 -1 22 -15l51 -120l52 120c6 14 9 15 22 15h64c8 0 17 -6 11 -21l-99 -230l98 -228c7 -16 -3 -21 -11 -21h-62c-13 0 -17 0 -24 15z" />
    <glyph glyph-name="z" unicode="z" horiz-adv-x="318" 
d="M289 416l-146 -314c-2 -4 0 -8 5 -8h125c15 0 20 -5 20 -20v-54c0 -15 -5 -20 -20 -20h-228c-15 0 -20 5 -20 20v43c0 10 0 13 4 22l146 312c2 5 1 9 -4 9h-126c-15 0 -20 5 -20 20v54c0 15 5 20 20 20h228c16 0 20 -5 20 -20v-41c0 -10 0 -14 -4 -23z" />
    <glyph glyph-name="s" unicode="s" horiz-adv-x="332" 
d="M128 374c-1 -74 194 -110 183 -247c-5 -62 -59 -131 -145 -131c-93 0 -146 81 -146 140c0 15 5 20 20 20h58c15 0 20 -5 20 -20c0 -30 25 -48 48 -48c22 0 47 18 48 48c4 90 -170 107 -178 234c-5 77 60 134 130 134c72 0 133 -62 133 -137c0 -15 -5 -20 -20 -20h-52
c-14 0 -20 4 -20 24c0 25 -17 43 -40 43c-22 0 -39 -18 -39 -40z" />
    <glyph glyph-name="Eogonek" unicode="&#x118;" horiz-adv-x="341" 
d="M70 0c-15 0 -20 5 -20 20v660c0 15 5 20 20 20h211c15 0 20 -5 20 -20v-54c0 -15 -5 -20 -20 -20h-111c-20 0 -20 0 -20 -20v-150c0 -20 0 -20 20 -20h111c15 0 20 -5 20 -20v-54c0 -15 -5 -20 -20 -20h-111c-20 0 -20 0 -20 -20v-188c0 -20 0 -20 20 -20h111
c15 0 20 -5 20 -20v-54c0 -15 -5 -20 -20 -20h-5c-6 -8 -12 -17 -13 -21c-11 -25 6 -36 25 -38c9 -1 11 -3 9 -12l-16 -69c-2 -8 -6 -9 -13 -8c-65 11 -104 70 -65 130c2 4 7 11 13 18h-146z" />
    <glyph glyph-name="aogonek" unicode="&#x105;" horiz-adv-x="382" 
d="M337 350v-281c1 -21 5 -37 8 -49c3 -15 -5 -20 -20 -20h-1c-6 -8 -12 -17 -13 -21c-11 -25 6 -36 25 -38c9 -1 11 -3 9 -12l-16 -69c-2 -8 -6 -9 -13 -8c-65 11 -104 70 -65 130c2 4 7 11 13 18c-11 1 -15 6 -17 30c0 0 -32 -34 -83 -34c-72 0 -127 44 -127 133v44
c0 110 95 122 155 144c30 11 45 26 45 50c0 23 -18 45 -45 45c-25 0 -49 -21 -47 -59c1 -15 -4 -20 -20 -20h-56c-15 0 -19 5 -20 20c-3 83 61 151 143 151c75 0 145 -58 145 -154zM187 88c43 0 49 38 50 80v80c-54 -24 -100 -35 -100 -85v-8c0 -15 0 -67 50 -67z" />
    <glyph glyph-name="eogonek" unicode="&#x119;" horiz-adv-x="380" 
d="M140 213v-49c0 -60 23 -76 50 -76c20 0 46 11 48 53c1 17 2 26 20 26h57c15 0 19 -5 20 -20c2 -47 -26 -117 -93 -142c-7 -9 -14 -21 -16 -26c-11 -25 6 -36 25 -38c9 -1 11 -3 9 -12l-16 -69c-2 -8 -6 -9 -13 -8c-65 11 -104 70 -65 130l10 15c-67 5 -136 53 -136 183
v140c0 138 79 184 150 184s150 -46 150 -184v-67c0 -16 -5 -20 -21 -20h-159c-15 0 -20 -5 -20 -20zM240 342c-1 55 -24 70 -50 70s-48 -15 -50 -70c0 -20 0 -20 20 -20h60c20 0 20 0 20 20z" />
    <glyph glyph-name="acute" unicode="&#xb4;" horiz-adv-x="135" 
d="M30 735c-7 0 -10 3 -10 10v98c0 17 6 21 21 21h59c15 0 20 -8 13 -27l-30 -85c-5 -15 -7 -17 -17 -17h-36z" />
    <glyph glyph-name="Oacute" unicode="&#xd3;" horiz-adv-x="400" 
d="M360 514v-328c0 -138 -77 -190 -160 -190s-160 52 -160 190v328c0 138 77 190 160 190s160 -52 160 -190zM260 160v380c0 52 -29 72 -60 72s-60 -20 -60 -72v-380c0 -52 29 -72 60 -72s60 20 60 72zM184 735c-7 0 -10 3 -10 10v98c0 17 6 21 21 21h59c15 0 20 -8 13 -27
l-30 -85c-5 -15 -7 -17 -17 -17h-36z" />
    <glyph glyph-name="caron" unicode="&#x2c7;" horiz-adv-x="234" 
d="M121 797l9 56c2 10 5 11 13 11h61c9 0 12 -8 6 -18l-64 -104c-5 -7 -8 -7 -15 -7h-28c-7 0 -10 0 -15 7l-64 104c-6 10 -3 18 6 18h61c8 0 11 -1 13 -11l9 -56c1 -5 7 -5 8 0z" />
    <glyph glyph-name="circumflex" unicode="&#x2c6;" horiz-adv-x="234" 
d="M130 746l-9 56c-1 5 -7 5 -8 0l-9 -56c-2 -10 -5 -11 -13 -11h-61c-9 0 -12 8 -6 18l64 104c5 7 8 7 15 7h28c7 0 10 0 15 -7l64 -104c6 -10 3 -18 -6 -18h-61c-8 0 -11 1 -13 11z" />
    <glyph glyph-name="Acircumflex" unicode="&#xc2;" horiz-adv-x="412" 
d="M364 0h-60c-13 0 -19 0 -22 15l-9 54c-4 20 -4 20 -22 20h-89c-19 0 -19 0 -23 -20l-9 -54c-3 -15 -9 -15 -22 -15h-60c-10 0 -20 0 -17 17l126 665c3 15 6 18 22 18h54c16 0 19 -3 22 -18l126 -665c3 -17 -7 -17 -17 -17zM202 446l-41 -243c-3 -20 -3 -20 17 -20h56
c20 0 20 0 17 20l-41 243c-1 5 -7 5 -8 0zM219 746l-9 56c-1 5 -7 5 -8 0l-9 -56c-2 -10 -5 -11 -13 -11h-61c-9 0 -12 8 -6 18l64 104c5 7 8 7 15 7h28c7 0 10 0 15 -7l64 -104c6 -10 3 -18 -6 -18h-61c-8 0 -11 1 -13 11z" />
    <glyph glyph-name="oacute" unicode="&#xf3;" horiz-adv-x="380" 
d="M340 320v-140c0 -138 -79 -184 -150 -184s-150 46 -150 184v140c0 138 79 184 150 184s150 -46 150 -184zM240 336c0 60 -23 76 -50 76s-50 -16 -50 -76v-172c0 -60 23 -76 50 -76s50 16 50 76v172zM174 549c-7 0 -10 3 -10 10v98c0 17 6 21 21 21h59c15 0 20 -8 13 -27
l-30 -85c-5 -15 -7 -17 -17 -17h-36z" />
    <glyph glyph-name="cacute" unicode="&#x107;" horiz-adv-x="376" 
d="M190 -4c-71 0 -150 46 -150 184v140c0 138 79 184 150 184c105 0 148 -94 145 -151c-1 -15 -5 -20 -20 -20h-57c-18 0 -19 9 -20 26c-2 42 -28 53 -48 53c-27 0 -50 -16 -50 -76v-172c0 -60 23 -76 50 -76c20 0 46 11 48 53c1 17 2 26 20 26h57c15 0 19 -5 20 -20
c3 -57 -40 -151 -145 -151zM171 549c-7 0 -10 3 -10 10v98c0 17 6 21 21 21h59c15 0 20 -8 13 -27l-30 -85c-5 -15 -7 -17 -17 -17h-36z" />
    <glyph glyph-name="sacute" unicode="&#x15b;" horiz-adv-x="332" 
d="M128 374c-1 -74 194 -110 183 -247c-5 -62 -59 -131 -145 -131c-93 0 -146 81 -146 140c0 15 5 20 20 20h58c15 0 20 -5 20 -20c0 -30 25 -48 48 -48c22 0 47 18 48 48c4 90 -170 107 -178 234c-5 77 60 134 130 134c72 0 133 -62 133 -137c0 -15 -5 -20 -20 -20h-52
c-14 0 -20 4 -20 24c0 25 -17 43 -40 43c-22 0 -39 -18 -39 -40zM144 549c-7 0 -10 3 -10 10v98c0 17 6 21 21 21h59c15 0 20 -8 13 -27l-30 -85c-5 -15 -7 -17 -17 -17h-36z" />
    <glyph glyph-name="zcaron" unicode="&#x17e;" horiz-adv-x="318" 
d="M289 416l-146 -314c-2 -4 0 -8 5 -8h125c15 0 20 -5 20 -20v-54c0 -15 -5 -20 -20 -20h-228c-15 0 -20 5 -20 20v43c0 10 0 13 4 22l146 312c2 5 1 9 -4 9h-126c-15 0 -20 5 -20 20v54c0 15 5 20 20 20h228c16 0 20 -5 20 -20v-41c0 -10 0 -14 -4 -23zM166 611l9 56
c2 10 5 11 13 11h61c9 0 12 -8 6 -18l-64 -104c-5 -7 -8 -7 -15 -7h-28c-7 0 -10 0 -15 7l-64 104c-6 10 -3 18 6 18h61c8 0 11 -1 13 -11l9 -56c1 -5 7 -5 8 0z" />
    <glyph glyph-name="scaron" unicode="&#x161;" horiz-adv-x="332" 
d="M128 374c-1 -74 194 -110 183 -247c-5 -62 -59 -131 -145 -131c-93 0 -146 81 -146 140c0 15 5 20 20 20h58c15 0 20 -5 20 -20c0 -30 25 -48 48 -48c22 0 47 18 48 48c4 90 -170 107 -178 234c-5 77 60 134 130 134c72 0 133 -62 133 -137c0 -15 -5 -20 -20 -20h-52
c-14 0 -20 4 -20 24c0 25 -17 43 -40 43c-22 0 -39 -18 -39 -40zM169 611l9 56c2 10 5 11 13 11h61c9 0 12 -8 6 -18l-64 -104c-5 -7 -8 -7 -15 -7h-28c-7 0 -10 0 -15 7l-64 104c-6 10 -3 18 6 18h61c8 0 11 -1 13 -11l9 -56c1 -5 7 -5 8 0z" />
    <glyph glyph-name="ccaron" unicode="&#x10d;" horiz-adv-x="376" 
d="M190 -4c-71 0 -150 46 -150 184v140c0 138 79 184 150 184c105 0 148 -94 145 -151c-1 -15 -5 -20 -20 -20h-57c-18 0 -19 9 -20 26c-2 42 -28 53 -48 53c-27 0 -50 -16 -50 -76v-172c0 -60 23 -76 50 -76c20 0 46 11 48 53c1 17 2 26 20 26h57c15 0 19 -5 20 -20
c3 -57 -40 -151 -145 -151zM193 611l9 56c2 10 5 11 13 11h61c9 0 12 -8 6 -18l-64 -104c-5 -7 -8 -7 -15 -7h-28c-7 0 -10 0 -15 7l-64 104c-6 10 -3 18 6 18h61c8 0 11 -1 13 -11l9 -56c1 -5 7 -5 8 0z" />
    <glyph glyph-name="Zcaron" unicode="&#x17d;" horiz-adv-x="340" 
d="M306 597l-167 -495c-2 -6 0 -8 5 -8h146c15 0 20 -5 20 -20v-54c0 -15 -5 -20 -20 -20h-240c-15 0 -20 5 -20 20v61c0 10 0 12 4 22l167 495c2 5 0 8 -5 8h-146c-15 0 -20 5 -20 20v54c0 15 5 20 20 20h240c15 0 20 -5 20 -20v-61c0 -10 0 -10 -4 -22zM179 797l9 56
c2 10 5 11 13 11h61c9 0 12 -8 6 -18l-64 -104c-5 -7 -8 -7 -15 -7h-28c-7 0 -10 0 -15 7l-64 104c-6 10 -3 18 6 18h61c8 0 11 -1 13 -11l9 -56c1 -5 7 -5 8 0z" />
    <glyph glyph-name="Scaron" unicode="&#x160;" horiz-adv-x="367" 
d="M181 -4c-92 0 -162 76 -160 164c0 17 4 22 21 22h58c13 0 20 -5 20 -23c0 -39 20 -71 61 -71c40 0 58 31 62 59c19 119 -201 234 -211 399c-5 86 57 158 147 158c69 0 135 -53 143 -133c2 -27 0 -32 -20 -32h-55c-15 0 -20 5 -20 20c0 36 -21 53 -48 53
c-46 0 -51 -45 -49 -65c11 -112 191 -213 210 -370c11 -90 -56 -181 -159 -181zM185 797l9 56c2 10 5 11 13 11h61c9 0 12 -8 6 -18l-64 -104c-5 -7 -8 -7 -15 -7h-28c-7 0 -10 0 -15 7l-64 104c-6 10 -3 18 6 18h61c8 0 11 -1 13 -11l9 -56c1 -5 7 -5 8 0z" />
    <glyph glyph-name="Ccaron" unicode="&#x10c;" horiz-adv-x="395" 
d="M140 160c0 -52 29 -72 60 -72s60 20 60 72v7c0 15 5 20 20 20h59c15 0 21 -12 20 -26c-9 -119 -81 -165 -159 -165c-83 0 -160 52 -160 190v328c0 138 77 190 160 190c78 0 150 -46 159 -165c1 -14 -5 -26 -20 -26h-59c-15 0 -20 5 -20 20v7c0 52 -29 72 -60 72
s-60 -20 -60 -72v-380zM202 797l9 56c2 10 5 11 13 11h61c9 0 12 -8 6 -18l-64 -104c-5 -7 -8 -7 -15 -7h-28c-7 0 -10 0 -15 7l-64 104c-6 10 -3 18 6 18h61c8 0 11 -1 13 -11l9 -56c1 -5 7 -5 8 0z" />
    <glyph glyph-name="Zacute" unicode="&#x179;" horiz-adv-x="340" 
d="M306 597l-167 -495c-2 -6 0 -8 5 -8h146c15 0 20 -5 20 -20v-54c0 -15 -5 -20 -20 -20h-240c-15 0 -20 5 -20 20v61c0 10 0 12 4 22l167 495c2 5 0 8 -5 8h-146c-15 0 -20 5 -20 20v54c0 15 5 20 20 20h240c15 0 20 -5 20 -20v-61c0 -10 0 -10 -4 -22zM157 735
c-7 0 -10 3 -10 10v98c0 17 6 21 21 21h59c15 0 20 -8 13 -27l-30 -85c-5 -15 -7 -17 -17 -17h-36z" />
    <glyph glyph-name="Nacute" unicode="&#x143;" horiz-adv-x="465" 
d="M395 0h-45c-9 0 -16 2 -20 12l-172 403c-3 7 -8 4 -8 -1v-394c0 -15 -5 -20 -20 -20h-60c-15 0 -20 5 -20 20v660c0 15 5 20 20 20h45c11 0 16 -2 20 -13l172 -403c3 -6 8 -4 8 1v395c0 15 5 20 20 20h60c15 0 20 -5 20 -20v-660c0 -15 -5 -20 -20 -20zM217 735
c-7 0 -10 3 -10 10v98c0 17 6 21 21 21h59c15 0 20 -8 13 -27l-30 -85c-5 -15 -7 -17 -17 -17h-36z" />
    <glyph glyph-name="Sacute" unicode="&#x15a;" horiz-adv-x="367" 
d="M181 -4c-92 0 -162 76 -160 164c0 17 4 22 21 22h58c13 0 20 -5 20 -23c0 -39 20 -71 61 -71c40 0 58 31 62 59c19 119 -201 234 -211 399c-5 86 57 158 147 158c69 0 135 -53 143 -133c2 -27 0 -32 -20 -32h-55c-15 0 -20 5 -20 20c0 36 -21 53 -48 53
c-46 0 -51 -45 -49 -65c11 -112 191 -213 210 -370c11 -90 -56 -181 -159 -181zM160 735c-7 0 -10 3 -10 10v98c0 17 6 21 21 21h59c15 0 20 -8 13 -27l-30 -85c-5 -15 -7 -17 -17 -17h-36z" />
    <glyph glyph-name="zacute" unicode="&#x17a;" horiz-adv-x="318" 
d="M289 416l-146 -314c-2 -4 0 -8 5 -8h125c15 0 20 -5 20 -20v-54c0 -15 -5 -20 -20 -20h-228c-15 0 -20 5 -20 20v43c0 10 0 13 4 22l146 312c2 5 1 9 -4 9h-126c-15 0 -20 5 -20 20v54c0 15 5 20 20 20h228c16 0 20 -5 20 -20v-41c0 -10 0 -14 -4 -23zM139 549
c-7 0 -10 3 -10 10v98c0 17 6 21 21 21h59c15 0 20 -8 13 -27l-30 -85c-5 -15 -7 -17 -17 -17h-36z" />
    <glyph glyph-name="eacute" unicode="&#xe9;" horiz-adv-x="380" 
d="M240 342c-1 55 -24 70 -50 70s-48 -15 -50 -70c0 -20 0 -20 20 -20h60c20 0 20 0 20 20zM140 213v-49c0 -60 23 -76 50 -76c20 0 46 11 48 53c1 17 2 26 20 26h57c15 0 19 -5 20 -20c3 -57 -40 -151 -145 -151c-71 0 -150 46 -150 184v140c0 138 79 184 150 184
s150 -46 150 -184v-67c0 -16 -5 -20 -21 -20h-159c-15 0 -20 -5 -20 -20zM171 549c-7 0 -10 3 -10 10v98c0 17 6 21 21 21h59c15 0 20 -8 13 -27l-30 -85c-5 -15 -7 -17 -17 -17h-36z" />
    <glyph glyph-name="nacute" unicode="&#x144;" horiz-adv-x="403" 
d="M258 20v316c0 60 -27 76 -54 76s-54 -16 -54 -76v-316c0 -15 -5 -20 -20 -20h-60c-15 0 -20 5 -20 20v460c0 15 5 20 20 20h57c15 0 20 -5 20 -20v-19c15 22 39 41 77 43c75 3 134 -47 134 -170v-314c0 -15 -5 -20 -20 -20h-60c-15 0 -20 5 -20 20zM184 549
c-7 0 -10 3 -10 10v98c0 17 6 21 21 21h59c15 0 20 -8 13 -27l-30 -85c-5 -15 -7 -17 -17 -17h-36z" />
    <glyph glyph-name="ycircumflex" unicode="&#x177;" horiz-adv-x="352" 
d="M172 161c1 -5 7 -5 8 0l52 324c3 15 9 15 22 15h60c10 0 20 0 17 -17l-99 -495c-28 -145 -78 -168 -154 -168c-15 0 -20 5 -20 20v54c0 15 5 20 20 20c54 1 47 50 42 77l-99 492c-3 17 7 17 17 17h60c13 0 20 0 22 -15zM189 560l-9 56c-1 5 -7 5 -8 0l-9 -56
c-2 -10 -5 -11 -13 -11h-61c-9 0 -12 8 -6 18l64 104c5 7 8 7 15 7h28c7 0 10 0 15 -7l64 -104c6 -10 3 -18 -6 -18h-61c-8 0 -11 1 -13 11z" />
    <glyph glyph-name="wcircumflex" unicode="&#x175;" horiz-adv-x="554" 
d="M456 500h60c10 0 20 0 17 -17l-93 -465c-3 -15 -6 -18 -22 -18h-39c-16 0 -18 3 -22 18l-76 278c-1 5 -7 5 -8 0l-76 -278c-4 -15 -6 -18 -22 -18h-39c-16 0 -19 3 -22 18l-93 465c-3 17 7 17 17 17h60c13 0 19 0 22 -15l44 -257c1 -5 7 -5 8 0l70 257c4 12 9 15 20 15
h30c11 0 16 -3 20 -15l70 -257c1 -5 7 -5 8 0l44 257c3 15 9 15 22 15zM290 560l-9 56c-1 5 -7 5 -8 0l-9 -56c-2 -10 -5 -11 -13 -11h-61c-9 0 -12 8 -6 18l64 104c5 7 8 7 15 7h28c7 0 10 0 15 -7l64 -104c6 -10 3 -18 -6 -18h-61c-8 0 -11 1 -13 11z" />
    <glyph glyph-name="dotaccent" unicode="&#x2d9;" horiz-adv-x="142" 
d="M15 590c0 31 25 56 56 56s56 -25 56 -56s-25 -56 -56 -56s-56 25 -56 56z" />
    <glyph glyph-name="Zdotaccent" unicode="&#x17b;" horiz-adv-x="340" 
d="M306 597l-167 -495c-2 -6 0 -8 5 -8h146c15 0 20 -5 20 -20v-54c0 -15 -5 -20 -20 -20h-240c-15 0 -20 5 -20 20v61c0 10 0 12 4 22l167 495c2 5 0 8 -5 8h-146c-15 0 -20 5 -20 20v54c0 15 5 20 20 20h240c15 0 20 -5 20 -20v-61c0 -10 0 -10 -4 -22zM115 787
c0 31 25 56 56 56s56 -25 56 -56s-25 -56 -56 -56s-56 25 -56 56z" />
    <glyph glyph-name="zdotaccent" unicode="&#x17c;" horiz-adv-x="318" 
d="M289 416l-146 -314c-2 -4 0 -8 5 -8h125c15 0 20 -5 20 -20v-54c0 -15 -5 -20 -20 -20h-228c-15 0 -20 5 -20 20v43c0 10 0 13 4 22l146 312c2 5 1 9 -4 9h-126c-15 0 -20 5 -20 20v54c0 15 5 20 20 20h228c16 0 20 -5 20 -20v-41c0 -10 0 -14 -4 -23zM104 601
c0 31 25 56 56 56s56 -25 56 -56s-25 -56 -56 -56s-56 25 -56 56z" />
    <glyph glyph-name="dotlessi" unicode="&#x131;" 
d="M70 0c-15 0 -20 5 -20 20v460c0 15 5 20 20 20h60c15 0 20 -5 20 -20v-460c0 -15 -5 -20 -20 -20h-60z" />
    <glyph glyph-name="dotlessj" unicode="&#x237;" 
d="M16 -86c34 4 34 48 34 109v457c0 15 5 20 20 20h60c15 0 20 -5 20 -20v-484c0 -137 -57 -176 -134 -176c-15 0 -20 5 -20 20v54c0 15 5 19 20 20z" />
    <glyph glyph-name="jcircumflex" unicode="&#x135;" 
d="M16 -86c34 4 34 48 34 109v457c0 15 5 20 20 20h60c15 0 20 -5 20 -20v-484c0 -137 -57 -176 -134 -176c-15 0 -20 5 -20 20v54c0 15 5 19 20 20zM114 560l-9 56c-1 5 -7 5 -8 0l-9 -56c-2 -10 -5 -11 -13 -11h-61c-9 0 -12 8 -6 18l64 104c5 7 8 7 15 7h28
c7 0 10 0 15 -7l64 -104c6 -10 3 -18 -6 -18h-61c-8 0 -11 1 -13 11z" />
    <glyph glyph-name="ncaron" unicode="&#x148;" horiz-adv-x="403" 
d="M258 20v316c0 60 -27 76 -54 76s-54 -16 -54 -76v-316c0 -15 -5 -20 -20 -20h-60c-15 0 -20 5 -20 20v460c0 15 5 20 20 20h57c15 0 20 -5 20 -20v-19c15 22 39 41 77 43c75 3 134 -47 134 -170v-314c0 -15 -5 -20 -20 -20h-60c-15 0 -20 5 -20 20zM208 611l9 56
c2 10 5 11 13 11h61c9 0 12 -8 6 -18l-64 -104c-5 -7 -8 -7 -15 -7h-28c-7 0 -10 0 -15 7l-64 104c-6 10 -3 18 6 18h61c8 0 11 -1 13 -11l9 -56c1 -5 7 -5 8 0z" />
    <glyph glyph-name="gcircumflex" unicode="&#x11d;" horiz-adv-x="403" 
d="M45 334c0 119 56 170 128 170c41 0 67 -20 83 -43v19c0 15 4 20 20 20h57c15 0 20 -5 20 -20v-479c0 -123 -71 -184 -164 -184c-65 0 -115 28 -145 89c-5 10 -6 19 9 24l61 20c12 4 19 3 27 -10c17 -26 35 -29 48 -29c19 0 64 9 64 99v24c-16 -21 -41 -38 -80 -38
c-72 0 -128 50 -128 170v168zM253 164v172c0 60 -27 76 -54 76s-54 -16 -54 -76v-172c0 -60 27 -76 54 -76s54 16 54 76zM213 560l-9 56c-1 5 -7 5 -8 0l-9 -56c-2 -10 -5 -11 -13 -11h-61c-9 0 -12 8 -6 18l64 104c5 7 8 7 15 7h28c7 0 10 0 15 -7l64 -104
c6 -10 3 -18 -6 -18h-61c-8 0 -11 1 -13 11z" />
    <glyph glyph-name="aacute" unicode="&#xe1;" horiz-adv-x="382" 
d="M337 350v-281c1 -21 5 -37 8 -49c3 -15 -5 -20 -20 -20h-56c-14 0 -19 3 -22 30c0 0 -32 -34 -83 -34c-72 0 -127 44 -127 133v44c0 110 95 122 155 144c30 11 45 26 45 50c0 23 -18 45 -45 45c-25 0 -49 -21 -47 -59c1 -15 -4 -20 -20 -20h-56c-15 0 -19 5 -20 20
c-3 83 61 151 143 151c75 0 145 -58 145 -154zM187 88c43 0 49 38 50 80v80c-54 -24 -100 -35 -100 -85v-8c0 -15 0 -67 50 -67zM175 549c-7 0 -10 3 -10 10v98c0 17 6 21 21 21h59c15 0 20 -8 13 -27l-30 -85c-5 -15 -7 -17 -17 -17h-36z" />
    <glyph glyph-name="grave" unicode="`" horiz-adv-x="135" 
d="M105 735h-36c-10 0 -12 2 -17 17l-30 85c-7 19 -2 27 13 27h59c15 0 21 -4 21 -21v-98c0 -7 -3 -10 -10 -10z" />
    <glyph glyph-name="agrave" unicode="&#xe0;" horiz-adv-x="382" 
d="M337 350v-281c1 -21 5 -37 8 -49c3 -15 -5 -20 -20 -20h-56c-14 0 -19 3 -22 30c0 0 -32 -34 -83 -34c-72 0 -127 44 -127 133v44c0 110 95 122 155 144c30 11 45 26 45 50c0 23 -18 45 -45 45c-25 0 -49 -21 -47 -59c1 -15 -4 -20 -20 -20h-56c-15 0 -19 5 -20 20
c-3 83 61 151 143 151c75 0 145 -58 145 -154zM187 88c43 0 49 38 50 80v80c-54 -24 -100 -35 -100 -85v-8c0 -15 0 -67 50 -67zM218 549h-36c-10 0 -12 2 -17 17l-30 85c-7 19 -2 27 13 27h59c15 0 21 -4 21 -21v-98c0 -7 -3 -10 -10 -10z" />
    <glyph glyph-name="acircumflex" unicode="&#xe2;" horiz-adv-x="382" 
d="M337 350v-281c1 -21 5 -37 8 -49c3 -15 -5 -20 -20 -20h-56c-14 0 -19 3 -22 30c0 0 -32 -34 -83 -34c-72 0 -127 44 -127 133v44c0 110 95 122 155 144c30 11 45 26 45 50c0 23 -18 45 -45 45c-25 0 -49 -21 -47 -59c1 -15 -4 -20 -20 -20h-56c-15 0 -19 5 -20 20
c-3 83 61 151 143 151c75 0 145 -58 145 -154zM187 88c43 0 49 38 50 80v80c-54 -24 -100 -35 -100 -85v-8c0 -15 0 -67 50 -67zM210 560l-9 56c-1 5 -7 5 -8 0l-9 -56c-2 -10 -5 -11 -13 -11h-61c-9 0 -12 8 -6 18l64 104c5 7 8 7 15 7h28c7 0 10 0 15 -7l64 -104
c6 -10 3 -18 -6 -18h-61c-8 0 -11 1 -13 11z" />
    <glyph glyph-name="ograve" unicode="&#xf2;" horiz-adv-x="380" 
d="M340 320v-140c0 -138 -79 -184 -150 -184s-150 46 -150 184v140c0 138 79 184 150 184s150 -46 150 -184zM240 336c0 60 -23 76 -50 76s-50 -16 -50 -76v-172c0 -60 23 -76 50 -76s50 16 50 76v172zM208 549h-36c-10 0 -12 2 -17 17l-30 85c-7 19 -2 27 13 27h59
c15 0 21 -4 21 -21v-98c0 -7 -3 -10 -10 -10z" />
    <glyph glyph-name="Wacute" unicode="&#x1e82;" horiz-adv-x="624" 
d="M317 395c-1 7 -9 7 -10 0l-71 -375c-3 -15 -5 -20 -23 -20h-39c-18 0 -20 5 -23 20l-125 660c-3 14 1 20 17 20h60c16 0 20 -4 23 -20l66 -396c1 -5 8 -5 9 0l75 396c3 16 7 20 22 20h28c15 0 19 -4 22 -20l75 -396c1 -5 8 -5 9 0l66 396c3 16 7 20 23 20h60
c16 0 20 -6 17 -20l-125 -660c-3 -15 -5 -20 -23 -20h-49c-18 0 -20 5 -23 20zM295 735c-7 0 -10 3 -10 10v98c0 17 6 21 21 21h59c15 0 20 -8 13 -27l-30 -85c-5 -15 -7 -17 -17 -17h-36z" />
    <glyph glyph-name="Wgrave" unicode="&#x1e80;" horiz-adv-x="624" 
d="M317 395c-1 7 -9 7 -10 0l-71 -375c-3 -15 -5 -20 -23 -20h-39c-18 0 -20 5 -23 20l-125 660c-3 14 1 20 17 20h60c16 0 20 -4 23 -20l66 -396c1 -5 8 -5 9 0l75 396c3 16 7 20 22 20h28c15 0 19 -4 22 -20l75 -396c1 -5 8 -5 9 0l66 396c3 16 7 20 23 20h60
c16 0 20 -6 17 -20l-125 -660c-3 -15 -5 -20 -23 -20h-49c-18 0 -20 5 -23 20zM328 735h-36c-10 0 -12 2 -17 17l-30 85c-7 19 -2 27 13 27h59c15 0 21 -4 21 -21v-98c0 -7 -3 -10 -10 -10z" />
    <glyph glyph-name="Yacute" unicode="&#xdd;" horiz-adv-x="350" 
d="M145 0c-15 0 -20 5 -20 20v204c0 10 -103 456 -103 456c-3 11 0 20 13 20h64c18 0 19 -5 23 -20l48 -242c1 -7 9 -7 10 0l48 242c4 15 5 20 23 20h64c13 0 16 -9 13 -20c0 0 -103 -446 -103 -456v-204c0 -15 -5 -20 -20 -20h-60zM160 735c-7 0 -10 3 -10 10v98
c0 17 6 21 21 21h59c15 0 20 -8 13 -27l-30 -85c-5 -15 -7 -17 -17 -17h-36z" />
    <glyph glyph-name="Ygrave" unicode="&#x1ef2;" horiz-adv-x="350" 
d="M145 0c-15 0 -20 5 -20 20v204c0 10 -103 456 -103 456c-3 11 0 20 13 20h64c18 0 19 -5 23 -20l48 -242c1 -7 9 -7 10 0l48 242c4 15 5 20 23 20h64c13 0 16 -9 13 -20c0 0 -103 -446 -103 -456v-204c0 -15 -5 -20 -20 -20h-60zM193 735h-36c-10 0 -12 2 -17 17l-30 85
c-7 19 -2 27 13 27h59c15 0 21 -4 21 -21v-98c0 -7 -3 -10 -10 -10z" />
    <glyph glyph-name="Tcaron" unicode="&#x164;" horiz-adv-x="330" 
d="M15 680c0 15 5 20 20 20h260c15 0 20 -5 20 -20v-54c0 -15 -5 -20 -20 -20h-60c-20 0 -20 0 -20 -20v-566c0 -15 -5 -20 -20 -20h-60c-15 0 -20 5 -20 20v566c0 20 0 20 -19 20h-61c-15 0 -20 5 -20 20v54zM170 797l9 56c2 10 5 11 13 11h61c9 0 12 -8 6 -18l-64 -104
c-5 -7 -8 -7 -15 -7h-28c-7 0 -10 0 -15 7l-64 104c-6 10 -3 18 6 18h61c8 0 11 -1 13 -11l9 -56c1 -5 7 -5 8 0z" />
    <glyph glyph-name="Uacute" unicode="&#xda;" horiz-adv-x="410" 
d="M265 680c0 15 5 20 20 20h60c15 0 20 -5 20 -20v-494c0 -138 -77 -190 -160 -190s-160 52 -160 190v494c0 15 5 20 20 20h60c15 0 20 -5 20 -20v-520c0 -52 29 -72 60 -72s60 20 60 72v520zM181 735c-7 0 -10 3 -10 10v98c0 17 6 21 21 21h59c15 0 20 -8 13 -27l-30 -85
c-5 -15 -7 -17 -17 -17h-36z" />
    <glyph glyph-name="Ugrave" unicode="&#xd9;" horiz-adv-x="410" 
d="M265 680c0 15 5 20 20 20h60c15 0 20 -5 20 -20v-494c0 -138 -77 -190 -160 -190s-160 52 -160 190v494c0 15 5 20 20 20h60c15 0 20 -5 20 -20v-520c0 -52 29 -72 60 -72s60 20 60 72v520zM228 735h-36c-10 0 -12 2 -17 17l-30 85c-7 19 -2 27 13 27h59
c15 0 21 -4 21 -21v-98c0 -7 -3 -10 -10 -10z" />
    <glyph glyph-name="Racute" unicode="&#x154;" horiz-adv-x="391" 
d="M200 700c83 0 150 -48 150 -186v-32c0 -91 -26 -137 -61 -163l60 -298c4 -16 -4 -21 -12 -21h-63c-13 0 -19 0 -22 15l-51 269c-2 9 -8 9 -12 9h-19c-20 0 -20 0 -20 -20v-253c0 -15 -5 -20 -20 -20h-60c-15 0 -20 5 -20 20v660c0 15 5 20 20 20h130zM200 612h-30
c-20 0 -20 0 -20 -20v-191c0 -20 0 -20 20 -20h30c31 0 50 20 50 71v88c0 52 -19 72 -50 72zM157 735c-7 0 -10 3 -10 10v98c0 17 6 21 21 21h59c15 0 20 -8 13 -27l-30 -85c-5 -15 -7 -17 -17 -17h-36z" />
    <glyph glyph-name="Ycircumflex" unicode="&#x176;" horiz-adv-x="350" 
d="M145 0c-15 0 -20 5 -20 20v204c0 10 -103 456 -103 456c-3 11 0 20 13 20h64c18 0 19 -5 23 -20l48 -242c1 -7 9 -7 10 0l48 242c4 15 5 20 23 20h64c13 0 16 -9 13 -20c0 0 -103 -446 -103 -456v-204c0 -15 -5 -20 -20 -20h-60zM188 746l-9 56c-1 5 -7 5 -8 0l-9 -56
c-2 -10 -5 -11 -13 -11h-61c-9 0 -12 8 -6 18l64 104c5 7 8 7 15 7h28c7 0 10 0 15 -7l64 -104c6 -10 3 -18 -6 -18h-61c-8 0 -11 1 -13 11z" />
    <glyph glyph-name="Lslash" unicode="&#x141;" horiz-adv-x="316" 
d="M70 0c-15 0 -20 5 -20 20v660c0 15 5 20 20 20h60c15 0 20 -5 20 -20v-228l32 38c10 12 16 13 28 3l41 -36c12 -10 12 -16 2 -28l-103 -123v-191c0 -21 0 -21 21 -21h110c15 0 20 -5 20 -20v-54c0 -15 -5 -20 -20 -20h-211z" />
    <glyph glyph-name="lslash" unicode="&#x142;" horiz-adv-x="244" 
d="M55 244l-17 -17c-6 -6 -13 -4 -13 5v106c0 15 1 22 10 31l20 20v291c0 15 5 20 20 20h60c15 0 20 -5 20 -20v-180l36 36c9 9 14 3 14 -5v-112c0 -6 0 -14 -10 -24l-40 -40v-157c0 -61 0 -103 54 -104c15 -1 20 -5 20 -20v-54c0 -15 -5 -20 -20 -20
c-114 0 -154 49 -154 200v44z" />
    <glyph glyph-name="macron" unicode="&#xaf;" horiz-adv-x="239" 
d="M20 793c0 15 5 20 20 20h159c15 0 20 -5 20 -20v-38c0 -15 -5 -20 -20 -20h-159c-15 0 -20 5 -20 20v38z" />
    <glyph glyph-name="Umacron" unicode="&#x16a;" horiz-adv-x="410" 
d="M265 680c0 15 5 20 20 20h60c15 0 20 -5 20 -20v-494c0 -138 -77 -190 -160 -190s-160 52 -160 190v494c0 15 5 20 20 20h60c15 0 20 -5 20 -20v-520c0 -52 29 -72 60 -72s60 20 60 72v520zM107 793c0 15 5 20 20 20h159c15 0 20 -5 20 -20v-38c0 -15 -5 -20 -20 -20
h-159c-15 0 -20 5 -20 20v38z" />
    <glyph glyph-name="Omacron" unicode="&#x14c;" horiz-adv-x="400" 
d="M360 514v-328c0 -138 -77 -190 -160 -190s-160 52 -160 190v328c0 138 77 190 160 190s160 -52 160 -190zM260 160v380c0 52 -29 72 -60 72s-60 -20 -60 -72v-380c0 -52 29 -72 60 -72s60 20 60 72zM100 793c0 15 5 20 20 20h159c15 0 20 -5 20 -20v-38
c0 -15 -5 -20 -20 -20h-159c-15 0 -20 5 -20 20v38z" />
    <glyph glyph-name="Amacron" unicode="&#x100;" horiz-adv-x="412" 
d="M364 0h-60c-13 0 -19 0 -22 15l-9 54c-4 20 -4 20 -22 20h-89c-19 0 -19 0 -23 -20l-9 -54c-3 -15 -9 -15 -22 -15h-60c-10 0 -20 0 -17 17l126 665c3 15 6 18 22 18h54c16 0 19 -3 22 -18l126 -665c3 -17 -7 -17 -17 -17zM202 446l-41 -243c-3 -20 -3 -20 17 -20h56
c20 0 20 0 17 20l-41 243c-1 5 -7 5 -8 0zM107 793c0 15 5 20 20 20h159c15 0 20 -5 20 -20v-38c0 -15 -5 -20 -20 -20h-159c-15 0 -20 5 -20 20v38z" />
    <glyph glyph-name="Emacron" unicode="&#x112;" horiz-adv-x="341" 
d="M70 0c-15 0 -20 5 -20 20v660c0 15 5 20 20 20h211c15 0 20 -5 20 -20v-54c0 -15 -5 -20 -20 -20h-111c-20 0 -20 0 -20 -20v-150c0 -20 0 -20 20 -20h111c15 0 20 -5 20 -20v-54c0 -15 -5 -20 -20 -20h-111c-20 0 -20 0 -20 -20v-188c0 -20 0 -20 20 -20h111
c15 0 20 -5 20 -20v-54c0 -15 -5 -20 -20 -20h-211zM73 793c0 15 5 20 20 20h159c15 0 20 -5 20 -20v-38c0 -15 -5 -20 -20 -20h-159c-15 0 -20 5 -20 20v38z" />
    <glyph glyph-name="Gcircumflex" unicode="&#x11c;" horiz-adv-x="400" 
d="M140 160c0 -52 29 -72 60 -72s60 20 60 72v142c0 20 0 20 -20 20h-8c-16 0 -20 4 -20 20v54c0 15 4 20 20 20h108c15 0 20 -5 20 -20v-210c0 -115 -57 -190 -160 -190c-83 0 -160 52 -160 190v328c0 138 77 190 160 190c78 0 150 -46 159 -165c1 -14 -5 -26 -20 -26h-59
c-15 0 -20 5 -20 20v7c0 52 -29 72 -60 72s-60 -20 -60 -72v-380zM215 746l-9 56c-1 5 -7 5 -8 0l-9 -56c-2 -10 -5 -11 -13 -11h-61c-9 0 -12 8 -6 18l64 104c5 7 8 7 15 7h28c7 0 10 0 15 -7l64 -104c6 -10 3 -18 -6 -18h-61c-8 0 -11 1 -13 11z" />
    <glyph glyph-name="Gdotaccent" unicode="&#x120;" horiz-adv-x="400" 
d="M140 160c0 -52 29 -72 60 -72s60 20 60 72v142c0 20 0 20 -20 20h-8c-16 0 -20 4 -20 20v54c0 15 4 20 20 20h108c15 0 20 -5 20 -20v-210c0 -115 -57 -190 -160 -190c-83 0 -160 52 -160 190v328c0 138 77 190 160 190c78 0 150 -46 159 -165c1 -14 -5 -26 -20 -26h-59
c-15 0 -20 5 -20 20v7c0 52 -29 72 -60 72s-60 -20 -60 -72v-380zM145 791c0 31 25 56 56 56s56 -25 56 -56s-25 -56 -56 -56s-56 25 -56 56z" />
    <glyph glyph-name="Hcircumflex" unicode="&#x124;" horiz-adv-x="400" 
d="M250 302c0 20 0 20 -20 20h-60c-20 0 -20 0 -20 -20v-282c0 -15 -5 -20 -20 -20h-60c-15 0 -20 5 -20 20v660c0 15 5 20 20 20h60c15 0 20 -5 20 -20v-244c0 -20 0 -20 20 -20h60c20 0 20 0 20 20v244c0 15 5 20 20 20h60c15 0 20 -5 20 -20v-660c0 -15 -5 -20 -20 -20
h-60c-15 0 -20 5 -20 20v282zM214 746l-9 56c-1 5 -7 5 -8 0l-9 -56c-2 -10 -5 -11 -13 -11h-61c-9 0 -12 8 -6 18l64 104c5 7 8 7 15 7h28c7 0 10 0 15 -7l64 -104c6 -10 3 -18 -6 -18h-61c-8 0 -11 1 -13 11z" />
    <glyph glyph-name="Jcircumflex" unicode="&#x134;" horiz-adv-x="244" 
d="M35 94c64 4 64 43 64 104v482c0 15 5 20 20 20h60c15 0 20 -5 20 -20v-480c0 -151 -50 -200 -164 -200c-15 0 -20 5 -20 20v54c0 15 5 19 20 20zM163 746l-9 56c-1 5 -7 5 -8 0l-9 -56c-2 -10 -5 -11 -13 -11h-61c-9 0 -12 8 -6 18l64 104c5 7 8 7 15 7h28
c7 0 10 0 15 -7l64 -104c6 -10 3 -18 -6 -18h-61c-8 0 -11 1 -13 11z" />
    <glyph glyph-name="Lacute" unicode="&#x139;" horiz-adv-x="316" 
d="M70 0c-15 0 -20 5 -20 20v660c0 15 5 20 20 20h60c15 0 20 -5 20 -20v-565c0 -21 0 -21 21 -21h110c15 0 20 -5 20 -20v-54c0 -15 -5 -20 -20 -20h-211zM80 735c-7 0 -10 3 -10 10v98c0 17 6 21 21 21h59c15 0 20 -8 13 -27l-30 -85c-5 -15 -7 -17 -17 -17h-36z" />
    <glyph glyph-name="Ncaron" unicode="&#x147;" horiz-adv-x="465" 
d="M395 0h-45c-9 0 -16 2 -20 12l-172 403c-3 7 -8 4 -8 -1v-394c0 -15 -5 -20 -20 -20h-60c-15 0 -20 5 -20 20v660c0 15 5 20 20 20h45c11 0 16 -2 20 -13l172 -403c3 -6 8 -4 8 1v395c0 15 5 20 20 20h60c15 0 20 -5 20 -20v-660c0 -15 -5 -20 -20 -20zM237 797l9 56
c2 10 5 11 13 11h61c9 0 12 -8 6 -18l-64 -104c-5 -7 -8 -7 -15 -7h-28c-7 0 -10 0 -15 7l-64 104c-6 10 -3 18 6 18h61c8 0 11 -1 13 -11l9 -56c1 -5 7 -5 8 0z" />
    <glyph glyph-name="Ocircumflex" unicode="&#xd4;" horiz-adv-x="400" 
d="M360 514v-328c0 -138 -77 -190 -160 -190s-160 52 -160 190v328c0 138 77 190 160 190s160 -52 160 -190zM260 160v380c0 52 -29 72 -60 72s-60 -20 -60 -72v-380c0 -52 29 -72 60 -72s60 20 60 72zM214 746l-9 56c-1 5 -7 5 -8 0l-9 -56c-2 -10 -5 -11 -13 -11h-61
c-9 0 -12 8 -6 18l64 104c5 7 8 7 15 7h28c7 0 10 0 15 -7l64 -104c6 -10 3 -18 -6 -18h-61c-8 0 -11 1 -13 11z" />
    <glyph glyph-name="Ograve" unicode="&#xd2;" horiz-adv-x="400" 
d="M360 514v-328c0 -138 -77 -190 -160 -190s-160 52 -160 190v328c0 138 77 190 160 190s160 -52 160 -190zM260 160v380c0 52 -29 72 -60 72s-60 -20 -60 -72v-380c0 -52 29 -72 60 -72s60 20 60 72zM217 735h-36c-10 0 -12 2 -17 17l-30 85c-7 19 -2 27 13 27h59
c15 0 21 -4 21 -21v-98c0 -7 -3 -10 -10 -10z" />
    <glyph glyph-name="Rcaron" unicode="&#x158;" horiz-adv-x="391" 
d="M200 700c83 0 150 -48 150 -186v-32c0 -91 -26 -137 -61 -163l60 -298c4 -16 -4 -21 -12 -21h-63c-13 0 -19 0 -22 15l-51 269c-2 9 -8 9 -12 9h-19c-20 0 -20 0 -20 -20v-253c0 -15 -5 -20 -20 -20h-60c-15 0 -20 5 -20 20v660c0 15 5 20 20 20h130zM200 612h-30
c-20 0 -20 0 -20 -20v-191c0 -20 0 -20 20 -20h30c31 0 50 20 50 71v88c0 52 -19 72 -50 72zM184 797l9 56c2 10 5 11 13 11h61c9 0 12 -8 6 -18l-64 -104c-5 -7 -8 -7 -15 -7h-28c-7 0 -10 0 -15 7l-64 104c-6 10 -3 18 6 18h61c8 0 11 -1 13 -11l9 -56c1 -5 7 -5 8 0z" />
    <glyph glyph-name="Scircumflex" unicode="&#x15c;" horiz-adv-x="367" 
d="M181 -4c-92 0 -162 76 -160 164c0 17 4 22 21 22h58c13 0 20 -5 20 -23c0 -39 20 -71 61 -71c40 0 58 31 62 59c19 119 -201 234 -211 399c-5 86 57 158 147 158c69 0 135 -53 143 -133c2 -27 0 -32 -20 -32h-55c-15 0 -20 5 -20 20c0 36 -21 53 -48 53
c-46 0 -51 -45 -49 -65c11 -112 191 -213 210 -370c11 -90 -56 -181 -159 -181zM199 746l-9 56c-1 5 -7 5 -8 0l-9 -56c-2 -10 -5 -11 -13 -11h-61c-9 0 -12 8 -6 18l64 104c5 7 8 7 15 7h28c7 0 10 0 15 -7l64 -104c6 -10 3 -18 -6 -18h-61c-8 0 -11 1 -13 11z" />
    <glyph glyph-name="Ubreve" unicode="&#x16c;" horiz-adv-x="410" 
d="M265 680c0 15 5 20 20 20h60c15 0 20 -5 20 -20v-494c0 -138 -77 -190 -160 -190s-160 52 -160 190v494c0 15 5 20 20 20h60c15 0 20 -5 20 -20v-520c0 -52 29 -72 60 -72s60 20 60 72v520zM205 731c-55 0 -110 40 -114 118c-1 20 2 20 19 20h27c15 0 18 0 20 -17
c4 -35 21 -55 48 -55s44 20 48 55c2 17 5 17 20 17h27c17 0 20 0 19 -20c-4 -78 -59 -118 -114 -118z" />
    <glyph glyph-name="Ucircumflex" unicode="&#xdb;" horiz-adv-x="410" 
d="M265 680c0 15 5 20 20 20h60c15 0 20 -5 20 -20v-494c0 -138 -77 -190 -160 -190s-160 52 -160 190v494c0 15 5 20 20 20h60c15 0 20 -5 20 -20v-520c0 -52 29 -72 60 -72s60 20 60 72v520zM219 746l-9 56c-1 5 -7 5 -8 0l-9 -56c-2 -10 -5 -11 -13 -11h-61
c-9 0 -12 8 -6 18l64 104c5 7 8 7 15 7h28c7 0 10 0 15 -7l64 -104c6 -10 3 -18 -6 -18h-61c-8 0 -11 1 -13 11z" />
    <glyph glyph-name="Wcircumflex" unicode="&#x174;" horiz-adv-x="624" 
d="M317 395c-1 7 -9 7 -10 0l-71 -375c-3 -15 -5 -20 -23 -20h-39c-18 0 -20 5 -23 20l-125 660c-3 14 1 20 17 20h60c16 0 20 -4 23 -20l66 -396c1 -5 8 -5 9 0l75 396c3 16 7 20 22 20h28c15 0 19 -4 22 -20l75 -396c1 -5 8 -5 9 0l66 396c3 16 7 20 23 20h60
c16 0 20 -6 17 -20l-125 -660c-3 -15 -5 -20 -23 -20h-49c-18 0 -20 5 -23 20zM325 746l-9 56c-1 5 -7 5 -8 0l-9 -56c-2 -10 -5 -11 -13 -11h-61c-9 0 -12 8 -6 18l64 104c5 7 8 7 15 7h28c7 0 10 0 15 -7l64 -104c6 -10 3 -18 -6 -18h-61c-8 0 -11 1 -13 11z" />
    <glyph glyph-name="ygrave" unicode="&#x1ef3;" horiz-adv-x="352" 
d="M172 161c1 -5 7 -5 8 0l52 324c3 15 9 15 22 15h60c10 0 20 0 17 -17l-99 -495c-28 -145 -78 -168 -154 -168c-15 0 -20 5 -20 20v54c0 15 5 20 20 20c54 1 47 50 42 77l-99 492c-3 17 7 17 17 17h60c13 0 20 0 22 -15zM202 549h-36c-10 0 -12 2 -17 17l-30 85
c-7 19 -2 27 13 27h59c15 0 21 -4 21 -21v-98c0 -7 -3 -10 -10 -10z" />
    <glyph glyph-name="yacute" unicode="&#xfd;" horiz-adv-x="352" 
d="M172 161c1 -5 7 -5 8 0l52 324c3 15 9 15 22 15h60c10 0 20 0 17 -17l-99 -495c-28 -145 -78 -168 -154 -168c-15 0 -20 5 -20 20v54c0 15 5 20 20 20c54 1 47 50 42 77l-99 492c-3 17 7 17 17 17h60c13 0 20 0 22 -15zM166 549c-7 0 -10 3 -10 10v98c0 17 6 21 21 21h59
c15 0 20 -8 13 -27l-30 -85c-5 -15 -7 -17 -17 -17h-36z" />
    <glyph glyph-name="wgrave" unicode="&#x1e81;" horiz-adv-x="554" 
d="M456 500h60c10 0 20 0 17 -17l-93 -465c-3 -15 -6 -18 -22 -18h-39c-16 0 -18 3 -22 18l-76 278c-1 5 -7 5 -8 0l-76 -278c-4 -15 -6 -18 -22 -18h-39c-16 0 -19 3 -22 18l-93 465c-3 17 7 17 17 17h60c13 0 19 0 22 -15l44 -257c1 -5 7 -5 8 0l70 257c4 12 9 15 20 15
h30c11 0 16 -3 20 -15l70 -257c1 -5 7 -5 8 0l44 257c3 15 9 15 22 15zM291 549h-36c-10 0 -12 2 -17 17l-30 85c-7 19 -2 27 13 27h59c15 0 21 -4 21 -21v-98c0 -7 -3 -10 -10 -10z" />
    <glyph glyph-name="wacute" unicode="&#x1e83;" horiz-adv-x="554" 
d="M456 500h60c10 0 20 0 17 -17l-93 -465c-3 -15 -6 -18 -22 -18h-39c-16 0 -18 3 -22 18l-76 278c-1 5 -7 5 -8 0l-76 -278c-4 -15 -6 -18 -22 -18h-39c-16 0 -19 3 -22 18l-93 465c-3 17 7 17 17 17h60c13 0 19 0 22 -15l44 -257c1 -5 7 -5 8 0l70 257c4 12 9 15 20 15
h30c11 0 16 -3 20 -15l70 -257c1 -5 7 -5 8 0l44 257c3 15 9 15 22 15zM261 549c-7 0 -10 3 -10 10v98c0 17 6 21 21 21h59c15 0 20 -8 13 -27l-30 -85c-5 -15 -7 -17 -17 -17h-36z" />
    <glyph glyph-name="umacron" unicode="&#x16b;" horiz-adv-x="403" 
d="M145 164c0 -60 27 -76 54 -76s54 16 54 76v316c0 15 5 20 20 20h60c15 0 20 -5 20 -20v-460c0 -15 -5 -20 -20 -20h-57c-15 0 -20 5 -20 20v19c-15 -22 -39 -41 -77 -43c-75 -3 -134 47 -134 170v314c0 15 5 20 20 20h60c15 0 20 -5 20 -20v-316zM104 607
c0 15 5 20 20 20h159c15 0 20 -5 20 -20v-38c0 -15 -5 -20 -20 -20h-159c-15 0 -20 5 -20 20v38z" />
    <glyph glyph-name="ugrave" unicode="&#xf9;" horiz-adv-x="403" 
d="M145 164c0 -60 27 -76 54 -76s54 16 54 76v316c0 15 5 20 20 20h60c15 0 20 -5 20 -20v-460c0 -15 -5 -20 -20 -20h-57c-15 0 -20 5 -20 20v19c-15 -22 -39 -41 -77 -43c-75 -3 -134 47 -134 170v314c0 15 5 20 20 20h60c15 0 20 -5 20 -20v-316zM226 549h-36
c-10 0 -12 2 -17 17l-30 85c-7 19 -2 27 13 27h59c15 0 21 -4 21 -21v-98c0 -7 -3 -10 -10 -10z" />
    <glyph glyph-name="ucircumflex" unicode="&#xfb;" horiz-adv-x="403" 
d="M145 164c0 -60 27 -76 54 -76s54 16 54 76v316c0 15 5 20 20 20h60c15 0 20 -5 20 -20v-460c0 -15 -5 -20 -20 -20h-57c-15 0 -20 5 -20 20v19c-15 -22 -39 -41 -77 -43c-75 -3 -134 47 -134 170v314c0 15 5 20 20 20h60c15 0 20 -5 20 -20v-316zM214 560l-9 56
c-1 5 -7 5 -8 0l-9 -56c-2 -10 -5 -11 -13 -11h-61c-9 0 -12 8 -6 18l64 104c5 7 8 7 15 7h28c7 0 10 0 15 -7l64 -104c6 -10 3 -18 -6 -18h-61c-8 0 -11 1 -13 11z" />
    <glyph glyph-name="uacute" unicode="&#xfa;" horiz-adv-x="403" 
d="M145 164c0 -60 27 -76 54 -76s54 16 54 76v316c0 15 5 20 20 20h60c15 0 20 -5 20 -20v-460c0 -15 -5 -20 -20 -20h-57c-15 0 -20 5 -20 20v19c-15 -22 -39 -41 -77 -43c-75 -3 -134 47 -134 170v314c0 15 5 20 20 20h60c15 0 20 -5 20 -20v-316zM182 549
c-7 0 -10 3 -10 10v98c0 17 6 21 21 21h59c15 0 20 -8 13 -27l-30 -85c-5 -15 -7 -17 -17 -17h-36z" />
    <glyph glyph-name="scircumflex" unicode="&#x15d;" horiz-adv-x="332" 
d="M128 374c-1 -74 194 -110 183 -247c-5 -62 -59 -131 -145 -131c-93 0 -146 81 -146 140c0 15 5 20 20 20h58c15 0 20 -5 20 -20c0 -30 25 -48 48 -48c22 0 47 18 48 48c4 90 -170 107 -178 234c-5 77 60 134 130 134c72 0 133 -62 133 -137c0 -15 -5 -20 -20 -20h-52
c-14 0 -20 4 -20 24c0 25 -17 43 -40 43c-22 0 -39 -18 -39 -40zM181 560l-9 56c-1 5 -7 5 -8 0l-9 -56c-2 -10 -5 -11 -13 -11h-61c-9 0 -12 8 -6 18l64 104c5 7 8 7 15 7h28c7 0 10 0 15 -7l64 -104c6 -10 3 -18 -6 -18h-61c-8 0 -11 1 -13 11z" />
    <glyph glyph-name="rcaron" unicode="&#x159;" horiz-adv-x="267" 
d="M232 405c-16 4 -23 5 -32 5c-50 0 -50 -52 -50 -102v-288c0 -15 -5 -20 -20 -20h-60c-15 0 -20 5 -20 20v460c0 15 5 20 20 20h60c15 0 20 -5 20 -20v-12c23 23 51 31 72 32h10c15 0 20 -5 20 -20v-55c0 -15 -5 -24 -20 -20zM103 611l9 56c2 10 5 11 13 11h61
c9 0 12 -8 6 -18l-64 -104c-5 -7 -8 -7 -15 -7h-28c-7 0 -10 0 -15 7l-64 104c-6 10 -3 18 6 18h61c8 0 11 -1 13 -11l9 -56c1 -5 7 -5 8 0z" />
    <glyph glyph-name="racute" unicode="&#x155;" horiz-adv-x="267" 
d="M232 405c-16 4 -23 5 -32 5c-50 0 -50 -52 -50 -102v-288c0 -15 -5 -20 -20 -20h-60c-15 0 -20 5 -20 20v460c0 15 5 20 20 20h60c15 0 20 -5 20 -20v-12c23 23 51 31 72 32h10c15 0 20 -5 20 -20v-55c0 -15 -5 -24 -20 -20zM84 549c-7 0 -10 3 -10 10v98
c0 17 6 21 21 21h59c15 0 20 -8 13 -27l-30 -85c-5 -15 -7 -17 -17 -17h-36z" />
    <glyph glyph-name="omacron" unicode="&#x14d;" horiz-adv-x="380" 
d="M340 320v-140c0 -138 -79 -184 -150 -184s-150 46 -150 184v140c0 138 79 184 150 184s150 -46 150 -184zM240 336c0 60 -23 76 -50 76s-50 -16 -50 -76v-172c0 -60 23 -76 50 -76s50 16 50 76v172zM91 607c0 15 5 20 20 20h159c15 0 20 -5 20 -20v-38
c0 -15 -5 -20 -20 -20h-159c-15 0 -20 5 -20 20v38z" />
    <glyph glyph-name="ocircumflex" unicode="&#xf4;" horiz-adv-x="380" 
d="M340 320v-140c0 -138 -79 -184 -150 -184s-150 46 -150 184v140c0 138 79 184 150 184s150 -46 150 -184zM240 336c0 60 -23 76 -50 76s-50 -16 -50 -76v-172c0 -60 23 -76 50 -76s50 16 50 76v172zM204 560l-9 56c-1 5 -7 5 -8 0l-9 -56c-2 -10 -5 -11 -13 -11h-61
c-9 0 -12 8 -6 18l64 104c5 7 8 7 15 7h28c7 0 10 0 15 -7l64 -104c6 -10 3 -18 -6 -18h-61c-8 0 -11 1 -13 11z" />
    <glyph glyph-name="lacute" unicode="&#x13a;" horiz-adv-x="239" 
d="M45 200v480c0 15 5 20 20 20h60c15 0 20 -5 20 -20v-482c0 -61 0 -103 54 -104c15 -1 20 -5 20 -20v-54c0 -15 -5 -20 -20 -20c-114 0 -154 49 -154 200zM75 735c-7 0 -10 3 -10 10v98c0 17 6 21 21 21h59c15 0 20 -8 13 -27l-30 -85c-5 -15 -7 -17 -17 -17h-36z" />
    <glyph glyph-name="gdotaccent" unicode="&#x121;" horiz-adv-x="403" 
d="M45 334c0 119 56 170 128 170c41 0 67 -20 83 -43v19c0 15 4 20 20 20h57c15 0 20 -5 20 -20v-479c0 -123 -71 -184 -164 -184c-65 0 -115 28 -145 89c-5 10 -6 19 9 24l61 20c12 4 19 3 27 -10c17 -26 35 -29 48 -29c19 0 64 9 64 99v24c-16 -21 -41 -38 -80 -38
c-72 0 -128 50 -128 170v168zM253 164v172c0 60 -27 76 -54 76s-54 -16 -54 -76v-172c0 -60 27 -76 54 -76s54 16 54 76zM143 601c0 31 25 56 56 56s56 -25 56 -56s-25 -56 -56 -56s-56 25 -56 56z" />
    <glyph glyph-name="emacron" unicode="&#x113;" horiz-adv-x="380" 
d="M240 342c-1 55 -24 70 -50 70s-48 -15 -50 -70c0 -20 0 -20 20 -20h60c20 0 20 0 20 20zM140 213v-49c0 -60 23 -76 50 -76c20 0 46 11 48 53c1 17 2 26 20 26h57c15 0 19 -5 20 -20c3 -57 -40 -151 -145 -151c-71 0 -150 46 -150 184v140c0 138 79 184 150 184
s150 -46 150 -184v-67c0 -16 -5 -20 -21 -20h-159c-15 0 -20 -5 -20 -20zM90 607c0 15 5 20 20 20h159c15 0 20 -5 20 -20v-38c0 -15 -5 -20 -20 -20h-159c-15 0 -20 5 -20 20v38z" />
    <glyph glyph-name="egrave" unicode="&#xe8;" horiz-adv-x="380" 
d="M240 342c-1 55 -24 70 -50 70s-48 -15 -50 -70c0 -20 0 -20 20 -20h60c20 0 20 0 20 20zM140 213v-49c0 -60 23 -76 50 -76c20 0 46 11 48 53c1 17 2 26 20 26h57c15 0 19 -5 20 -20c3 -57 -40 -151 -145 -151c-71 0 -150 46 -150 184v140c0 138 79 184 150 184
s150 -46 150 -184v-67c0 -16 -5 -20 -21 -20h-159c-15 0 -20 -5 -20 -20zM207 549h-36c-10 0 -12 2 -17 17l-30 85c-7 19 -2 27 13 27h59c15 0 21 -4 21 -21v-98c0 -7 -3 -10 -10 -10z" />
    <glyph glyph-name="edotaccent" unicode="&#x117;" horiz-adv-x="380" 
d="M240 342c-1 55 -24 70 -50 70s-48 -15 -50 -70c0 -20 0 -20 20 -20h60c20 0 20 0 20 20zM140 213v-49c0 -60 23 -76 50 -76c20 0 46 11 48 53c1 17 2 26 20 26h57c15 0 19 -5 20 -20c3 -57 -40 -151 -145 -151c-71 0 -150 46 -150 184v140c0 138 79 184 150 184
s150 -46 150 -184v-67c0 -16 -5 -20 -21 -20h-159c-15 0 -20 -5 -20 -20zM134 601c0 31 25 56 56 56s56 -25 56 -56s-25 -56 -56 -56s-56 25 -56 56z" />
    <glyph glyph-name="ecircumflex" unicode="&#xea;" horiz-adv-x="380" 
d="M240 342c-1 55 -24 70 -50 70s-48 -15 -50 -70c0 -20 0 -20 20 -20h60c20 0 20 0 20 20zM140 213v-49c0 -60 23 -76 50 -76c20 0 46 11 48 53c1 17 2 26 20 26h57c15 0 19 -5 20 -20c3 -57 -40 -151 -145 -151c-71 0 -150 46 -150 184v140c0 138 79 184 150 184
s150 -46 150 -184v-67c0 -16 -5 -20 -21 -20h-159c-15 0 -20 -5 -20 -20zM205 560l-9 56c-1 5 -7 5 -8 0l-9 -56c-2 -10 -5 -11 -13 -11h-61c-9 0 -12 8 -6 18l64 104c5 7 8 7 15 7h28c7 0 10 0 15 -7l64 -104c6 -10 3 -18 -6 -18h-61c-8 0 -11 1 -13 11z" />
    <glyph glyph-name="ecaron" unicode="&#x11b;" horiz-adv-x="380" 
d="M240 342c-1 55 -24 70 -50 70s-48 -15 -50 -70c0 -20 0 -20 20 -20h60c20 0 20 0 20 20zM140 213v-49c0 -60 23 -76 50 -76c20 0 46 11 48 53c1 17 2 26 20 26h57c15 0 19 -5 20 -20c3 -57 -40 -151 -145 -151c-71 0 -150 46 -150 184v140c0 138 79 184 150 184
s150 -46 150 -184v-67c0 -16 -5 -20 -21 -20h-159c-15 0 -20 -5 -20 -20zM195 611l9 56c2 10 5 11 13 11h61c9 0 12 -8 6 -18l-64 -104c-5 -7 -8 -7 -15 -7h-28c-7 0 -10 0 -15 7l-64 104c-6 10 -3 18 6 18h61c8 0 11 -1 13 -11l9 -56c1 -5 7 -5 8 0z" />
    <glyph glyph-name="cdotaccent" unicode="&#x10b;" horiz-adv-x="376" 
d="M190 -4c-71 0 -150 46 -150 184v140c0 138 79 184 150 184c105 0 148 -94 145 -151c-1 -15 -5 -20 -20 -20h-57c-18 0 -19 9 -20 26c-2 42 -28 53 -48 53c-27 0 -50 -16 -50 -76v-172c0 -60 23 -76 50 -76c20 0 46 11 48 53c1 17 2 26 20 26h57c15 0 19 -5 20 -20
c3 -57 -40 -151 -145 -151zM133 601c0 31 25 56 56 56s56 -25 56 -56s-25 -56 -56 -56s-56 25 -56 56z" />
    <glyph glyph-name="ccircumflex" unicode="&#x109;" horiz-adv-x="376" 
d="M190 -4c-71 0 -150 46 -150 184v140c0 138 79 184 150 184c105 0 148 -94 145 -151c-1 -15 -5 -20 -20 -20h-57c-18 0 -19 9 -20 26c-2 42 -28 53 -48 53c-27 0 -50 -16 -50 -76v-172c0 -60 23 -76 50 -76c20 0 46 11 48 53c1 17 2 26 20 26h57c15 0 19 -5 20 -20
c3 -57 -40 -151 -145 -151zM202 560l-9 56c-1 5 -7 5 -8 0l-9 -56c-2 -10 -5 -11 -13 -11h-61c-9 0 -12 8 -6 18l64 104c5 7 8 7 15 7h28c7 0 10 0 15 -7l64 -104c6 -10 3 -18 -6 -18h-61c-8 0 -11 1 -13 11z" />
    <glyph glyph-name="amacron" unicode="&#x101;" horiz-adv-x="382" 
d="M337 350v-281c1 -21 5 -37 8 -49c3 -15 -5 -20 -20 -20h-56c-14 0 -19 3 -22 30c0 0 -32 -34 -83 -34c-72 0 -127 44 -127 133v44c0 110 95 122 155 144c30 11 45 26 45 50c0 23 -18 45 -45 45c-25 0 -49 -21 -47 -59c1 -15 -4 -20 -20 -20h-56c-15 0 -19 5 -20 20
c-3 83 61 151 143 151c75 0 145 -58 145 -154zM187 88c43 0 49 38 50 80v80c-54 -24 -100 -35 -100 -85v-8c0 -15 0 -67 50 -67zM93 607c0 15 5 20 20 20h159c15 0 20 -5 20 -20v-38c0 -15 -5 -20 -20 -20h-159c-15 0 -20 5 -20 20v38z" />
    <glyph glyph-name="Cacute" unicode="&#x106;" horiz-adv-x="395" 
d="M140 160c0 -52 29 -72 60 -72s60 20 60 72v7c0 15 5 20 20 20h59c15 0 21 -12 20 -26c-9 -119 -81 -165 -159 -165c-83 0 -160 52 -160 190v328c0 138 77 190 160 190c78 0 150 -46 159 -165c1 -14 -5 -26 -20 -26h-59c-15 0 -20 5 -20 20v7c0 52 -29 72 -60 72
s-60 -20 -60 -72v-380zM177 735c-7 0 -10 3 -10 10v98c0 17 6 21 21 21h59c15 0 20 -8 13 -27l-30 -85c-5 -15 -7 -17 -17 -17h-36z" />
    <glyph glyph-name="Agrave" unicode="&#xc0;" horiz-adv-x="412" 
d="M364 0h-60c-13 0 -19 0 -22 15l-9 54c-4 20 -4 20 -22 20h-89c-19 0 -19 0 -23 -20l-9 -54c-3 -15 -9 -15 -22 -15h-60c-10 0 -20 0 -17 17l126 665c3 15 6 18 22 18h54c16 0 19 -3 22 -18l126 -665c3 -17 -7 -17 -17 -17zM202 446l-41 -243c-3 -20 -3 -20 17 -20h56
c20 0 20 0 17 20l-41 243c-1 5 -7 5 -8 0zM222 735h-36c-10 0 -12 2 -17 17l-30 85c-7 19 -2 27 13 27h59c15 0 21 -4 21 -21v-98c0 -7 -3 -10 -10 -10z" />
    <glyph glyph-name="Aacute" unicode="&#xc1;" horiz-adv-x="412" 
d="M364 0h-60c-13 0 -19 0 -22 15l-9 54c-4 20 -4 20 -22 20h-89c-19 0 -19 0 -23 -20l-9 -54c-3 -15 -9 -15 -22 -15h-60c-10 0 -20 0 -17 17l126 665c3 15 6 18 22 18h54c16 0 19 -3 22 -18l126 -665c3 -17 -7 -17 -17 -17zM202 446l-41 -243c-3 -20 -3 -20 17 -20h56
c20 0 20 0 17 20l-41 243c-1 5 -7 5 -8 0zM188 735c-7 0 -10 3 -10 10v98c0 17 6 21 21 21h59c15 0 20 -8 13 -27l-30 -85c-5 -15 -7 -17 -17 -17h-36z" />
    <glyph glyph-name="Cdotaccent" unicode="&#x10a;" horiz-adv-x="395" 
d="M140 160c0 -52 29 -72 60 -72s60 20 60 72v7c0 15 5 20 20 20h59c15 0 21 -12 20 -26c-9 -119 -81 -165 -159 -165c-83 0 -160 52 -160 190v328c0 138 77 190 160 190c78 0 150 -46 159 -165c1 -14 -5 -26 -20 -26h-59c-15 0 -20 5 -20 20v7c0 52 -29 72 -60 72
s-60 -20 -60 -72v-380zM143 787c0 31 25 56 56 56s56 -25 56 -56s-25 -56 -56 -56s-56 25 -56 56z" />
    <glyph glyph-name="Edotaccent" unicode="&#x116;" horiz-adv-x="341" 
d="M70 0c-15 0 -20 5 -20 20v660c0 15 5 20 20 20h211c15 0 20 -5 20 -20v-54c0 -15 -5 -20 -20 -20h-111c-20 0 -20 0 -20 -20v-150c0 -20 0 -20 20 -20h111c15 0 20 -5 20 -20v-54c0 -15 -5 -20 -20 -20h-111c-20 0 -20 0 -20 -20v-188c0 -20 0 -20 20 -20h111
c15 0 20 -5 20 -20v-54c0 -15 -5 -20 -20 -20h-211zM118 787c0 31 25 56 56 56s56 -25 56 -56s-25 -56 -56 -56s-56 25 -56 56z" />
    <glyph glyph-name="Ecircumflex" unicode="&#xca;" horiz-adv-x="341" 
d="M70 0c-15 0 -20 5 -20 20v660c0 15 5 20 20 20h211c15 0 20 -5 20 -20v-54c0 -15 -5 -20 -20 -20h-111c-20 0 -20 0 -20 -20v-150c0 -20 0 -20 20 -20h111c15 0 20 -5 20 -20v-54c0 -15 -5 -20 -20 -20h-111c-20 0 -20 0 -20 -20v-188c0 -20 0 -20 20 -20h111
c15 0 20 -5 20 -20v-54c0 -15 -5 -20 -20 -20h-211zM189 746l-9 56c-1 5 -7 5 -8 0l-9 -56c-2 -10 -5 -11 -13 -11h-61c-9 0 -12 8 -6 18l64 104c5 7 8 7 15 7h28c7 0 10 0 15 -7l64 -104c6 -10 3 -18 -6 -18h-61c-8 0 -11 1 -13 11z" />
    <glyph glyph-name="Ecaron" unicode="&#x11a;" horiz-adv-x="341" 
d="M70 0c-15 0 -20 5 -20 20v660c0 15 5 20 20 20h211c15 0 20 -5 20 -20v-54c0 -15 -5 -20 -20 -20h-111c-20 0 -20 0 -20 -20v-150c0 -20 0 -20 20 -20h111c15 0 20 -5 20 -20v-54c0 -15 -5 -20 -20 -20h-111c-20 0 -20 0 -20 -20v-188c0 -20 0 -20 20 -20h111
c15 0 20 -5 20 -20v-54c0 -15 -5 -20 -20 -20h-211zM180 797l9 56c2 10 5 11 13 11h61c9 0 12 -8 6 -18l-64 -104c-5 -7 -8 -7 -15 -7h-28c-7 0 -10 0 -15 7l-64 104c-6 10 -3 18 6 18h61c8 0 11 -1 13 -11l9 -56c1 -5 7 -5 8 0z" />
    <glyph glyph-name="Eacute" unicode="&#xc9;" horiz-adv-x="341" 
d="M70 0c-15 0 -20 5 -20 20v660c0 15 5 20 20 20h211c15 0 20 -5 20 -20v-54c0 -15 -5 -20 -20 -20h-111c-20 0 -20 0 -20 -20v-150c0 -20 0 -20 20 -20h111c15 0 20 -5 20 -20v-54c0 -15 -5 -20 -20 -20h-111c-20 0 -20 0 -20 -20v-188c0 -20 0 -20 20 -20h111
c15 0 20 -5 20 -20v-54c0 -15 -5 -20 -20 -20h-211zM154 735c-7 0 -10 3 -10 10v98c0 17 6 21 21 21h59c15 0 20 -8 13 -27l-30 -85c-5 -15 -7 -17 -17 -17h-36z" />
    <glyph glyph-name="breve" unicode="&#x2d8;" horiz-adv-x="268" 
d="M132 731c-55 0 -110 40 -114 118c-1 20 2 20 19 20h27c15 0 18 0 20 -17c4 -35 21 -55 48 -55s44 20 48 55c2 17 5 17 20 17h27c17 0 20 0 19 -20c-4 -78 -59 -118 -114 -118z" />
    <glyph glyph-name="Abreve" unicode="&#x102;" horiz-adv-x="412" 
d="M364 0h-60c-13 0 -19 0 -22 15l-9 54c-4 20 -4 20 -22 20h-89c-19 0 -19 0 -23 -20l-9 -54c-3 -15 -9 -15 -22 -15h-60c-10 0 -20 0 -17 17l126 665c3 15 6 18 22 18h54c16 0 19 -3 22 -18l126 -665c3 -17 -7 -17 -17 -17zM202 446l-41 -243c-3 -20 -3 -20 17 -20h56
c20 0 20 0 17 20l-41 243c-1 5 -7 5 -8 0zM206 731c-55 0 -110 40 -114 118c-1 20 2 20 19 20h27c15 0 18 0 20 -17c4 -35 21 -55 48 -55s44 20 48 55c2 17 5 17 20 17h27c17 0 20 0 19 -20c-4 -78 -59 -118 -114 -118z" />
    <glyph glyph-name="Dcaron" unicode="&#x10e;" horiz-adv-x="390" 
d="M70 700h120c83 0 160 -52 160 -190v-320c0 -138 -77 -190 -160 -190h-120c-15 0 -20 5 -20 20v660c0 15 5 20 20 20zM150 115c0 -21 0 -21 20 -21h20c31 0 60 20 60 72v368c0 52 -29 72 -60 72h-20c-20 0 -20 0 -20 -20v-471zM189 797l9 56c2 10 5 11 13 11h61
c9 0 12 -8 6 -18l-64 -104c-5 -7 -8 -7 -15 -7h-28c-7 0 -10 0 -15 7l-64 104c-6 10 -3 18 6 18h61c8 0 11 -1 13 -11l9 -56c1 -5 7 -5 8 0z" />
    <glyph glyph-name="Ebreve" unicode="&#x114;" horiz-adv-x="341" 
d="M70 0c-15 0 -20 5 -20 20v660c0 15 5 20 20 20h211c15 0 20 -5 20 -20v-54c0 -15 -5 -20 -20 -20h-111c-20 0 -20 0 -20 -20v-150c0 -20 0 -20 20 -20h111c15 0 20 -5 20 -20v-54c0 -15 -5 -20 -20 -20h-111c-20 0 -20 0 -20 -20v-188c0 -20 0 -20 20 -20h111
c15 0 20 -5 20 -20v-54c0 -15 -5 -20 -20 -20h-211zM173 731c-55 0 -110 40 -114 118c-1 20 2 20 19 20h27c15 0 18 0 20 -17c4 -35 21 -55 48 -55s44 20 48 55c2 17 5 17 20 17h27c17 0 20 0 19 -20c-4 -78 -59 -118 -114 -118z" />
    <glyph glyph-name="Egrave" unicode="&#xc8;" horiz-adv-x="341" 
d="M70 0c-15 0 -20 5 -20 20v660c0 15 5 20 20 20h211c15 0 20 -5 20 -20v-54c0 -15 -5 -20 -20 -20h-111c-20 0 -20 0 -20 -20v-150c0 -20 0 -20 20 -20h111c15 0 20 -5 20 -20v-54c0 -15 -5 -20 -20 -20h-111c-20 0 -20 0 -20 -20v-188c0 -20 0 -20 20 -20h111
c15 0 20 -5 20 -20v-54c0 -15 -5 -20 -20 -20h-211zM213 735h-36c-10 0 -12 2 -17 17l-30 85c-7 19 -2 27 13 27h59c15 0 21 -4 21 -21v-98c0 -7 -3 -10 -10 -10z" />
    <glyph glyph-name="Gbreve" unicode="&#x11e;" horiz-adv-x="400" 
d="M140 160c0 -52 29 -72 60 -72s60 20 60 72v142c0 20 0 20 -20 20h-8c-16 0 -20 4 -20 20v54c0 15 4 20 20 20h108c15 0 20 -5 20 -20v-210c0 -115 -57 -190 -160 -190c-83 0 -160 52 -160 190v328c0 138 77 190 160 190c78 0 150 -46 159 -165c1 -14 -5 -26 -20 -26h-59
c-15 0 -20 5 -20 20v7c0 52 -29 72 -60 72s-60 -20 -60 -72v-380zM200 731c-55 0 -110 40 -114 118c-1 20 2 20 19 20h27c15 0 18 0 20 -17c4 -35 21 -55 48 -55s44 20 48 55c2 17 5 17 20 17h27c17 0 20 0 19 -20c-4 -78 -59 -118 -114 -118z" />
    <glyph glyph-name="Obreve" unicode="&#x14e;" horiz-adv-x="400" 
d="M360 514v-328c0 -138 -77 -190 -160 -190s-160 52 -160 190v328c0 138 77 190 160 190s160 -52 160 -190zM260 160v380c0 52 -29 72 -60 72s-60 -20 -60 -72v-380c0 -52 29 -72 60 -72s60 20 60 72zM199 731c-55 0 -110 40 -114 118c-1 20 2 20 19 20h27
c15 0 18 0 20 -17c4 -35 21 -55 48 -55s44 20 48 55c2 17 5 17 20 17h27c17 0 20 0 19 -20c-4 -78 -59 -118 -114 -118z" />
    <glyph glyph-name="abreve" unicode="&#x103;" horiz-adv-x="382" 
d="M337 350v-281c1 -21 5 -37 8 -49c3 -15 -5 -20 -20 -20h-56c-14 0 -19 3 -22 30c0 0 -32 -34 -83 -34c-72 0 -127 44 -127 133v44c0 110 95 122 155 144c30 11 45 26 45 50c0 23 -18 45 -45 45c-25 0 -49 -21 -47 -59c1 -15 -4 -20 -20 -20h-56c-15 0 -19 5 -20 20
c-3 83 61 151 143 151c75 0 145 -58 145 -154zM187 88c43 0 49 38 50 80v80c-54 -24 -100 -35 -100 -85v-8c0 -15 0 -67 50 -67zM195 545c-55 0 -110 40 -114 118c-1 20 2 20 19 20h27c15 0 18 0 20 -17c4 -35 21 -55 48 -55s44 20 48 55c2 17 5 17 20 17h27
c17 0 20 0 19 -20c-4 -78 -59 -118 -114 -118z" />
    <glyph glyph-name="ebreve" unicode="&#x115;" horiz-adv-x="380" 
d="M240 342c-1 55 -24 70 -50 70s-48 -15 -50 -70c0 -20 0 -20 20 -20h60c20 0 20 0 20 20zM140 213v-49c0 -60 23 -76 50 -76c20 0 46 11 48 53c1 17 2 26 20 26h57c15 0 19 -5 20 -20c3 -57 -40 -151 -145 -151c-71 0 -150 46 -150 184v140c0 138 79 184 150 184
s150 -46 150 -184v-67c0 -16 -5 -20 -21 -20h-159c-15 0 -20 -5 -20 -20zM189 545c-55 0 -110 40 -114 118c-1 20 2 20 19 20h27c15 0 18 0 20 -17c4 -35 21 -55 48 -55s44 20 48 55c2 17 5 17 20 17h27c17 0 20 0 19 -20c-4 -78 -59 -118 -114 -118z" />
    <glyph glyph-name="gbreve" unicode="&#x11f;" horiz-adv-x="403" 
d="M45 334c0 119 56 170 128 170c41 0 67 -20 83 -43v19c0 15 4 20 20 20h57c15 0 20 -5 20 -20v-479c0 -123 -71 -184 -164 -184c-65 0 -115 28 -145 89c-5 10 -6 19 9 24l61 20c12 4 19 3 27 -10c17 -26 35 -29 48 -29c19 0 64 9 64 99v24c-16 -21 -41 -38 -80 -38
c-72 0 -128 50 -128 170v168zM253 164v172c0 60 -27 76 -54 76s-54 -16 -54 -76v-172c0 -60 27 -76 54 -76s54 16 54 76zM198 544c-55 0 -110 40 -114 118c-1 20 2 20 19 20h27c15 0 18 0 20 -17c4 -35 21 -55 48 -55s44 20 48 55c2 17 5 17 20 17h27c17 0 20 0 19 -20
c-4 -78 -59 -118 -114 -118z" />
    <glyph glyph-name="obreve" unicode="&#x14f;" horiz-adv-x="380" 
d="M340 320v-140c0 -138 -79 -184 -150 -184s-150 46 -150 184v140c0 138 79 184 150 184s150 -46 150 -184zM240 336c0 60 -23 76 -50 76s-50 -16 -50 -76v-172c0 -60 23 -76 50 -76s50 16 50 76v172zM190 545c-55 0 -110 40 -114 118c-1 20 2 20 19 20h27
c15 0 18 0 20 -17c4 -35 21 -55 48 -55s44 20 48 55c2 17 5 17 20 17h27c17 0 20 0 19 -20c-4 -78 -59 -118 -114 -118z" />
    <glyph glyph-name="ubreve" unicode="&#x16d;" horiz-adv-x="403" 
d="M145 164c0 -60 27 -76 54 -76s54 16 54 76v316c0 15 5 20 20 20h60c15 0 20 -5 20 -20v-460c0 -15 -5 -20 -20 -20h-57c-15 0 -20 5 -20 20v19c-15 -22 -39 -41 -77 -43c-75 -3 -134 47 -134 170v314c0 15 5 20 20 20h60c15 0 20 -5 20 -20v-316zM202 545
c-55 0 -110 40 -114 118c-1 20 2 20 19 20h27c15 0 18 0 20 -17c4 -35 21 -55 48 -55s44 20 48 55c2 17 5 17 20 17h27c17 0 20 0 19 -20c-4 -78 -59 -118 -114 -118z" />
    <glyph glyph-name="Ccircumflex" unicode="&#x108;" horiz-adv-x="395" 
d="M140 160c0 -52 29 -72 60 -72s60 20 60 72v7c0 15 5 20 20 20h59c15 0 21 -12 20 -26c-9 -119 -81 -165 -159 -165c-83 0 -160 52 -160 190v328c0 138 77 190 160 190c78 0 150 -46 159 -165c1 -14 -5 -26 -20 -26h-59c-15 0 -20 5 -20 20v7c0 52 -29 72 -60 72
s-60 -20 -60 -72v-380zM212 746l-9 56c-1 5 -7 5 -8 0l-9 -56c-2 -10 -5 -11 -13 -11h-61c-9 0 -12 8 -6 18l64 104c5 7 8 7 15 7h28c7 0 10 0 15 -7l64 -104c6 -10 3 -18 -6 -18h-61c-8 0 -11 1 -13 11z" />
    <glyph glyph-name="ring" unicode="&#x2da;" horiz-adv-x="241" 
d="M120 731c-55 0 -100 45 -100 100c0 56 45 101 100 101c56 0 101 -45 101 -101c0 -55 -45 -100 -101 -100zM84 831c0 -21 15 -36 36 -36s36 15 36 36s-15 36 -36 36s-36 -15 -36 -36z" />
    <glyph glyph-name="aring" unicode="&#xe5;" horiz-adv-x="382" 
d="M337 350v-281c1 -21 5 -37 8 -49c3 -15 -5 -20 -20 -20h-56c-14 0 -19 3 -22 30c0 0 -32 -34 -83 -34c-72 0 -127 44 -127 133v44c0 110 95 122 155 144c30 11 45 26 45 50c0 23 -18 45 -45 45c-25 0 -49 -21 -47 -59c1 -15 -4 -20 -20 -20h-56c-15 0 -19 5 -20 20
c-3 83 61 151 143 151c75 0 145 -58 145 -154zM187 88c43 0 49 38 50 80v80c-54 -24 -100 -35 -100 -85v-8c0 -15 0 -67 50 -67zM192 545c-55 0 -100 45 -100 100c0 56 45 101 100 101c56 0 101 -45 101 -101c0 -55 -45 -100 -101 -100zM156 645c0 -21 15 -36 36 -36
s36 15 36 36s-15 36 -36 36s-36 -15 -36 -36z" />
    <glyph glyph-name="Uring" unicode="&#x16e;" horiz-adv-x="410" 
d="M265 680c0 15 5 20 20 20h60c15 0 20 -5 20 -20v-494c0 -138 -77 -190 -160 -190s-160 52 -160 190v494c0 15 5 20 20 20h60c15 0 20 -5 20 -20v-520c0 -52 29 -72 60 -72s60 20 60 72v520zM204 731c-55 0 -100 45 -100 100c0 56 45 101 100 101c56 0 101 -45 101 -101
c0 -55 -45 -100 -101 -100zM168 831c0 -21 15 -36 36 -36s36 15 36 36s-15 36 -36 36s-36 -15 -36 -36z" />
    <glyph glyph-name="uring" unicode="&#x16f;" horiz-adv-x="403" 
d="M145 164c0 -60 27 -76 54 -76s54 16 54 76v316c0 15 5 20 20 20h60c15 0 20 -5 20 -20v-460c0 -15 -5 -20 -20 -20h-57c-15 0 -20 5 -20 20v19c-15 -22 -39 -41 -77 -43c-75 -3 -134 47 -134 170v314c0 15 5 20 20 20h60c15 0 20 -5 20 -20v-316zM201 545
c-55 0 -100 45 -100 100c0 56 45 101 100 101c56 0 101 -45 101 -101c0 -55 -45 -100 -101 -100zM165 645c0 -21 15 -36 36 -36s36 15 36 36s-15 36 -36 36s-36 -15 -36 -36z" />
    <glyph glyph-name="zero" unicode="0" horiz-adv-x="420" 
d="M370 514v-328c0 -138 -77 -190 -160 -190s-160 52 -160 190v328c0 138 77 190 160 190s160 -52 160 -190zM270 160v380c0 52 -29 72 -60 72s-60 -20 -60 -72v-380c0 -52 29 -72 60 -72s60 20 60 72z" />
    <glyph glyph-name="one" unicode="1" horiz-adv-x="282" 
d="M128 690c1 2 5 10 17 10h62c15 0 20 -5 20 -20v-660c0 -15 -5 -20 -20 -20h-60c-15 0 -20 5 -20 20v470c0 7 -3 10 -10 10h-63c-11 0 -18 7 -11 21z" />
    <glyph glyph-name="two" unicode="2" horiz-adv-x="400" 
d="M150 158v-44c0 -20 0 -20 20 -20h160c15 0 20 -5 20 -20v-54c0 -15 -5 -20 -20 -20h-260c-15 0 -20 5 -20 20v137c0 88 60 154 111 223c45 61 88 112 88 162c0 18 -1 70 -51 70c-39 0 -49 -33 -49 -79c0 -15 -5 -20 -20 -20h-59c-15 0 -20 5 -20 20c0 87 46 171 149 171
c107 0 144 -87 147 -150c4 -88 -56 -163 -108 -232c-47 -62 -88 -114 -88 -164z" />
    <glyph glyph-name="three" unicode="3" horiz-adv-x="390" 
d="M340 186c0 -138 -67 -190 -150 -190c-77 0 -141 45 -149 162c-1 17 5 29 20 29h59c15 0 20 -5 20 -20v-7c0 -52 19 -72 50 -72s50 20 50 72v89c-1 44 -6 73 -50 73h-14c-12 1 -16 6 -16 20v54c0 15 5 20 20 20h10c44 2 49 31 50 73v51c0 52 -19 72 -50 72
s-50 -20 -50 -72v-7c0 -15 -5 -20 -20 -20h-59c-15 0 -21 12 -20 29c8 117 72 162 149 162c83 0 150 -52 150 -190v-37c0 -56 -12 -80 -32 -108c20 -28 32 -52 32 -107v-76z" />
    <glyph glyph-name="four" unicode="4" horiz-adv-x="406" 
d="M213 475l-73 -143c-3 -6 -1 -10 5 -10h66c7 0 10 3 10 10v142c0 5 -5 7 -8 1zM321 20c0 -15 -5 -20 -20 -20h-60c-15 0 -20 5 -20 20v198c0 7 -3 10 -10 10h-161c-15 0 -20 5 -20 20v46c0 11 0 16 8 32l184 360c5 10 12 14 25 14h54c15 0 20 -5 20 -20v-348
c0 -6 2 -10 10 -10h5c15 0 20 -5 20 -20v-54c0 -15 -5 -20 -20 -20h-5c-7 0 -10 -3 -10 -10v-198z" />
    <glyph glyph-name="six" unicode="6" horiz-adv-x="400" 
d="M350 275v-95c0 -138 -79 -184 -150 -184s-150 46 -150 184v334c0 138 67 190 150 190c77 0 141 -45 149 -162c1 -17 -5 -29 -20 -29h-59c-15 0 -20 5 -20 20v7c0 52 -19 72 -50 72s-50 -20 -50 -72v-126c17 16 39 30 71 31c72 2 129 -51 129 -170zM150 277v-113
c0 -60 23 -76 50 -76s50 16 50 76v113c0 60 -23 76 -50 76s-50 -16 -50 -76z" />
    <glyph glyph-name="seven" unicode="7" horiz-adv-x="360" 
d="M80 20l128 574c2 9 -2 12 -8 12h-150c-15 0 -20 5 -20 20v54c0 15 5 20 20 20h240c15 0 20 -5 20 -20v-59c0 -10 0 -10 -3 -24l-127 -577c-4 -19 -12 -20 -22 -20h-63c-10 0 -19 4 -15 20z" />
    <glyph glyph-name="five" unicode="5" horiz-adv-x="400" 
d="M250 332c0 60 -23 76 -50 76c-26 0 -48 -15 -50 -69v-15c0 -15 -5 -20 -20 -20h-60c-15 0 -20 5 -20 20v356c0 15 5 20 20 20h247c15 0 20 -5 20 -20v-54c0 -15 -5 -20 -20 -20h-147c-17 0 -20 -4 -20 -20v-117c18 16 39 30 71 31c72 2 129 -51 129 -170v-144
c0 -138 -67 -190 -150 -190c-77 0 -141 45 -149 162c-1 17 5 29 20 29h59c15 0 20 -5 20 -20v-7c0 -52 19 -72 50 -72s50 20 50 72v172z" />
    <glyph glyph-name="eight" unicode="8" horiz-adv-x="390" 
d="M340 513v-9c0 -69 -13 -117 -38 -147c25 -31 38 -78 38 -146v-24c0 -140 -55 -191 -145 -191s-145 50 -145 191v24c0 69 13 116 37 146c-24 30 -37 78 -37 147v9c0 141 55 191 145 191s145 -52 145 -191zM240 211c0 50 0 102 -45 102s-45 -52 -45 -102v-21
c0 -50 0 -102 45 -102s45 52 45 102v21zM240 510c0 51 0 102 -45 102s-45 -52 -45 -102v-6c0 -50 0 -102 45 -102s45 51 45 102v6z" />
    <glyph glyph-name="colon" unicode=":" horiz-adv-x="153" 
d="M30 56c0 31 25 57 56 57s57 -26 57 -57s-26 -56 -57 -56s-56 25 -56 56zM30 359c0 31 25 57 56 57s57 -26 57 -57s-26 -56 -57 -56s-56 25 -56 56z" />
    <glyph glyph-name="semicolon" unicode=";" horiz-adv-x="153" 
d="M25 56c0 31 25 57 56 57c67 0 98 -108 -6 -212c-5 -5 -8 -6 -14 -2l-19 14c-6 4 -7 7 -3 12c72 90 -14 66 -14 131zM25 359c0 31 25 57 56 57s57 -26 57 -57s-26 -56 -57 -56s-56 25 -56 56z" />
    <glyph glyph-name="comma" unicode="," horiz-adv-x="153" 
d="M25 56c0 31 25 57 56 57c67 0 98 -108 -6 -212c-5 -5 -8 -6 -14 -2l-19 14c-6 4 -7 7 -3 12c72 90 -14 66 -14 131z" />
    <glyph glyph-name="dieresis" unicode="&#xa8;" horiz-adv-x="316" 
d="M35 787c0 31 25 56 56 56s56 -25 56 -56s-25 -56 -56 -56s-56 25 -56 56zM169 787c0 31 25 56 56 56s56 -25 56 -56s-25 -56 -56 -56s-56 25 -56 56z" />
    <glyph glyph-name="Edieresis" unicode="&#xcb;" horiz-adv-x="341" 
d="M70 0c-15 0 -20 5 -20 20v660c0 15 5 20 20 20h211c15 0 20 -5 20 -20v-54c0 -15 -5 -20 -20 -20h-111c-20 0 -20 0 -20 -20v-150c0 -20 0 -20 20 -20h111c15 0 20 -5 20 -20v-54c0 -15 -5 -20 -20 -20h-111c-20 0 -20 0 -20 -20v-188c0 -20 0 -20 20 -20h111
c15 0 20 -5 20 -20v-54c0 -15 -5 -20 -20 -20h-211zM54 787c0 31 25 56 56 56s56 -25 56 -56s-25 -56 -56 -56s-56 25 -56 56zM188 787c0 31 25 56 56 56s56 -25 56 -56s-25 -56 -56 -56s-56 25 -56 56z" />
    <glyph glyph-name="Adieresis" unicode="&#xc4;" horiz-adv-x="412" 
d="M364 0h-60c-13 0 -19 0 -22 15l-9 54c-4 20 -4 20 -22 20h-89c-19 0 -19 0 -23 -20l-9 -54c-3 -15 -9 -15 -22 -15h-60c-10 0 -20 0 -17 17l126 665c3 15 6 18 22 18h54c16 0 19 -3 22 -18l126 -665c3 -17 -7 -17 -17 -17zM202 446l-41 -243c-3 -20 -3 -20 17 -20h56
c20 0 20 0 17 20l-41 243c-1 5 -7 5 -8 0zM83 787c0 31 25 56 56 56s56 -25 56 -56s-25 -56 -56 -56s-56 25 -56 56zM217 787c0 31 25 56 56 56s56 -25 56 -56s-25 -56 -56 -56s-56 25 -56 56z" />
    <glyph glyph-name="Wdieresis" unicode="&#x1e84;" horiz-adv-x="624" 
d="M317 395c-1 7 -9 7 -10 0l-71 -375c-3 -15 -5 -20 -23 -20h-39c-18 0 -20 5 -23 20l-125 660c-3 14 1 20 17 20h60c16 0 20 -4 23 -20l66 -396c1 -5 8 -5 9 0l75 396c3 16 7 20 22 20h28c15 0 19 -4 22 -20l75 -396c1 -5 8 -5 9 0l66 396c3 16 7 20 23 20h60
c16 0 20 -6 17 -20l-125 -660c-3 -15 -5 -20 -23 -20h-49c-18 0 -20 5 -23 20zM189 787c0 31 25 56 56 56s56 -25 56 -56s-25 -56 -56 -56s-56 25 -56 56zM323 787c0 31 25 56 56 56s56 -25 56 -56s-25 -56 -56 -56s-56 25 -56 56z" />
    <glyph glyph-name="Ydieresis" unicode="&#x178;" horiz-adv-x="350" 
d="M145 0c-15 0 -20 5 -20 20v204c0 10 -103 456 -103 456c-3 11 0 20 13 20h64c18 0 19 -5 23 -20l48 -242c1 -7 9 -7 10 0l48 242c4 15 5 20 23 20h64c13 0 16 -9 13 -20c0 0 -103 -446 -103 -456v-204c0 -15 -5 -20 -20 -20h-60zM52 787c0 31 25 56 56 56s56 -25 56 -56
s-25 -56 -56 -56s-56 25 -56 56zM186 787c0 31 25 56 56 56s56 -25 56 -56s-25 -56 -56 -56s-56 25 -56 56z" />
    <glyph glyph-name="Udieresis" unicode="&#xdc;" horiz-adv-x="410" 
d="M265 680c0 15 5 20 20 20h60c15 0 20 -5 20 -20v-494c0 -138 -77 -190 -160 -190s-160 52 -160 190v494c0 15 5 20 20 20h60c15 0 20 -5 20 -20v-520c0 -52 29 -72 60 -72s60 20 60 72v520zM81 787c0 31 25 56 56 56s56 -25 56 -56s-25 -56 -56 -56s-56 25 -56 56z
M215 787c0 31 25 56 56 56s56 -25 56 -56s-25 -56 -56 -56s-56 25 -56 56z" />
    <glyph glyph-name="Lcaron" unicode="&#x13d;" horiz-adv-x="316" 
d="M102 797l9 56c2 10 5 11 13 11h61c9 0 12 -8 6 -18l-64 -104c-5 -7 -8 -7 -15 -7h-28c-7 0 -10 0 -15 7l-64 104c-6 10 -3 18 6 18h61c8 0 11 -1 13 -11l9 -56c1 -5 7 -5 8 0zM70 0c-15 0 -20 5 -20 20v660c0 15 5 20 20 20h60c15 0 20 -5 20 -20v-565
c0 -21 0 -21 21 -21h110c15 0 20 -5 20 -20v-54c0 -15 -5 -20 -20 -20h-211z" />
    <glyph glyph-name="tilde" unicode="&#x2dc;" horiz-adv-x="279" 
d="M177 731c-25 3 -46 16 -66 21c-6 1 -18 1 -22 -14c-1 -3 -2 -7 -8 -7h-59c-4 0 -7 1 -6 6c8 42 32 91 86 86c25 -2 45 -16 66 -21c6 -1 18 -1 22 14c1 3 2 7 8 7h59c4 0 7 -1 6 -6c-8 -42 -32 -91 -86 -86z" />
    <glyph glyph-name="Ntilde" unicode="&#xd1;" horiz-adv-x="465" 
d="M395 0h-45c-9 0 -16 2 -20 12l-172 403c-3 7 -8 4 -8 -1v-394c0 -15 -5 -20 -20 -20h-60c-15 0 -20 5 -20 20v660c0 15 5 20 20 20h45c11 0 16 -2 20 -13l172 -403c3 -6 8 -4 8 1v395c0 15 5 20 20 20h60c15 0 20 -5 20 -20v-660c0 -15 -5 -20 -20 -20zM273 731
c-25 3 -46 16 -66 21c-6 1 -18 1 -22 -14c-1 -3 -2 -7 -8 -7h-59c-4 0 -7 1 -6 6c8 42 32 91 86 86c25 -2 45 -16 66 -21c6 -1 18 -1 22 14c1 3 2 7 8 7h59c4 0 7 -1 6 -6c-8 -42 -32 -91 -86 -86z" />
    <glyph glyph-name="Odieresis" unicode="&#xd6;" horiz-adv-x="400" 
d="M360 514v-328c0 -138 -77 -190 -160 -190s-160 52 -160 190v328c0 138 77 190 160 190s160 -52 160 -190zM260 160v380c0 52 -29 72 -60 72s-60 -20 -60 -72v-380c0 -52 29 -72 60 -72s60 20 60 72zM75 787c0 31 25 56 56 56s56 -25 56 -56s-25 -56 -56 -56
s-56 25 -56 56zM209 787c0 31 25 56 56 56s56 -25 56 -56s-25 -56 -56 -56s-56 25 -56 56z" />
    <glyph glyph-name="Otilde" unicode="&#xd5;" horiz-adv-x="400" 
d="M360 514v-328c0 -138 -77 -190 -160 -190s-160 52 -160 190v328c0 138 77 190 160 190s160 -52 160 -190zM260 160v380c0 52 -29 72 -60 72s-60 -20 -60 -72v-380c0 -52 29 -72 60 -72s60 20 60 72zM237 731c-25 3 -45 16 -65 20c-6 1 -18 1 -22 -13c-1 -3 -2 -7 -8 -7
h-58c-4 0 -7 1 -6 6c8 41 32 90 85 85c25 -2 45 -16 65 -21c6 -1 18 -1 22 14c1 3 2 7 8 7h58c4 0 7 -1 6 -6c-8 -42 -31 -90 -85 -85z" />
    <glyph glyph-name="Utilde" unicode="&#x168;" horiz-adv-x="410" 
d="M265 680c0 15 5 20 20 20h60c15 0 20 -5 20 -20v-494c0 -138 -77 -190 -160 -190s-160 52 -160 190v494c0 15 5 20 20 20h60c15 0 20 -5 20 -20v-520c0 -52 29 -72 60 -72s60 20 60 72v520zM244 731c-25 3 -46 16 -66 21c-6 1 -18 1 -22 -14c-1 -3 -2 -7 -8 -7h-59
c-4 0 -7 1 -6 6c8 42 32 91 86 86c25 -2 45 -16 66 -21c6 -1 18 -1 22 14c1 3 2 7 8 7h59c4 0 7 -1 6 -6c-8 -42 -32 -91 -86 -86z" />
    <glyph glyph-name="atilde" unicode="&#xe3;" horiz-adv-x="382" 
d="M337 350v-281c1 -21 5 -37 8 -49c3 -15 -5 -20 -20 -20h-56c-14 0 -19 3 -22 30c0 0 -32 -34 -83 -34c-72 0 -127 44 -127 133v44c0 110 95 122 155 144c30 11 45 26 45 50c0 23 -18 45 -45 45c-25 0 -49 -21 -47 -59c1 -15 -4 -20 -20 -20h-56c-15 0 -19 5 -20 20
c-3 83 61 151 143 151c75 0 145 -58 145 -154zM187 88c43 0 49 38 50 80v80c-54 -24 -100 -35 -100 -85v-8c0 -15 0 -67 50 -67zM229 545c-25 3 -46 16 -66 21c-6 1 -18 1 -22 -14c-1 -3 -2 -7 -8 -7h-59c-4 0 -7 1 -6 6c8 42 32 91 86 86c25 -2 45 -16 66 -21
c6 -1 18 -1 22 14c1 3 2 7 8 7h59c4 0 7 -1 6 -6c-8 -42 -32 -91 -86 -86z" />
    <glyph glyph-name="ntilde" unicode="&#xf1;" horiz-adv-x="403" 
d="M258 20v316c0 60 -27 76 -54 76s-54 -16 -54 -76v-316c0 -15 -5 -20 -20 -20h-60c-15 0 -20 5 -20 20v460c0 15 5 20 20 20h57c15 0 20 -5 20 -20v-19c15 22 39 41 77 43c75 3 134 -47 134 -170v-314c0 -15 -5 -20 -20 -20h-60c-15 0 -20 5 -20 20zM240 545
c-24 3 -44 15 -64 20c-6 1 -17 1 -21 -14c-1 -2 -2 -6 -8 -6h-57c-4 0 -7 1 -6 6c8 40 31 87 84 82c24 -2 43 -15 63 -20c6 -1 18 -1 22 13c1 3 2 7 7 7h57c4 0 7 -1 6 -6c-8 -40 -31 -87 -83 -82z" />
    <glyph glyph-name="otilde" unicode="&#xf5;" horiz-adv-x="380" 
d="M340 320v-140c0 -138 -79 -184 -150 -184s-150 46 -150 184v140c0 138 79 184 150 184s150 -46 150 -184zM240 336c0 60 -23 76 -50 76s-50 -16 -50 -76v-172c0 -60 23 -76 50 -76s50 16 50 76v172zM226 545c-24 3 -44 15 -64 20c-6 1 -17 1 -21 -14c-1 -2 -2 -6 -8 -6
h-57c-4 0 -7 1 -6 6c8 40 31 87 84 82c24 -2 43 -15 63 -20c6 -1 18 -1 22 13c1 3 2 7 7 7h57c4 0 7 -1 6 -6c-8 -40 -31 -87 -83 -82z" />
    <glyph glyph-name="utilde" unicode="&#x169;" horiz-adv-x="403" 
d="M145 164c0 -60 27 -76 54 -76s54 16 54 76v316c0 15 5 20 20 20h60c15 0 20 -5 20 -20v-460c0 -15 -5 -20 -20 -20h-57c-15 0 -20 5 -20 20v19c-15 -22 -39 -41 -77 -43c-75 -3 -134 47 -134 170v314c0 15 5 20 20 20h60c15 0 20 -5 20 -20v-316zM238 545
c-24 3 -44 15 -64 20c-6 1 -17 1 -21 -14c-1 -2 -2 -6 -8 -6h-57c-4 0 -7 1 -6 6c8 40 31 87 84 82c24 -2 43 -15 63 -20c6 -1 18 -1 22 13c1 3 2 7 7 7h57c4 0 7 -1 6 -6c-8 -40 -31 -87 -83 -82z" />
    <glyph glyph-name="uogonek" unicode="&#x173;" horiz-adv-x="403" 
d="M145 164c0 -60 27 -76 54 -76s54 16 54 76v316c0 15 5 20 20 20h60c15 0 20 -5 20 -20v-460c0 -15 -5 -20 -20 -20h-3c-6 -8 -12 -17 -13 -21c-11 -25 6 -36 25 -38c9 -1 11 -3 9 -12l-16 -69c-2 -8 -6 -9 -13 -8c-65 11 -104 70 -65 130c2 4 7 11 13 18
c-11 1 -14 7 -14 20v19c-15 -22 -39 -41 -77 -43c-75 -3 -134 47 -134 170v314c0 15 5 20 20 20h60c15 0 20 -5 20 -20v-316z" />
    <glyph glyph-name="Uogonek" unicode="&#x172;" horiz-adv-x="410" 
d="M265 680c0 15 5 20 20 20h60c15 0 20 -5 20 -20v-494c0 -127 -65 -181 -140 -189c-5 -7 -10 -14 -11 -18c-11 -25 6 -36 25 -38c9 -1 11 -3 9 -12l-16 -69c-2 -8 -6 -9 -13 -8c-65 11 -104 70 -65 130c2 4 7 11 13 18c-67 14 -122 69 -122 186v494c0 15 5 20 20 20h60
c15 0 20 -5 20 -20v-520c0 -52 29 -72 60 -72s60 20 60 72v520z" />
    <glyph glyph-name="cedilla" unicode="&#xb8;" horiz-adv-x="247" 
d="M67 -116l-50 11c-11 3 -12 7 -10 17l40 130h80l-26 -80c82 28 140 -35 139 -102c-2 -95 -99 -145 -173 -106c-7 3 -7 8 -5 14l16 43c3 8 9 7 15 5c37 -13 75 3 75 44c0 26 -20 50 -49 48c-15 -1 -27 -7 -37 -19c-4 -5 -6 -7 -15 -5z" />
    <glyph glyph-name="Ccedilla" unicode="&#xc7;" horiz-adv-x="395" 
d="M171 -116l-50 11c-11 3 -12 7 -10 17l29 94c-57 21 -100 76 -100 180v328c0 138 77 190 160 190c78 0 150 -46 159 -165c1 -14 -5 -26 -20 -26h-59c-15 0 -20 5 -20 20v7c0 52 -29 72 -60 72s-60 -20 -60 -72v-380c0 -52 29 -72 60 -72s60 20 60 72v7c0 15 5 20 20 20h59
c15 0 21 -12 20 -26c-9 -111 -71 -158 -143 -164l-11 -35c82 28 140 -35 139 -102c-2 -95 -99 -145 -173 -106c-7 3 -7 8 -5 14l16 43c3 8 9 7 15 5c37 -13 75 3 75 44c0 26 -20 50 -49 48c-15 -1 -27 -7 -37 -19c-4 -5 -6 -7 -15 -5z" />
    <glyph glyph-name="Scedilla" unicode="&#x15e;" horiz-adv-x="367" 
d="M154 -116l-50 11c-11 3 -12 7 -10 17l29 95c-62 24 -104 85 -102 153c0 17 4 22 21 22h58c13 0 20 -5 20 -23c0 -39 20 -71 61 -71c40 0 58 31 62 59c19 119 -201 234 -211 399c-5 86 57 158 147 158c69 0 135 -53 143 -133c2 -27 0 -32 -20 -32h-55c-15 0 -20 5 -20 20
c0 36 -21 53 -48 53c-46 0 -51 -45 -49 -65c11 -112 191 -213 210 -370c10 -85 -48 -170 -141 -180l-11 -35c82 28 140 -35 139 -102c-2 -95 -99 -145 -173 -106c-7 3 -7 8 -5 14l16 43c3 8 9 7 15 5c37 -13 75 3 75 44c0 26 -20 50 -49 48c-15 -1 -27 -7 -37 -19
c-4 -5 -6 -7 -15 -5z" />
    <glyph glyph-name="ccedilla" unicode="&#xe7;" horiz-adv-x="376" 
d="M165 -116l-50 11c-11 3 -12 7 -10 17l29 94c-51 20 -94 72 -94 174v140c0 138 79 184 150 184c105 0 148 -94 145 -151c-1 -15 -5 -20 -20 -20h-57c-18 0 -19 9 -20 26c-2 42 -28 53 -48 53c-27 0 -50 -16 -50 -76v-172c0 -60 23 -76 50 -76c20 0 46 11 48 53
c1 17 2 26 20 26h57c15 0 19 -5 20 -20c3 -53 -35 -139 -125 -150l-11 -35c82 28 140 -35 139 -102c-2 -95 -99 -145 -173 -106c-7 3 -7 8 -5 14l16 43c3 8 9 7 15 5c37 -13 75 3 75 44c0 26 -20 50 -49 48c-15 -1 -27 -7 -37 -19c-4 -5 -6 -7 -15 -5z" />
    <glyph glyph-name="scedilla" unicode="&#x15f;" horiz-adv-x="332" 
d="M137 -116l-50 11c-11 3 -12 7 -10 17l29 96c-55 25 -86 83 -86 128c0 15 5 20 20 20h58c15 0 20 -5 20 -20c0 -30 25 -48 48 -48c22 0 47 18 48 48c4 90 -170 107 -178 234c-5 77 60 134 130 134c72 0 133 -62 133 -137c0 -15 -5 -20 -20 -20h-52c-14 0 -20 4 -20 24
c0 25 -17 43 -40 43c-22 0 -39 -18 -39 -40c-1 -74 194 -110 183 -247c-5 -58 -52 -122 -129 -130l-11 -35c82 28 140 -35 139 -102c-2 -95 -99 -145 -173 -106c-7 3 -7 8 -5 14l16 43c3 8 9 7 15 5c37 -13 75 3 75 44c0 26 -20 50 -49 48c-15 -1 -27 -7 -37 -19
c-4 -5 -6 -7 -15 -5z" />
    <glyph glyph-name="quotedbl" unicode="&#x22;" horiz-adv-x="239" 
d="M50 569l-24 157c-2 16 5 24 18 24h46c13 0 20 -8 18 -24l-24 -157c-3 -22 -31 -22 -34 0zM155 569l-24 157c-2 16 5 24 18 24h46c13 0 20 -8 18 -24l-24 -157c-3 -22 -31 -22 -34 0z" />
    <glyph glyph-name="numbersign" unicode="#" horiz-adv-x="607" 
d="M540 252c0 -10 0 -20 -20 -20h-94l-26 -210c-2 -15 -8 -22 -23 -22h-48c-15 0 -20 8 -19 20l26 212h-87l-26 -210c-2 -15 -8 -22 -23 -22h-48c-15 0 -20 8 -19 20l26 212h-99c-15 0 -20 5 -20 20v50c0 15 5 20 20 20h110l11 94h-94c-15 0 -20 5 -20 20v50
c0 15 5 20 20 20h105l22 172c2 15 8 22 23 22h48c15 0 20 -8 19 -20l-22 -174h87l22 172c2 15 8 22 23 22h48c15 0 20 -8 19 -20l-22 -174h88c20 0 20 -10 20 -20v-50c0 -10 0 -20 -20 -20h-99l-11 -94h83c20 0 20 -10 20 -20v-50zM271 416l-11 -94h87l11 94h-87z" />
    <glyph glyph-name="dollar" unicode="$" horiz-adv-x="349" 
d="M144 -71c-15 0 -20 5 -20 20v58c-71 20 -99 84 -99 174c0 15 5 20 20 20h59c15 0 20 -5 20 -20c0 -49 5 -93 50 -93c50 0 50 51 50 71c0 50 -36 107 -88 164c-58 63 -111 133 -111 221c0 73 33 131 99 150v58c0 15 5 20 20 20h60c15 0 20 -5 20 -20v-57
c71 -20 100 -85 100 -174c0 -15 -5 -20 -20 -20h-59c-15 0 -20 5 -20 20c0 49 -5 91 -50 91c-50 0 -50 -49 -50 -69c0 -50 36 -105 88 -162c58 -63 111 -135 111 -223c0 -74 -34 -132 -100 -151v-58c0 -15 -5 -20 -20 -20h-60z" />
    <glyph glyph-name="slash" unicode="/" horiz-adv-x="253" 
d="M36 20l81 658c2 15 8 22 23 22h58c15 0 20 -8 19 -20l-81 -658c-2 -15 -8 -22 -23 -22h-58c-15 0 -20 8 -19 20z" />
    <glyph glyph-name="percent" unicode="%" horiz-adv-x="539" 
d="M164 20l121 658c2 15 8 22 23 22h48c15 0 21 -8 19 -20l-121 -658c-2 -15 -8 -22 -23 -22h-48c-15 0 -21 8 -19 20zM135 500c-55 0 -100 45 -100 100c0 56 45 101 100 101c56 0 101 -45 101 -101c0 -55 -45 -100 -101 -100zM92 600c0 -24 19 -43 43 -43c25 0 44 19 44 43
c0 25 -19 44 -44 44c-24 0 -43 -19 -43 -44zM403 0c-55 0 -100 45 -100 100c0 56 45 101 100 101c56 0 101 -45 101 -101c0 -55 -45 -100 -101 -100zM360 100c0 -24 19 -43 43 -43c25 0 44 19 44 43c0 25 -19 44 -44 44c-24 0 -43 -19 -43 -44z" />
    <glyph glyph-name="quotesingle" unicode="'" horiz-adv-x="134" 
d="M50 569l-24 157c-2 16 5 24 18 24h46c13 0 20 -8 18 -24l-24 -157c-3 -22 -31 -22 -34 0z" />
    <glyph glyph-name="asterisk" unicode="*" horiz-adv-x="349" 
d="M279 812c11 -11 11 -17 0 -28l-35 -35h50c15 0 20 -5 20 -20v-18c0 -15 -5 -20 -20 -20h-50l35 -35c11 -11 11 -17 0 -28l-13 -13c-11 -11 -17 -11 -28 0l-35 35v-50c0 -15 -5 -20 -20 -20h-18c-15 0 -20 5 -20 20v50l-35 -35c-11 -11 -17 -11 -28 0l-13 13
c-11 11 -11 17 0 28l35 35h-49c-15 0 -20 5 -20 20v18c0 15 5 20 20 20h49l-35 35c-11 11 -11 17 0 28l13 13c11 11 17 11 28 0l35 -35v49c0 15 5 20 20 20h18c15 0 20 -5 20 -20v-49l35 35c11 11 17 11 28 0z" />
    <glyph glyph-name="plus" unicode="+" horiz-adv-x="350" 
d="M223 426c0 -7 3 -10 10 -10h62c15 0 20 -5 20 -20v-54c0 -15 -5 -20 -20 -20h-62c-7 0 -10 -3 -10 -10v-73c0 -15 -5 -20 -20 -20h-54c-15 0 -20 5 -20 20v73c0 7 -3 10 -10 10h-64c-15 0 -20 5 -20 20v54c0 15 5 20 20 20h64c7 0 10 3 10 10v73c0 15 5 20 20 20h54
c15 0 20 -5 20 -20v-73z" />
    <glyph glyph-name="minus" unicode="&#x2212;" horiz-adv-x="370" 
d="M35 396c0 15 5 20 20 20h260c15 0 20 -5 20 -20v-54c0 -15 -5 -20 -20 -20h-260c-15 0 -20 5 -20 20v54z" />
    <glyph glyph-name="hyphen" unicode="-" horiz-adv-x="285" 
d="M35 303c0 15 4 20 14 20h186c10 0 14 -5 14 -20v-54c0 -15 -4 -20 -14 -20h-186c-10 0 -14 5 -14 20v54z" />
    <glyph glyph-name="equal" unicode="=" horiz-adv-x="370" 
d="M35 490c0 15 5 20 20 20h260c15 0 20 -5 20 -20v-54c0 -15 -5 -20 -20 -20h-260c-15 0 -20 5 -20 20v54zM35 302c0 15 5 20 20 20h260c15 0 20 -5 20 -20v-54c0 -15 -5 -20 -20 -20h-260c-15 0 -20 5 -20 20v54z" />
    <glyph glyph-name="question" unicode="?" horiz-adv-x="370" 
d="M140 193c3 146 95 208 95 349c0 20 -1 70 -51 70c-45 0 -49 -43 -49 -92c0 -15 -5 -20 -20 -20h-60c-15 0 -20 5 -20 20c0 108 42 184 149 184c100 0 151 -71 151 -161c0 -155 -102 -202 -105 -351v-15c0 -20 -10 -20 -20 -20h-50c-10 0 -20 0 -20 20v16zM129 56
c0 32 25 57 56 57c32 0 57 -25 57 -57c0 -31 -25 -56 -57 -56c-31 0 -56 25 -56 56z" />
    <glyph glyph-name="parenleft" unicode="(" horiz-adv-x="250" 
d="M185 700c-50 0 -50 -52 -50 -102v-501c0 -50 0 -102 50 -102h10c15 0 20 -5 20 -20v-49c0 -15 -5 -20 -20 -20h-10c-100 0 -150 49 -150 200v483c0 151 50 200 150 200h10c15 0 20 -5 20 -20v-49c0 -15 -5 -20 -20 -20h-10z" />
    <glyph glyph-name="parenright" unicode=")" horiz-adv-x="250" 
d="M65 700h-10c-15 0 -20 5 -20 20v49c0 15 5 20 20 20h10c100 0 150 -49 150 -200v-481c0 -151 -50 -200 -150 -200h-10c-15 0 -20 5 -20 20v49c0 15 5 20 20 20h10c50 0 50 52 50 102v499c0 50 0 102 -50 102z" />
    <glyph glyph-name="braceleft" unicode="{" horiz-adv-x="330" 
d="M115 249c-1 44 -6 73 -50 73h-14c-12 1 -16 6 -16 20v54c0 15 5 20 20 20h10c44 2 49 31 50 73v149c0 151 50 200 150 200h10c15 0 20 -5 20 -20v-49c0 -15 -5 -20 -20 -20h-10c-50 0 -50 -52 -50 -102v-170c0 -56 -12 -80 -32 -108c20 -28 32 -52 32 -107v-270
c0 -50 0 -102 50 -102h10c15 0 20 -5 20 -20v-49c0 -15 -5 -20 -20 -20h-10c-100 0 -150 49 -150 200v248z" />
    <glyph glyph-name="braceright" unicode="}" horiz-adv-x="330" 
d="M215 249v-248c0 -151 -50 -200 -150 -200h-10c-15 0 -20 5 -20 20v49c0 15 5 20 20 20h10c50 0 50 52 50 102v270c0 55 12 79 32 107c-20 28 -32 52 -32 108v170c0 50 0 102 -50 102h-10c-15 0 -20 5 -20 20v49c0 15 5 20 20 20h10c100 0 150 -49 150 -200v-149
c1 -42 6 -71 50 -73h10c15 0 20 -5 20 -20v-54c0 -14 -4 -19 -16 -20h-14c-44 0 -49 -29 -50 -73z" />
    <glyph glyph-name="bar" unicode="|" horiz-adv-x="170" 
d="M55 -292c-15 0 -20 5 -20 20v1001c0 15 5 20 20 20h60c15 0 20 -5 20 -20v-1001c0 -15 -5 -20 -20 -20h-60z" />
    <glyph glyph-name="backslash" unicode="\" horiz-adv-x="253" 
d="M136 678l81 -658c1 -12 -4 -20 -19 -20h-58c-15 0 -21 7 -23 22l-81 658c-1 12 4 20 19 20h58c15 0 21 -7 23 -22z" />
    <glyph glyph-name="bracketleft" unicode="[" horiz-adv-x="270" 
d="M35 -179v957c0 15 5 20 20 20h160c15 0 20 -5 20 -20v-54c0 -15 -5 -20 -20 -20h-60c-20 0 -20 0 -20 -20v-769c0 -20 0 -20 20 -20h60c15 0 20 -5 20 -20v-54c0 -15 -5 -20 -20 -20h-160c-15 0 -20 5 -20 20z" />
    <glyph glyph-name="bracketright" unicode="]" horiz-adv-x="270" 
d="M235 -179c0 -15 -5 -20 -20 -20h-160c-15 0 -20 5 -20 20v54c0 15 5 20 20 20h60c20 0 20 0 20 20v769c0 20 0 20 -20 20h-60c-15 0 -20 5 -20 20v54c0 15 5 20 20 20h160c15 0 20 -5 20 -20v-957z" />
    <glyph glyph-name="underscore" unicode="_" horiz-adv-x="469" 
d="M35 -20c0 15 5 20 20 20h359c15 0 20 -5 20 -20v-54c0 -15 -5 -20 -20 -20h-359c-15 0 -20 5 -20 20v54z" />
    <glyph glyph-name="asciicircum" unicode="^" horiz-adv-x="468" 
d="M206 700h56c13 0 16 -4 21 -13l147 -276c6 -11 2 -20 -9 -20h-60c-13 0 -16 4 -21 13l-94 175c-6 11 -18 11 -24 0l-94 -175c-5 -9 -8 -13 -21 -13h-60c-11 0 -15 9 -9 20l147 276c5 9 8 13 21 13z" />
    <glyph glyph-name="asciitilde" unicode="~" horiz-adv-x="520" 
d="M245 336c-23 8 -46 16 -65 16c-42 0 -56 -25 -65 -40c-7 -12 -15 -11 -23 -7l-47 24c-9 5 -12 10 -8 21c17 48 60 87 120 87c41 0 80 -17 116 -31c24 -9 47 -17 67 -17c42 0 56 25 65 40c7 12 15 11 23 7l47 -24c9 -5 12 -10 8 -21c-17 -48 -60 -87 -120 -87
c-42 0 -82 18 -118 32z" />
    <glyph glyph-name="at" unicode="@" horiz-adv-x="769" 
d="M384 -105c4 0 18 0 18 -17v-55c0 -15 -11 -17 -18 -17c-149 0 -349 51 -349 391v112c0 340 200 391 349 391c150 0 350 -51 350 -390v-199c0 -151 -50 -200 -150 -200c-82 0 -130 33 -145 126c-25 -28 -55 -37 -78 -37c-75 0 -127 41 -127 191v118c0 150 52 191 127 191
c21 0 49 -7 73 -30v10c0 15 5 20 20 20h60c15 0 20 -5 20 -20v-400c1 -43 7 -80 50 -80c50 0 50 52 50 102v183c0 190 -49 326 -250 326c-200 0 -249 -138 -249 -327v-62c0 -189 53 -327 249 -327zM334 309v-118c0 -51 0 -102 50 -102c42 0 49 37 50 79v141
c0 50 0 102 -50 102s-50 -51 -50 -102z" />
    <glyph glyph-name="multiply" unicode="&#xd7;" horiz-adv-x="411" 
d="M213 296c-5 5 -10 5 -15 0l-87 -88c-11 -11 -18 -11 -29 0l-38 38c-10 11 -10 18 0 28l88 88c5 5 5 9 0 14l-88 89c-11 10 -11 17 0 28l38 38c10 11 17 11 28 0l88 -88c5 -5 10 -5 15 0l87 87c11 11 18 11 29 0l38 -38c11 -11 11 -17 0 -28l-88 -88c-5 -5 -5 -9 0 -14
l88 -88c11 -11 11 -18 0 -29l-38 -38c-10 -10 -18 -11 -28 0z" />
    <glyph glyph-name="quotedblright" unicode="&#x201d;" horiz-adv-x="310" 
d="M25 643c0 31 25 57 56 57c67 0 98 -108 -6 -212c-5 -5 -8 -6 -14 -2l-19 14c-6 4 -7 7 -3 12c72 90 -14 66 -14 131zM167 643c0 31 25 57 56 57c67 0 98 -108 -6 -212c-5 -5 -8 -6 -14 -2l-19 14c-6 4 -7 7 -3 12c72 90 -14 66 -14 131z" />
    <glyph glyph-name="quotedblbase" unicode="&#x201e;" horiz-adv-x="310" 
d="M25 56c0 31 25 57 56 57c67 0 98 -108 -6 -212c-5 -5 -8 -6 -14 -2l-19 14c-6 4 -7 7 -3 12c72 90 -14 66 -14 131zM167 56c0 31 25 57 56 57c67 0 98 -108 -6 -212c-5 -5 -8 -6 -14 -2l-19 14c-6 4 -7 7 -3 12c72 90 -14 66 -14 131z" />
    <glyph glyph-name="quotedblleft" unicode="&#x201c;" horiz-adv-x="310" 
d="M285 556c0 -31 -25 -57 -56 -57c-67 0 -98 108 6 212c5 5 8 6 14 2l19 -14c6 -4 7 -7 3 -12c-72 -90 14 -66 14 -131zM143 556c0 -31 -25 -57 -56 -57c-67 0 -98 108 6 212c5 5 8 6 14 2l19 -14c6 -4 7 -7 3 -12c-72 -90 14 -66 14 -131z" />
    <glyph glyph-name="guillemotleft" unicode="&#xab;" horiz-adv-x="360" 
d="M39 239c-5 7 -5 16 0 22l123 150c9 11 18 4 18 -5v-73c0 -9 0 -11 -10 -23l-44 -54c-3 -4 -3 -8 0 -12l44 -54c10 -12 10 -14 10 -23v-73c0 -9 -9 -16 -18 -5zM184 239c-5 7 -5 16 0 22l123 150c9 11 18 4 18 -5v-73c0 -9 0 -11 -10 -23l-44 -54c-3 -4 -3 -8 0 -12
l44 -54c10 -12 10 -14 10 -23v-73c0 -9 -9 -16 -18 -5z" />
    <glyph glyph-name="copyright" unicode="&#xa9;" horiz-adv-x="771" 
d="M35 350c0 194 158 351 351 351s350 -157 350 -351s-157 -350 -350 -350s-351 156 -351 350zM241 393c0 141 55 191 145 191c101 0 143 -64 143 -176c0 -15 -5 -20 -20 -20h-58c-15 0 -20 5 -20 20c0 33 1 87 -45 87c-45 0 -45 -52 -45 -102v-82c0 -50 0 -102 45 -102
c46 0 45 54 45 87c0 15 5 20 20 20h58c15 0 20 -5 20 -20c0 -112 -42 -176 -143 -176c-90 0 -145 50 -145 191v82zM115 349c0 -150 121 -271 271 -271c151 0 272 121 272 271c0 151 -121 272 -272 272c-150 0 -271 -121 -271 -272z" />
    <glyph glyph-name="onesuperior" unicode="&#xb9;" horiz-adv-x="171" 
d="M76 696c0 1 2 4 7 4h25c6 0 8 -2 8 -8v-268c0 -6 -2 -8 -8 -8h-24c-6 0 -8 2 -8 8v191c0 3 -2 4 -4 4h-26c-5 0 -7 3 -5 8z" />
    <glyph glyph-name="twosuperior" unicode="&#xb2;" horiz-adv-x="222" 
d="M91 480v-18c0 -8 0 -8 8 -8h65c6 0 8 -2 8 -8v-22c0 -6 -2 -8 -8 -8h-106c-6 0 -8 2 -8 8v56c0 35 25 62 45 90c19 25 36 46 36 66c0 7 0 28 -20 28c-16 0 -20 -13 -20 -32c0 -6 -2 -8 -9 -8h-24c-6 0 -8 2 -8 8c0 36 19 70 61 70c43 0 58 -36 60 -61
c1 -36 -23 -66 -44 -94c-19 -26 -36 -47 -36 -67z" />
    <glyph glyph-name="threesuperior" unicode="&#xb3;" horiz-adv-x="212" 
d="M162 491c0 -56 -28 -77 -61 -77c-31 0 -57 19 -60 66c-1 7 2 12 8 12h24c6 0 8 -2 8 -8v-3c0 -21 7 -29 20 -29c12 0 20 8 20 29v36c0 18 -2 30 -20 30h-6c-5 0 -6 2 -6 8v22c0 6 2 8 8 8h4c18 1 20 12 20 29v21c0 21 -8 29 -20 29c-13 0 -20 -8 -20 -29v-3
c0 -6 -2 -8 -8 -8h-24c-6 0 -9 5 -8 12c3 47 29 66 60 66c33 0 61 -21 61 -77v-15c0 -23 -5 -33 -13 -44c8 -12 13 -21 13 -44v-31z" />
    <glyph glyph-name="zerosuperior" unicode="&#x2070;" horiz-adv-x="230" 
d="M180 625v-134c0 -56 -31 -77 -65 -77c-33 0 -65 21 -65 77v134c0 56 32 77 65 77c34 0 65 -21 65 -77zM140 481v154c0 21 -12 29 -25 29c-12 0 -24 -8 -24 -29v-154c0 -21 12 -29 24 -29c13 0 25 8 25 29z" />
    <glyph glyph-name="foursuperior" unicode="&#x2074;" horiz-adv-x="213" 
d="M105 609l-30 -58c-1 -3 -1 -4 2 -4h27c3 0 4 1 4 4v57c0 2 -2 3 -3 1zM148 424c0 -6 -2 -8 -8 -8h-24c-6 0 -8 2 -8 8v80c0 3 -1 5 -4 5h-66c-6 0 -8 2 -8 8v18c0 5 0 7 3 13l75 146c2 4 5 6 10 6h22c6 0 8 -2 8 -8v-141c0 -3 1 -4 4 -4h2c7 0 9 -2 9 -8v-22
c0 -6 -2 -8 -9 -8h-2c-2 0 -4 -2 -4 -5v-80z" />
    <glyph glyph-name="fivesuperior" unicode="&#x2075;" horiz-adv-x="222" 
d="M132 551c0 24 -10 31 -21 31c-10 0 -19 -7 -20 -28v-7c0 -6 -2 -8 -8 -8h-25c-6 0 -8 2 -8 8v145c0 6 2 8 8 8h101c6 0 8 -2 8 -8v-22c0 -6 -2 -8 -8 -8h-60c-7 0 -8 -2 -8 -8v-48c7 7 16 12 29 13c29 1 52 -21 52 -69v-59c0 -56 -27 -77 -61 -77c-31 0 -57 19 -60 66
c-1 7 2 12 8 12h24c6 0 8 -2 8 -8v-3c0 -21 8 -29 20 -29c13 0 21 8 21 29v70z" />
    <glyph glyph-name="sixsuperior" unicode="&#x2076;" horiz-adv-x="222" 
d="M172 528v-39c0 -56 -32 -75 -61 -75s-61 19 -61 75v136c0 56 27 77 61 77c31 0 57 -19 61 -66c0 -7 -3 -12 -9 -12h-24c-6 0 -8 2 -8 8v3c0 21 -7 29 -20 29c-12 0 -20 -8 -20 -29v-51c7 6 16 12 29 13c29 0 52 -21 52 -69zM91 528v-45c0 -25 9 -31 20 -31s20 6 20 31v45
c0 25 -9 31 -20 31s-20 -6 -20 -31z" />
    <glyph glyph-name="sevensuperior" unicode="&#x2077;" horiz-adv-x="194" 
d="M51 424l52 233c0 4 -1 5 -4 5h-61c-6 0 -8 2 -8 8v22c0 6 2 8 8 8h98c6 0 8 -2 8 -8v-24c0 -4 0 -4 -1 -10l-52 -234c-1 -8 -5 -8 -9 -8h-25c-4 0 -8 2 -6 8z" />
    <glyph glyph-name="eightsuperior" unicode="&#x2078;" horiz-adv-x="218" 
d="M168 624v-4c0 -28 -5 -47 -15 -59c10 -13 15 -32 15 -59v-10c0 -57 -22 -78 -59 -78c-36 0 -59 21 -59 78v10c0 28 6 47 15 59c-9 12 -15 31 -15 59v4c0 57 23 78 59 78c37 0 59 -21 59 -78zM128 502c0 20 0 41 -19 41c-18 0 -18 -21 -18 -41v-9c0 -20 0 -41 18 -41
c19 0 19 21 19 41v9zM128 623c0 21 0 41 -19 41c-18 0 -18 -21 -18 -41v-3c0 -20 0 -41 18 -41c19 0 19 21 19 41v3z" />
    <glyph glyph-name="parenleftsuperior" unicode="&#x207d;" horiz-adv-x="138" 
d="M95 710c-22 0 -22 -22 -22 -44v-216c0 -22 0 -44 22 -44h4c7 0 9 -2 9 -9v-21c0 -6 -2 -9 -9 -9h-4c-43 0 -65 22 -65 87v208c0 65 22 87 65 87h4c7 0 9 -3 9 -9v-21c0 -7 -2 -9 -9 -9h-4z" />
    <glyph glyph-name="parenrightsuperior" unicode="&#x207e;" horiz-adv-x="138" 
d="M43 709h-4c-7 0 -9 2 -9 9v21c0 6 2 9 9 9h4c43 0 65 -22 65 -87v-207c0 -66 -22 -87 -65 -87h-4c-7 0 -9 2 -9 9v21c0 7 2 9 9 9h4c22 0 22 22 22 44v215c0 22 0 44 -22 44z" />
    <glyph glyph-name="fraction" unicode="&#x2044;" horiz-adv-x="290" 
d="M37 220l146 657c4 18 8 22 19 22h39c13 0 15 -8 12 -20l-146 -657c-4 -18 -8 -22 -19 -22h-39c-13 0 -15 8 -12 20z" />
    <glyph glyph-name="onehalf" unicode="&#xbd;" horiz-adv-x="469" 
d="M115 20l146 658c4 18 8 22 19 22h24c13 0 15 -8 12 -20l-146 -658c-4 -18 -8 -22 -19 -22h-24c-13 0 -15 8 -12 20zM90 694c1 1 3 6 10 6h36c8 0 11 -3 11 -11v-377c0 -8 -3 -11 -11 -11h-35c-8 0 -11 3 -11 11v268c0 4 -2 6 -6 6h-36c-6 0 -10 4 -6 12zM315 90v-25
c0 -11 0 -11 12 -11h91c9 0 11 -3 11 -12v-31c0 -8 -2 -11 -11 -11h-148c-9 0 -12 3 -12 11v78c0 51 35 88 64 128c25 34 50 63 50 92c0 10 -1 40 -29 40c-22 0 -28 -19 -28 -45c0 -9 -3 -12 -11 -12h-34c-9 0 -12 3 -12 12c0 49 27 97 85 97c61 0 83 -49 84 -85
c2 -50 -32 -93 -61 -132c-27 -36 -51 -65 -51 -94z" />
    <glyph glyph-name="onethird" unicode="&#x2153;" horiz-adv-x="470" 
d="M115 20l146 658c4 18 8 22 19 22h24c13 0 15 -8 12 -20l-146 -658c-4 -18 -8 -22 -19 -22h-24c-13 0 -15 8 -12 20zM430 106c0 -79 -38 -108 -85 -108c-44 0 -81 25 -86 92c0 10 3 17 12 17h34c8 0 11 -3 11 -12v-4c0 -29 11 -41 29 -41c17 0 28 12 28 41v51
c0 25 -3 42 -28 42h-8c-7 1 -9 3 -9 11v31c0 9 2 12 11 12h6c25 1 28 17 28 41v30c0 29 -11 41 -28 41c-18 0 -29 -12 -29 -41v-4c0 -9 -3 -12 -11 -12h-34c-9 0 -12 7 -12 17c5 67 42 92 86 92c47 0 85 -29 85 -108v-21c0 -32 -6 -46 -18 -62c12 -16 18 -30 18 -61v-44z
M90 694c1 1 3 6 10 6h36c8 0 11 -3 11 -11v-377c0 -8 -3 -11 -11 -11h-35c-8 0 -11 3 -11 11v268c0 4 -2 6 -6 6h-36c-6 0 -10 4 -6 12z" />
    <glyph glyph-name="guillemotright" unicode="&#xbb;" horiz-adv-x="360" 
d="M321 239l-123 -150c-9 -11 -18 -4 -18 5v73c0 9 0 11 10 23l44 54c3 4 3 8 0 12l-44 54c-10 12 -10 14 -10 23v73c0 9 9 16 18 5l123 -150c5 -6 5 -15 0 -22zM176 239l-123 -150c-9 -11 -18 -4 -18 5v73c0 9 0 11 10 23l44 54c3 4 3 8 0 12l-44 54c-10 12 -10 14 -10 23
v73c0 9 9 16 18 5l123 -150c5 -6 5 -15 0 -22z" />
    <glyph glyph-name="endash" unicode="&#x2013;" horiz-adv-x="499" 
d="M35 302c0 15 5 20 20 20h389c15 0 20 -5 20 -20v-54c0 -15 -5 -20 -20 -20h-389c-15 0 -20 5 -20 20v54z" />
    <glyph glyph-name="emdash" unicode="&#x2014;" horiz-adv-x="609" 
d="M35 302c0 15 5 20 20 20h499c15 0 20 -5 20 -20v-54c0 -15 -5 -20 -20 -20h-499c-15 0 -20 5 -20 20v54z" />
    <glyph glyph-name="registered" unicode="&#xae;" horiz-adv-x="771" 
d="M35 350c0 194 158 351 351 351s350 -157 350 -351s-157 -350 -350 -350s-351 156 -351 350zM115 349c0 -150 121 -271 271 -271c151 0 272 121 272 271c0 151 -121 272 -272 272c-150 0 -271 -121 -271 -272zM399 575c53 0 96 -30 96 -119v-20c0 -58 -17 -87 -39 -104
l39 -189c2 -11 -3 -14 -8 -14h-47c-9 0 -12 0 -14 10l-33 172c-1 4 -3 4 -7 4c-9 0 -9 0 -9 -11v-162c0 -10 -3 -13 -12 -13h-49c-8 0 -12 3 -12 13v420c0 10 4 13 12 13h83zM422 463c0 33 -12 44 -31 45c-14 0 -14 0 -14 -11v-102c0 -13 0 -13 14 -13c19 1 31 14 31 45v36z
" />
    <glyph glyph-name="onequarter" unicode="&#xbc;" horiz-adv-x="456" 
d="M121 20l146 658c4 18 8 22 19 22h24c13 0 15 -8 12 -20l-146 -658c-4 -18 -8 -22 -19 -22h-24c-13 0 -15 8 -12 20zM90 694c1 1 3 6 10 6h36c8 0 11 -3 11 -11v-377c0 -8 -3 -11 -11 -11h-35c-8 0 -11 3 -11 11v268c0 4 -2 6 -6 6h-36c-6 0 -10 4 -6 12zM334 271l-42 -81
c-2 -4 -1 -6 3 -6h38c4 0 5 2 5 6v81c0 3 -2 4 -4 0zM396 11c0 -8 -3 -11 -12 -11h-34c-9 0 -12 3 -12 11v114c0 4 -1 5 -5 5h-92c-9 0 -12 3 -12 12v26c0 6 0 9 5 18l105 206c3 6 7 8 14 8h31c9 0 12 -3 12 -11v-199c0 -4 1 -6 5 -6h3c9 0 12 -3 12 -11v-31
c0 -9 -3 -12 -12 -12h-3c-4 0 -5 -1 -5 -5v-114z" />
    <glyph glyph-name="oneeighth" unicode="&#x215b;" horiz-adv-x="473" 
d="M113 20l146 658c4 18 8 22 19 22h24c13 0 15 -8 12 -20l-146 -658c-4 -18 -8 -22 -19 -22h-24c-13 0 -15 8 -12 20zM90 694c1 1 3 6 10 6h36c8 0 11 -3 11 -11v-377c0 -8 -3 -11 -11 -11h-35c-8 0 -11 3 -11 11v268c0 4 -2 6 -6 6h-36c-6 0 -10 4 -6 12zM433 294v-5
c0 -40 -8 -67 -22 -84c14 -18 22 -45 22 -84v-14c0 -80 -32 -109 -83 -109c-52 0 -83 28 -83 109v14c0 39 7 66 21 84c-14 17 -21 44 -21 84v5c0 81 31 109 83 109c51 0 83 -29 83 -109zM375 121c0 29 0 58 -25 58c-26 0 -26 -29 -26 -58v-12c0 -29 0 -59 26 -59
c25 0 25 30 25 59v12zM375 292c0 29 0 59 -25 59c-26 0 -26 -30 -26 -59v-3c0 -29 0 -59 26 -59c25 0 25 30 25 59v3z" />
    <glyph glyph-name="twothirds" unicode="&#x2154;" horiz-adv-x="538" 
d="M182 20l146 658c4 18 8 22 19 22h24c13 0 15 -8 12 -20l-146 -658c-4 -18 -8 -22 -19 -22h-24c-13 0 -15 8 -12 20zM97 391v-25c0 -11 0 -11 12 -11h91c9 0 11 -3 11 -12v-31c0 -8 -2 -11 -11 -11h-148c-9 0 -12 3 -12 11v78c0 51 35 88 64 128c25 34 50 63 50 92
c0 10 -1 40 -29 40c-22 0 -28 -19 -28 -45c0 -9 -3 -12 -11 -12h-34c-9 0 -12 3 -12 12c0 49 27 97 85 97c61 0 83 -49 84 -85c2 -50 -32 -93 -61 -132c-27 -36 -51 -65 -51 -94zM498 107c0 -80 -38 -109 -85 -109c-44 0 -81 25 -86 93c0 9 3 16 12 16h34c8 0 11 -3 11 -11
v-4c0 -30 11 -42 29 -42c17 0 28 12 28 42v51c0 25 -3 41 -28 41h-8c-7 1 -9 4 -9 12v31c0 8 2 11 11 11h6c25 1 28 18 28 42v29c0 30 -11 42 -28 42c-18 0 -29 -12 -29 -42v-4c0 -8 -3 -11 -11 -11h-34c-9 0 -12 7 -12 16c5 68 42 93 86 93c47 0 85 -29 85 -109v-21
c0 -32 -6 -46 -18 -62c12 -16 18 -29 18 -61v-43z" />
    <glyph glyph-name="Euro" unicode="&#x20ac;" horiz-adv-x="400" 
d="M170 372c-8 0 -10 -2 -10 -10v-17c0 -8 2 -10 10 -10h49c15 0 20 -5 20 -20v-54c0 -15 -5 -20 -20 -20h-49c-8 0 -10 -2 -10 -10v-71c0 -52 19 -72 50 -72s50 20 50 72v7c0 15 5 20 20 20h59c15 0 21 -12 20 -29c-8 -117 -72 -162 -149 -162c-83 0 -150 52 -150 190v45
c0 8 -2 10 -10 10h-25c-15 0 -20 5 -20 20v54c0 15 5 20 20 20h25c8 0 10 2 10 10v17c0 8 -2 10 -10 10h-25c-15 0 -20 5 -20 20v54c0 15 5 20 20 20h25c8 0 10 2 10 10v38c0 138 67 190 150 190c77 0 141 -45 149 -162c1 -17 -5 -29 -20 -29h-59c-15 0 -20 5 -20 20v7
c0 52 -19 72 -50 72s-50 -20 -50 -72v-64c0 -8 2 -10 10 -10h49c15 0 20 -5 20 -20v-54c0 -15 -5 -20 -20 -20h-49z" />
    <glyph glyph-name="yen" unicode="&#xa5;" horiz-adv-x="350" 
d="M145 0c-15 0 -20 5 -20 20v31c0 8 -2 10 -10 10h-25c-15 0 -20 5 -20 20v54c0 15 5 20 20 20h25c8 0 10 2 10 10v1c0 8 -2 10 -10 10h-25c-15 0 -20 5 -20 20v54c0 15 5 20 20 20h25c-25 111 -93 410 -93 410c-3 13 0 20 13 20h64c18 0 19 -5 23 -20l48 -242
c1 -7 9 -7 10 0l48 242c4 15 5 20 23 20h64c13 0 16 -7 13 -20c0 0 -68 -299 -94 -410h26c15 0 20 -5 20 -20v-54c0 -15 -5 -20 -20 -20h-25c-8 0 -10 -2 -10 -10v-1c0 -8 2 -10 10 -10h25c15 0 20 -5 20 -20v-54c0 -15 -5 -20 -20 -20h-25c-8 0 -10 -2 -10 -10v-31
c0 -15 -5 -20 -20 -20h-60z" />
    <glyph glyph-name="hbar" unicode="&#x127;" horiz-adv-x="403" 
d="M258 20v316c0 60 -27 76 -54 76s-54 -16 -54 -76v-316c0 -15 -5 -20 -20 -20h-60c-15 0 -20 5 -20 20v531c0 8 -2 10 -10 10c-15 0 -20 5 -20 20v28c0 15 5 20 20 20c8 0 10 2 10 10v41c0 15 5 20 20 20h60c15 0 20 -5 20 -20v-41c0 -8 2 -10 10 -10h90
c15 0 20 -5 20 -20v-28c0 -15 -5 -20 -20 -20h-90c-8 0 -10 -2 -10 -10v-86c15 20 38 37 74 39c75 3 134 -47 134 -170v-314c0 -15 -5 -20 -20 -20h-60c-15 0 -20 5 -20 20z" />
    <glyph glyph-name="ae" unicode="&#xe6;" horiz-adv-x="577" 
d="M337 218v-54c0 -60 23 -76 50 -76c20 0 46 11 48 53c1 17 2 26 20 26h57c15 0 19 -5 20 -20c3 -57 -40 -151 -145 -151c-42 0 -87 16 -116 58c-31 -43 -72 -58 -107 -58c-72 0 -127 44 -127 133v44c0 110 95 122 155 144c30 11 45 26 45 50c0 23 -18 45 -45 45
c-25 0 -49 -21 -47 -59c1 -15 -4 -20 -20 -20h-56c-15 0 -19 5 -20 20c-3 83 61 151 143 151c36 0 70 -13 97 -37c28 26 64 37 98 37c71 0 150 -46 150 -184v-67c0 -16 -5 -20 -21 -20h-159c-13 0 -19 -4 -20 -15zM187 88c43 0 49 38 50 80v80c-54 -24 -100 -35 -100 -85v-8
c0 -15 0 -67 50 -67zM437 342c-1 55 -24 70 -50 70s-48 -15 -50 -70c0 -20 0 -20 20 -20h60c20 0 20 0 20 20z" />
    <glyph glyph-name="aeacute" unicode="&#x1fd;" horiz-adv-x="577" 
d="M337 213v-49c0 -60 23 -76 50 -76c20 0 46 11 48 53c1 17 2 26 20 26h57c15 0 19 -5 20 -20c3 -57 -40 -151 -145 -151c-42 0 -87 16 -116 58c-31 -43 -72 -58 -107 -58c-72 0 -127 44 -127 133v44c0 110 95 122 155 144c30 11 45 26 45 50c0 23 -18 45 -45 45
c-25 0 -49 -21 -47 -59c1 -15 -4 -20 -20 -20h-56c-15 0 -19 5 -20 20c-3 83 61 151 143 151c36 0 70 -13 97 -37c28 26 64 37 98 37c71 0 150 -46 150 -184v-67c0 -16 -5 -20 -21 -20h-159c-15 0 -20 -5 -20 -20zM187 88c43 0 49 38 50 80v80c-54 -24 -100 -35 -100 -85v-8
c0 -15 0 -67 50 -67zM365 663l-41 -93c-10 -21 -15 -21 -26 -21h-18c-13 0 -17 5 -17 21v87c0 17 6 21 21 21h73c8 0 12 -5 8 -15zM437 342c-1 55 -24 70 -50 70s-48 -15 -50 -70c0 -20 0 -20 20 -20h60c20 0 20 0 20 20z" />
    <glyph glyph-name="oslash" unicode="&#xf8;" horiz-adv-x="380" 
d="M340 320v-140c0 -129 -69 -177 -135 -183l-7 -60c-2 -15 -8 -22 -23 -22h-58c-15 0 -20 8 -19 20l10 84c-39 26 -68 76 -68 161v140c0 128 68 177 135 183l7 60c2 15 8 22 23 22h58c15 0 20 -8 19 -20l-11 -85c39 -26 69 -76 69 -160zM240 336c0 60 -23 76 -50 76
s-50 -16 -50 -76v-172c0 -60 23 -76 50 -76s50 16 50 76v172z" />
    <glyph glyph-name="OE" unicode="&#x152;" horiz-adv-x="551" 
d="M280 0c-7 0 -14 0 -18 7c-19 -7 -40 -11 -62 -11c-83 0 -160 52 -160 190v328c0 138 77 190 160 190c22 0 43 -4 62 -12c3 6 9 8 18 8h211c15 0 20 -5 20 -20v-54c0 -15 -5 -20 -20 -20h-111c-20 0 -20 0 -20 -20v-150c0 -20 0 -20 20 -20h111c15 0 20 -5 20 -20v-54
c0 -15 -5 -20 -20 -20h-111c-20 0 -20 0 -20 -20v-188c0 -20 0 -20 20 -20h111c15 0 20 -5 20 -20v-54c0 -15 -5 -20 -20 -20h-211zM260 152v395c-2 47 -30 65 -60 65c-31 0 -60 -20 -60 -72v-380c0 -52 29 -72 60 -72c30 0 58 18 60 64z" />
    <glyph glyph-name="AE" unicode="&#xc6;" horiz-adv-x="501" 
d="M230 0c-10 0 -20 0 -20 20v49c0 20 0 20 -20 20h-28c-20 0 -19 0 -23 -20l-9 -54c-3 -15 -9 -15 -22 -15h-60c-10 0 -20 0 -17 17l126 665c3 15 6 18 22 18h262c15 0 20 -5 20 -20v-54c0 -15 -5 -20 -20 -20h-111c-20 0 -20 0 -20 -20v-150c0 -20 0 -20 20 -20h111
c15 0 20 -5 20 -20v-54c0 -15 -5 -20 -20 -20h-111c-20 0 -20 0 -20 -20v-188c0 -20 0 -20 20 -20h111c15 0 20 -5 20 -20v-54c0 -15 -5 -20 -20 -20h-211zM161 203c-3 -20 -3 -20 17 -20h12c20 0 20 0 20 20v243c-1 5 -7 5 -8 0z" />
    <glyph glyph-name="Oslash" unicode="&#xd8;" horiz-adv-x="400" 
d="M360 514v-328c0 -127 -66 -181 -141 -189l-7 -61c-2 -15 -8 -22 -23 -22h-58c-15 0 -20 8 -19 20l10 80c-48 26 -82 80 -82 172v328c0 127 65 181 140 189l8 61c2 15 8 22 23 22h58c15 0 20 -8 19 -20l-10 -81c47 -25 82 -79 82 -171zM260 160v380c0 52 -29 72 -60 72
s-60 -20 -60 -72v-380c0 -52 29 -72 60 -72s60 20 60 72z" />
    <glyph glyph-name="approxequal" unicode="&#x2248;" horiz-adv-x="520" 
d="M245 413c-23 8 -46 16 -65 16c-42 0 -56 -25 -65 -40c-7 -12 -15 -11 -23 -7l-47 24c-9 5 -12 10 -8 21c17 48 60 87 120 87c41 0 80 -17 116 -31c24 -9 47 -17 67 -17c42 0 56 25 65 40c7 12 15 11 23 7l47 -24c9 -5 12 -10 8 -21c-17 -48 -60 -87 -120 -87
c-42 0 -82 18 -118 32zM245 256c-23 8 -46 16 -65 16c-42 0 -56 -25 -65 -40c-7 -12 -15 -11 -23 -7l-47 24c-9 5 -12 10 -8 21c17 48 60 87 120 87c41 0 80 -17 116 -31c24 -9 47 -17 67 -17c42 0 56 25 65 40c7 12 15 11 23 7l47 -24c9 -5 12 -10 8 -21
c-17 -48 -60 -87 -120 -87c-42 0 -82 18 -118 32z" />
    <glyph glyph-name="ij" unicode="&#x133;" horiz-adv-x="380" 
d="M70 0c-15 0 -20 5 -20 20v460c0 15 5 20 20 20h60c15 0 20 -5 20 -20v-460c0 -15 -5 -20 -20 -20h-60zM44 601c0 31 24 56 56 56c31 0 56 -25 56 -56c0 -32 -25 -56 -56 -56c-32 0 -56 24 -56 56zM196 -86c34 4 34 48 34 109v457c0 15 5 20 20 20h60c15 0 20 -5 20 -20
v-484c0 -137 -57 -176 -134 -176c-15 0 -20 5 -20 20v54c0 15 5 19 20 20zM224 601c0 31 24 56 56 56c31 0 56 -25 56 -56c0 -32 -25 -56 -56 -56c-32 0 -56 24 -56 56z" />
    <glyph glyph-name="quoteright" unicode="&#x2019;" horiz-adv-x="168" 
d="M25 643c0 31 25 57 56 57c67 0 98 -108 -6 -212c-5 -5 -8 -6 -14 -2l-19 14c-6 4 -7 7 -3 12c72 90 -14 66 -14 131z" />
    <glyph glyph-name="quoteleft" unicode="&#x2018;" horiz-adv-x="168" 
d="M143 555c0 -31 -25 -57 -56 -57c-67 0 -98 108 6 212c5 5 8 6 14 2l19 -14c6 -4 7 -7 3 -12c-72 -90 14 -66 14 -131z" />
    <glyph glyph-name="oe" unicode="&#x153;" horiz-adv-x="562" 
d="M332 141c0 -33 20 -53 47 -53c22 0 48 18 47 53c0 17 2 26 20 26h55c15 0 19 -5 20 -20c3 -83 -62 -151 -144 -151c-35 0 -68 12 -94 35c-26 -23 -60 -35 -95 -35h-4c-75 0 -144 58 -144 154v200c0 96 70 154 145 154h2c35 0 69 -13 96 -36c26 23 60 36 95 36
c82 0 146 -68 143 -154v-97c0 -15 -5 -20 -20 -20h-149c-15 0 -20 -5 -20 -20v-72zM186 88c27 0 47 20 47 53v218c0 33 -20 53 -47 53s-47 -20 -47 -53v-218c0 -33 20 -53 47 -53zM426 342v17c1 35 -25 53 -47 53c-27 0 -47 -20 -47 -53v-17c0 -20 0 -20 20 -20h54
c20 0 20 0 20 20z" />
    <glyph glyph-name="divide" unicode="&#xf7;" horiz-adv-x="370" 
d="M128 219c0 31 25 57 56 57s57 -26 57 -57s-26 -56 -57 -56s-56 25 -56 56zM128 522c0 31 25 57 56 57s57 -26 57 -57s-26 -56 -57 -56s-56 25 -56 56zM35 396c0 15 5 20 20 20h260c15 0 20 -5 20 -20v-54c0 -15 -5 -20 -20 -20h-260c-15 0 -20 5 -20 20v54z" />
    <glyph glyph-name="onedotenleader" unicode="&#x2024;" horiz-adv-x="153" 
d="M30 56c0 31 25 57 56 57s57 -26 57 -57s-26 -56 -57 -56s-56 25 -56 56z" />
    <glyph glyph-name="twodotenleader" unicode="&#x2025;" horiz-adv-x="306" 
d="M30 56c0 31 25 57 56 57s57 -26 57 -57s-26 -56 -57 -56s-56 25 -56 56zM183 56c0 31 25 57 56 57s57 -26 57 -57s-26 -56 -57 -56s-56 25 -56 56z" />
    <glyph glyph-name="ellipsis" unicode="&#x2026;" horiz-adv-x="459" 
d="M30 56c0 32 25 57 56 57c32 0 57 -25 57 -57c0 -31 -25 -56 -57 -56c-31 0 -56 25 -56 56zM183 56c0 32 25 57 56 57c32 0 57 -25 57 -57c0 -31 -25 -56 -57 -56c-31 0 -56 25 -56 56zM336 56c0 32 25 57 56 57c32 0 57 -25 57 -57c0 -31 -25 -56 -57 -56
c-31 0 -56 25 -56 56z" />
    <glyph glyph-name="sterling" unicode="&#xa3;" horiz-adv-x="326" 
d="M70 0c-15 0 -20 5 -20 20v292c0 8 -2 10 -10 10c-15 0 -20 5 -20 20v54c0 15 5 20 20 20c8 0 10 2 10 10v4c0 178 69 256 170 268c23 3 23 -4 25 -17l9 -60c1 -9 -1 -15 -10 -16c-60 -7 -94 -62 -94 -169v-10c0 -8 2 -10 10 -10h69c15 0 20 -5 20 -20v-54
c0 -15 -5 -20 -20 -20h-69c-8 0 -10 -2 -10 -10v-191c0 -21 0 -21 21 -21h110c15 0 20 -5 20 -20v-60c0 -15 -5 -20 -20 -20h-211z" />
    <glyph glyph-name="lira" unicode="&#x20a4;" horiz-adv-x="321" 
d="M50 20v292c0 8 -2 10 -10 10c-15 0 -20 5 -20 20v54c0 15 5 20 20 20c7 0 10 2 10 10v5c0 7 -3 10 -10 10c-15 0 -20 5 -20 20v54c0 15 5 20 20 20c8 0 10 2 10 10v135c0 15 5 20 20 20h60c15 0 20 -5 20 -20v-135c0 -8 2 -10 10 -10h121c15 0 20 -5 20 -20v-54
c0 -15 -5 -20 -20 -20h-121c-8 0 -10 -2 -10 -10v-5c0 -8 2 -10 10 -10h121c15 0 20 -5 20 -20v-54c0 -15 -5 -20 -20 -20h-121c-8 0 -10 -2 -10 -10v-191c0 -21 0 -21 21 -21h110c15 0 20 -5 20 -20v-60c0 -15 -5 -20 -20 -20h-211c-15 0 -20 5 -20 20z" />
    <glyph glyph-name="cent" unicode="&#xa2;" horiz-adv-x="368" 
d="M155 -71c-15 0 -20 5 -20 20v57c-60 18 -95 72 -95 185v118c0 112 35 167 95 184v58c0 15 5 20 20 20h60c15 0 20 -5 20 -20v-58c65 -19 93 -78 93 -169c0 -15 -5 -20 -20 -20h-58c-15 0 -20 5 -20 20c0 33 1 87 -45 87c-45 0 -45 -52 -45 -102v-118
c0 -50 0 -102 45 -102c46 0 45 54 45 87c0 15 5 20 20 20h58c15 0 20 -5 20 -20c0 -91 -28 -151 -93 -170v-57c0 -15 -5 -20 -20 -20h-60z" />
    <glyph glyph-name="Hbar" unicode="&#x126;" horiz-adv-x="400" 
d="M70 0c-10 0 -20 0 -20 20v488c0 7 -3 10 -10 10c-15 0 -20 5 -20 20v54c0 15 5 20 20 20c7 0 10 3 10 10v58c0 15 5 20 20 20h60c15 0 20 -5 20 -20v-58c0 -7 3 -10 10 -10h80c7 0 10 3 10 10v58c0 15 5 20 20 20h60c15 0 20 -5 20 -20v-58c0 -7 3 -10 10 -10
c15 0 20 -5 20 -20v-54c0 -15 -5 -20 -20 -20c-7 0 -10 -3 -10 -10v-488c0 -20 -10 -20 -20 -20h-60c-10 0 -20 0 -20 20v282c0 20 0 20 -20 20h-60c-20 0 -20 0 -20 -20v-282c0 -20 -10 -20 -20 -20h-60zM230 401c20 0 20 0 20 20v87c0 7 -3 10 -10 10h-80
c-7 0 -10 -3 -10 -10v-87c0 -20 0 -20 20 -20h60z" />
    <glyph glyph-name="Ldot" unicode="&#x13f;" horiz-adv-x="316" 
d="M179 472c0 31 25 56 56 56s56 -25 56 -56s-25 -56 -56 -56s-56 25 -56 56zM70 0c-15 0 -20 5 -20 20v660c0 15 5 20 20 20h60c15 0 20 -5 20 -20v-565c0 -21 0 -21 21 -21h110c15 0 20 -5 20 -20v-54c0 -15 -5 -20 -20 -20h-211z" />
    <glyph glyph-name="section" unicode="&#xa7;" horiz-adv-x="362" 
d="M51 370c-3 44 17 81 48 105c-26 24 -45 54 -48 95c-5 77 60 134 130 134c69 0 133 -57 133 -137c0 -15 -5 -20 -20 -20h-52c-14 0 -20 4 -20 24c0 25 -17 43 -40 43c-22 0 -39 -18 -39 -40c-1 -74 194 -110 183 -247c-2 -32 -18 -65 -44 -91c28 -28 48 -63 44 -109
c-5 -62 -59 -131 -145 -131c-93 0 -146 81 -146 140c0 15 5 20 20 20h58c15 0 20 -5 20 -20c0 -30 25 -48 48 -48c22 0 47 18 48 48c4 90 -170 107 -178 234zM143 374c0 -29 29 -52 65 -78c12 8 21 22 21 40c2 33 -21 55 -50 78c-20 -2 -36 -19 -36 -40z" />
    <glyph glyph-name="threequarters" unicode="&#xbe;" horiz-adv-x="510" 
d="M165 20l146 658c4 18 8 22 19 22h24c13 0 15 -8 12 -20l-146 -658c-4 -18 -8 -22 -19 -22h-24c-13 0 -15 8 -12 20zM388 271l-42 -81c-2 -4 -1 -6 3 -6h38c4 0 5 2 5 6v81c0 3 -2 4 -4 0zM450 11c0 -8 -3 -11 -12 -11h-34c-9 0 -12 3 -12 11v114c0 4 -1 5 -5 5h-92
c-9 0 -12 3 -12 12v26c0 6 0 9 5 18l105 206c3 6 7 8 14 8h31c9 0 12 -3 12 -11v-199c0 -4 1 -6 5 -6h3c9 0 12 -3 12 -11v-31c0 -9 -3 -12 -12 -12h-3c-4 0 -5 -1 -5 -5v-114zM211 406c0 -79 -38 -108 -85 -108c-44 0 -81 25 -86 92c0 10 3 17 12 17h34c8 0 11 -3 11 -12
v-4c0 -29 11 -41 29 -41c17 0 28 12 28 41v51c0 25 -3 42 -28 42h-8c-7 1 -9 3 -9 11v31c0 9 2 12 11 12h6c25 1 28 17 28 41v30c0 29 -11 41 -28 41c-18 0 -29 -12 -29 -41v-4c0 -9 -3 -12 -11 -12h-34c-9 0 -12 7 -12 17c5 67 42 92 86 92c47 0 85 -29 85 -108v-21
c0 -32 -6 -46 -18 -62c12 -16 18 -30 18 -61v-44z" />
    <glyph glyph-name="ampersand" unicode="&#x26;" horiz-adv-x="418" 
d="M240 292c0 15 5 20 20 20h123c15 0 20 -5 20 -20v-18c0 -15 -5 -20 -20 -20h-34c-7 0 -10 -3 -10 -10c0 -35 1 -75 -2 -106c-9 -79 -47 -142 -147 -142c-98 0 -148 48 -150 189v77c0 55 12 79 32 107c-20 28 -32 52 -32 108v37c0 141 52 190 150 190
c115 0 149 -88 149 -184c0 -15 -5 -20 -20 -20h-59c-15 0 -20 5 -20 20c0 45 -6 92 -50 92c-50 0 -50 -52 -50 -103v-20c1 -42 6 -73 50 -73h10c15 0 20 -5 20 -20v-54c0 -14 -5 -20 -16 -20h-14c-44 0 -49 -29 -50 -73v-59c0 -51 0 -102 50 -102c39 0 48 36 50 75v129z" />
    <glyph glyph-name="paragraph" unicode="&#xb6;" horiz-adv-x="712" 
d="M507 -293c-10 0 -20 0 -20 20v859c0 15 -5 20 -20 20h-60c-15 0 -20 -5 -20 -20v-859c0 -20 -10 -20 -20 -20h-60c-10 0 -20 0 -20 20v520c0 33 0 33 -33 33h-11c-113 0 -208 92 -208 210c0 114 85 210 194 210h428c15 0 20 -5 20 -20v-54c0 -15 -5 -20 -20 -20h-41
c-29 0 -29 -2 -29 -33v-846c0 -20 -10 -20 -20 -20h-60z" />
    <glyph glyph-name="nine" unicode="9" horiz-adv-x="400" 
d="M179 255c-72 -2 -129 51 -129 170v95c0 138 79 184 150 184s150 -46 150 -184v-334c0 -138 -67 -190 -150 -190c-77 0 -141 45 -149 162c-1 17 5 29 20 29h59c15 0 20 -5 20 -20v-7c0 -52 19 -72 50 -72s50 20 50 72v126c-18 -17 -39 -30 -71 -31zM200 347
c27 0 50 16 50 76v113c0 60 -23 76 -50 76s-50 -16 -50 -76v-113c0 -60 23 -76 50 -76z" />
    <glyph glyph-name="dcaron" unicode="&#x10f;" horiz-adv-x="531" 
d="M248 164v172c0 60 -27 76 -54 76s-54 -16 -54 -76v-172c0 -60 27 -76 54 -76s54 16 54 76zM328 0h-60c-15 0 -20 5 -20 20v13c-15 -20 -38 -35 -74 -37c-75 -3 -134 47 -134 170v168c0 123 59 173 134 170c36 -2 59 -18 74 -38v214c0 15 5 20 20 20h60c15 0 20 -5 20 -20
v-660c0 -15 -5 -20 -20 -20zM388 693c0 31 25 57 56 57c67 0 98 -108 -6 -212c-5 -5 -8 -6 -14 -2l-19 14c-6 4 -7 7 -3 12c72 90 -14 66 -14 131z" />
    <glyph glyph-name="lcaron" unicode="&#x13e;" horiz-adv-x="323" 
d="M45 200v480c0 15 5 20 20 20h60c15 0 20 -5 20 -20v-482c0 -61 0 -103 54 -104c15 -1 20 -5 20 -20v-54c0 -15 -5 -20 -20 -20c-114 0 -154 49 -154 200zM185 694c0 31 25 57 56 57c67 0 98 -108 -6 -212c-5 -5 -8 -6 -14 -2l-19 14c-6 4 -7 7 -3 12
c72 90 -14 66 -14 131z" />
    <glyph glyph-name="ninesuperior" unicode="&#x2079;" horiz-adv-x="222" 
d="M103 519c-30 0 -53 21 -53 69v39c0 56 32 75 61 75s61 -19 61 -75v-136c0 -56 -27 -77 -61 -77c-31 0 -57 19 -60 66c-1 7 2 12 8 12h24c6 0 8 -2 8 -8v-3c0 -21 8 -29 20 -29c13 0 20 8 20 29v51c-7 -7 -15 -12 -28 -13zM111 557c11 0 20 6 20 31v45c0 25 -9 31 -20 31
s-20 -6 -20 -31v-45c0 -25 9 -31 20 -31z" />
    <glyph glyph-name="exclamdbl" unicode="&#x203c;" horiz-adv-x="362" 
d="M80 157c-15 0 -20 5 -20 20l-5 503c0 15 5 20 20 20h60c15 0 20 -5 20 -20l-5 -503c0 -15 -5 -20 -20 -20h-50zM50 56c0 32 25 57 56 57c32 0 57 -25 57 -57c0 -31 -25 -56 -57 -56c-31 0 -56 25 -56 56zM229 157c-15 0 -20 5 -20 20l-5 503c0 15 5 20 20 20h60
c15 0 20 -5 20 -20l-5 -503c0 -15 -5 -20 -20 -20h-50zM199 56c0 32 25 57 56 57c32 0 57 -25 57 -57c0 -31 -25 -56 -57 -56c-31 0 -56 25 -56 56z" />
    <glyph glyph-name="quotesinglbase" unicode="&#x201a;" horiz-adv-x="168" 
d="M25 56c0 31 25 57 56 57c67 0 98 -108 -6 -212c-5 -5 -8 -6 -14 -2l-19 14c-6 4 -7 7 -3 12c72 90 -14 66 -14 131z" />
    <glyph glyph-name="O" unicode="O" horiz-adv-x="400" 
d="M360 514v-328c0 -138 -77 -190 -160 -190s-160 52 -160 190v328c0 138 77 190 160 190s160 -52 160 -190zM260 160v380c0 52 -29 72 -60 72s-60 -20 -60 -72v-380c0 -52 29 -72 60 -72s60 20 60 72z" />
    <glyph glyph-name="ordfeminine" unicode="&#xaa;" horiz-adv-x="245" 
d="M205 614v-159c1 -12 3 -21 4 -28c2 -8 -2 -11 -11 -11h-32c-8 0 -10 2 -12 17c0 0 -18 -19 -47 -19c-41 0 -72 25 -72 75v25c0 62 54 69 88 81c17 7 25 15 25 29c0 13 -10 25 -25 25c-14 0 -28 -12 -27 -33c1 -9 -2 -12 -11 -12h-32c-8 0 -11 3 -11 12c-2 47 34 85 81 85
c42 0 82 -33 82 -87zM120 466c24 0 28 21 28 45v45c-30 -13 -56 -19 -56 -48v-4c0 -9 0 -38 28 -38z" />
    <glyph glyph-name="ordmasculine" unicode="&#xba;" horiz-adv-x="240" 
d="M205 598v-80c0 -78 -45 -104 -85 -104s-85 26 -85 104v80c0 78 45 104 85 104s85 -26 85 -104zM149 607c0 34 -14 43 -29 43s-28 -9 -28 -43v-98c0 -34 13 -43 28 -43s29 9 29 43v98z" />
    <glyph glyph-name="germandbls" unicode="&#xdf;" horiz-adv-x="409" 
d="M145 -95c0 -15 -5 -20 -20 -20h-60c-15 0 -20 5 -20 20v577c0 184 74 222 150 222c70 0 150 -49 150 -159c0 -87 -75 -141 -75 -195c0 -74 114 -72 114 -188c0 -68 -40 -133 -137 -165c-18 -6 -21 1 -25 11l-18 48c-4 11 -4 22 14 28c39 13 71 32 71 77
c0 79 -117 75 -117 189c0 86 73 119 73 194c0 18 -1 68 -47 68c-50 0 -53 -67 -53 -209v-498z" />
    <glyph glyph-name="bullet" unicode="&#x2022;" horiz-adv-x="271" 
d="M135 268c-55 0 -100 45 -100 100c0 56 45 101 100 101c56 0 101 -45 101 -101c0 -55 -45 -100 -101 -100z" />
    <glyph glyph-name="periodcentered" unicode="&#xb7;" horiz-adv-x="183" 
d="M35 369c0 32 25 57 56 57c32 0 57 -25 57 -57c0 -31 -25 -56 -57 -56c-31 0 -56 25 -56 56z" />
    <glyph glyph-name="degree" unicode="&#xb0;" horiz-adv-x="271" 
d="M135 500c-55 0 -100 45 -100 100c0 56 45 101 100 101c56 0 101 -45 101 -101c0 -55 -45 -100 -101 -100zM92 600c0 -24 19 -43 43 -43c25 0 44 19 44 43c0 25 -19 44 -44 44c-24 0 -43 -19 -43 -44z" />
    <glyph glyph-name="guilsinglleft" unicode="&#x2039;" horiz-adv-x="215" 
d="M39 239c-5 7 -5 16 0 22l123 150c9 11 18 4 18 -5v-73c0 -9 0 -11 -10 -23l-44 -54c-3 -4 -3 -8 0 -12l44 -54c10 -12 10 -14 10 -23v-73c0 -9 -9 -16 -18 -5z" />
    <glyph glyph-name="guilsinglright" unicode="&#x203a;" horiz-adv-x="215" 
d="M176 239l-123 -150c-9 -11 -18 -4 -18 5v73c0 9 0 11 10 23l44 54c3 4 3 8 0 12l-44 54c-10 12 -10 14 -10 23v73c0 9 9 16 18 5l123 -150c5 -6 5 -15 0 -22z" />
    <glyph glyph-name="less" unicode="&#x3c;" horiz-adv-x="268" 
d="M127 362l95 -70c8 -6 11 -11 11 -20v-65c0 -9 -8 -14 -16 -8l-176 128c-5 4 -6 10 -6 16v52c0 6 1 12 6 16l176 128c8 6 16 1 16 -8v-65c0 -9 -3 -14 -11 -20l-95 -70c-6 -4 -6 -9 0 -14z" />
    <glyph glyph-name="greater" unicode="&#x3e;" horiz-adv-x="268" 
d="M46 292l95 70c6 5 6 10 0 14l-95 70c-8 6 -11 11 -11 20v65c0 9 8 14 16 8l176 -128c5 -4 6 -10 6 -16v-52c0 -6 -1 -12 -6 -16l-176 -128c-8 -6 -16 -1 -16 8v65c0 9 3 14 11 20z" />
    <glyph glyph-name="adieresis" unicode="&#xe4;" horiz-adv-x="382" 
d="M337 350v-281c1 -21 5 -37 8 -49c3 -15 -5 -20 -20 -20h-56c-14 0 -19 3 -22 30c0 0 -32 -34 -83 -34c-72 0 -127 44 -127 133v44c0 110 95 122 155 144c30 11 45 26 45 50c0 23 -18 45 -45 45c-25 0 -49 -21 -47 -59c1 -15 -4 -20 -20 -20h-56c-15 0 -19 5 -20 20
c-3 83 61 151 143 151c75 0 145 -58 145 -154zM187 88c43 0 49 38 50 80v80c-54 -24 -100 -35 -100 -85v-8c0 -15 0 -67 50 -67zM71 601c0 31 25 56 56 56s56 -25 56 -56s-25 -56 -56 -56s-56 25 -56 56zM205 601c0 31 25 56 56 56s56 -25 56 -56s-25 -56 -56 -56
s-56 25 -56 56z" />
    <glyph glyph-name="edieresis" unicode="&#xeb;" horiz-adv-x="380" 
d="M240 342c-1 55 -24 70 -50 70s-48 -15 -50 -70c0 -20 0 -20 20 -20h60c20 0 20 0 20 20zM140 213v-49c0 -60 23 -76 50 -76c20 0 46 11 48 53c1 17 2 26 20 26h57c15 0 19 -5 20 -20c3 -57 -40 -151 -145 -151c-71 0 -150 46 -150 184v140c0 138 79 184 150 184
s150 -46 150 -184v-67c0 -16 -5 -20 -21 -20h-159c-15 0 -20 -5 -20 -20zM68 601c0 31 25 56 56 56s56 -25 56 -56s-25 -56 -56 -56s-56 25 -56 56zM202 601c0 31 25 56 56 56s56 -25 56 -56s-25 -56 -56 -56s-56 25 -56 56z" />
    <glyph glyph-name="odieresis" unicode="&#xf6;" horiz-adv-x="380" 
d="M340 320v-140c0 -138 -79 -184 -150 -184s-150 46 -150 184v140c0 138 79 184 150 184s150 -46 150 -184zM240 336c0 60 -23 76 -50 76s-50 -16 -50 -76v-172c0 -60 23 -76 50 -76s50 16 50 76v172zM67 601c0 31 25 56 56 56s56 -25 56 -56s-25 -56 -56 -56
s-56 25 -56 56zM201 601c0 31 25 56 56 56s56 -25 56 -56s-25 -56 -56 -56s-56 25 -56 56z" />
    <glyph glyph-name="ydieresis" unicode="&#xff;" horiz-adv-x="352" 
d="M172 161c1 -5 7 -5 8 0l52 324c3 15 9 15 22 15h60c10 0 20 0 17 -17l-99 -495c-28 -145 -78 -168 -154 -168c-15 0 -20 5 -20 20v54c0 15 5 20 20 20c54 1 47 50 42 77l-99 492c-3 17 7 17 17 17h60c13 0 20 0 22 -15zM54 601c0 31 25 56 56 56s56 -25 56 -56
s-25 -56 -56 -56s-56 25 -56 56zM188 601c0 31 25 56 56 56s56 -25 56 -56s-25 -56 -56 -56s-56 25 -56 56z" />
    <glyph glyph-name="wdieresis" unicode="&#x1e85;" horiz-adv-x="554" 
d="M456 500h60c10 0 20 0 17 -17l-93 -465c-3 -15 -6 -18 -22 -18h-39c-16 0 -18 3 -22 18l-76 278c-1 5 -7 5 -8 0l-76 -278c-4 -15 -6 -18 -22 -18h-39c-16 0 -19 3 -22 18l-93 465c-3 17 7 17 17 17h60c13 0 19 0 22 -15l44 -257c1 -5 7 -5 8 0l70 257c4 12 9 15 20 15
h30c11 0 16 -3 20 -15l70 -257c1 -5 7 -5 8 0l44 257c3 15 9 15 22 15zM154 601c0 31 25 56 56 56s56 -25 56 -56s-25 -56 -56 -56s-56 25 -56 56zM288 601c0 31 25 56 56 56s56 -25 56 -56s-25 -56 -56 -56s-56 25 -56 56z" />
    <glyph glyph-name="hungarumlaut" unicode="&#x2dd;" horiz-adv-x="278" 
d="M38 735c-7 0 -10 3 -10 10v98c0 17 6 21 21 21h59c15 0 20 -8 13 -27l-30 -85c-5 -15 -7 -17 -17 -17h-36zM164 735c-7 0 -10 3 -10 10v98c0 17 6 21 21 21h59c15 0 20 -8 13 -27l-30 -85c-5 -15 -7 -17 -17 -17h-36z" />
    <glyph glyph-name="ohungarumlaut" unicode="&#x151;" horiz-adv-x="380" 
d="M340 320v-140c0 -138 -79 -184 -150 -184s-150 46 -150 184v140c0 138 79 184 150 184s150 -46 150 -184zM240 336c0 60 -23 76 -50 76s-50 -16 -50 -76v-172c0 -60 23 -76 50 -76s50 16 50 76v172zM106 549c-7 0 -10 3 -10 10v98c0 17 6 21 21 21h59c15 0 20 -8 13 -27
l-30 -85c-5 -15 -7 -17 -17 -17h-36zM232 549c-7 0 -10 3 -10 10v98c0 17 6 21 21 21h59c15 0 20 -8 13 -27l-30 -85c-5 -15 -7 -17 -17 -17h-36z" />
    <glyph glyph-name="Ohungarumlaut" unicode="&#x150;" horiz-adv-x="400" 
d="M360 514v-328c0 -138 -77 -190 -160 -190s-160 52 -160 190v328c0 138 77 190 160 190s160 -52 160 -190zM260 160v380c0 52 -29 72 -60 72s-60 -20 -60 -72v-380c0 -52 29 -72 60 -72s60 20 60 72zM121 735c-7 0 -10 3 -10 10v98c0 17 6 21 21 21h59c15 0 20 -8 13 -27
l-30 -85c-5 -15 -7 -17 -17 -17h-36zM247 735c-7 0 -10 3 -10 10v98c0 17 6 21 21 21h59c15 0 20 -8 13 -27l-30 -85c-5 -15 -7 -17 -17 -17h-36z" />
    <glyph glyph-name="Uhungarumlaut" unicode="&#x170;" horiz-adv-x="410" 
d="M265 680c0 15 5 20 20 20h60c15 0 20 -5 20 -20v-494c0 -138 -77 -190 -160 -190s-160 52 -160 190v494c0 15 5 20 20 20h60c15 0 20 -5 20 -20v-520c0 -52 29 -72 60 -72s60 20 60 72v520zM122 735c-7 0 -10 3 -10 10v98c0 17 6 21 21 21h59c15 0 20 -8 13 -27l-30 -85
c-5 -15 -7 -17 -17 -17h-36zM248 735c-7 0 -10 3 -10 10v98c0 17 6 21 21 21h59c15 0 20 -8 13 -27l-30 -85c-5 -15 -7 -17 -17 -17h-36z" />
    <glyph glyph-name="uhungarumlaut" unicode="&#x171;" horiz-adv-x="403" 
d="M145 164c0 -60 27 -76 54 -76s54 16 54 76v316c0 15 5 20 20 20h60c15 0 20 -5 20 -20v-460c0 -15 -5 -20 -20 -20h-57c-15 0 -20 5 -20 20v19c-15 -22 -39 -41 -77 -43c-75 -3 -134 47 -134 170v314c0 15 5 20 20 20h60c15 0 20 -5 20 -20v-316zM118 549
c-7 0 -10 3 -10 10v98c0 17 6 21 21 21h59c15 0 20 -8 13 -27l-30 -85c-5 -15 -7 -17 -17 -17h-36zM244 549c-7 0 -10 3 -10 10v98c0 17 6 21 21 21h59c15 0 20 -8 13 -27l-30 -85c-5 -15 -7 -17 -17 -17h-36z" />
    <glyph glyph-name="exclamdown" unicode="&#xa1;" horiz-adv-x="213" 
d="M91 343h30c10 0 19 0 20 -20l15 -503c0 -15 -5 -20 -20 -20h-60c-15 0 -20 5 -20 20l15 503c1 20 10 20 20 20zM50 444c0 31 25 56 56 56c32 0 57 -25 57 -56c0 -32 -25 -57 -57 -57c-31 0 -56 25 -56 57z" />
    <glyph glyph-name="exclam" unicode="!" horiz-adv-x="213" 
d="M80 157c-15 0 -20 5 -20 20l-5 503c0 15 5 20 20 20h60c15 0 20 -5 20 -20l-5 -503c0 -15 -5 -20 -20 -20h-50zM50 56c0 32 25 57 56 57c32 0 57 -25 57 -57c0 -31 -25 -56 -57 -56c-31 0 -56 25 -56 56z" />
    <glyph glyph-name="questiondown" unicode="&#xbf;" horiz-adv-x="370" 
d="M230 306c-3 -146 -95 -208 -95 -349c0 -20 1 -70 51 -70c45 0 49 43 49 92c0 15 5 20 20 20h60c15 0 20 -5 20 -20c0 -108 -42 -184 -149 -184c-100 0 -151 71 -151 161c0 155 102 202 105 351v15c0 20 10 20 20 20h50c10 0 20 0 20 -20v-16zM241 443
c0 -32 -25 -57 -56 -57c-32 0 -57 25 -57 57c0 31 25 56 57 56c31 0 56 -25 56 -56z" />
    <glyph glyph-name="dcroat" unicode="&#x111;" horiz-adv-x="398" 
d="M328 0h-60c-15 0 -20 5 -20 20v13c-15 -20 -38 -35 -74 -37c-75 -3 -134 47 -134 170v168c0 123 59 173 134 170c36 -2 59 -18 74 -38v85c0 8 -2 10 -10 10h-90c-15 0 -20 5 -20 20v28c0 15 5 20 20 20h90c8 0 10 2 10 10v41c0 15 5 20 20 20h60c15 0 20 -5 20 -20v-41
c0 -8 2 -10 10 -10c15 0 20 -5 20 -20v-28c0 -15 -5 -20 -20 -20c-8 0 -10 -2 -10 -10v-531c0 -15 -5 -20 -20 -20zM248 164v172c0 60 -27 76 -54 76s-54 -16 -54 -76v-172c0 -60 27 -76 54 -76s54 16 54 76z" />
    <glyph glyph-name="dagger" unicode="&#x2020;" horiz-adv-x="370" 
d="M155 -292c-15 0 -20 5 -20 20v713c0 7 -3 10 -10 10h-70c-15 0 -20 5 -20 20v54c0 15 5 20 20 20h70c7 0 10 3 10 10v126c0 15 5 20 20 20h60c15 0 20 -5 20 -20v-126c0 -7 3 -10 10 -10h70c15 0 20 -5 20 -20v-54c0 -15 -5 -20 -20 -20h-70c-6 0 -10 -2 -10 -8v-715
c0 -15 -5 -20 -20 -20h-60z" />
    <glyph glyph-name="Dcroat" unicode="&#x110;" horiz-adv-x="390" 
d="M70 700h123c82 -2 157 -54 157 -190v-320c0 -138 -77 -190 -160 -190h-120c-15 0 -20 5 -20 20v376c0 7 -3 10 -10 10c-15 0 -20 5 -20 20v54c0 15 5 20 20 20c7 0 10 3 10 10v170c0 15 5 20 20 20zM190 94c31 0 60 20 60 72v368c0 50 -27 70 -57 72h-23
c-20 0 -20 0 -20 -20v-76c0 -6 2 -10 10 -10h25c15 0 20 -5 20 -20v-54c0 -15 -5 -20 -20 -20h-25c-7 0 -10 -3 -10 -10v-281c0 -21 0 -21 20 -21h20z" />
    <glyph glyph-name="hcircumflex" unicode="&#x125;" horiz-adv-x="403" 
d="M258 20v316c0 60 -27 76 -54 76s-54 -16 -54 -76v-316c0 -15 -5 -20 -20 -20h-60c-15 0 -20 5 -20 20v660c0 15 5 20 20 20h60c15 0 20 -5 20 -20v-215c15 20 38 37 74 39c75 3 134 -47 134 -170v-314c0 -15 -5 -20 -20 -20h-60c-15 0 -20 5 -20 20zM114 746l-9 56
c-1 5 -7 5 -8 0l-9 -56c-2 -10 -5 -11 -13 -11h-61c-9 0 -12 8 -6 18l64 104c5 7 8 7 15 7h28c7 0 10 0 15 -7l64 -104c6 -10 3 -18 -6 -18h-61c-8 0 -11 1 -13 11z" />
    <glyph glyph-name="udieresis" unicode="&#xfc;" horiz-adv-x="403" 
d="M145 164c0 -60 27 -76 54 -76s54 16 54 76v316c0 15 5 20 20 20h60c15 0 20 -5 20 -20v-460c0 -15 -5 -20 -20 -20h-57c-15 0 -20 5 -20 20v19c-15 -22 -39 -41 -77 -43c-75 -3 -134 47 -134 170v314c0 15 5 20 20 20h60c15 0 20 -5 20 -20v-316zM79 601
c0 31 25 56 56 56s56 -25 56 -56s-25 -56 -56 -56s-56 25 -56 56zM213 601c0 31 25 56 56 56s56 -25 56 -56s-25 -56 -56 -56s-56 25 -56 56z" />
    <glyph glyph-name="thorn" unicode="&#xfe;" horiz-adv-x="398" 
d="M150 164c0 -60 27 -76 54 -76s54 16 54 76v172c0 60 -27 76 -54 76s-54 -16 -54 -76v-172zM70 700h60c10 0 20 0 20 -20v-213c15 20 38 35 74 37c75 3 134 -47 134 -170v-168c0 -123 -59 -173 -134 -170c-36 2 -59 18 -74 38v-194c0 -15 -5 -20 -20 -20h-60
c-15 0 -20 5 -20 20v840c0 20 10 20 20 20z" />
    <glyph glyph-name="Gcommaaccent" unicode="&#x122;" horiz-adv-x="400" 
d="M140 160c0 -52 29 -72 60 -72s60 20 60 72v142c0 20 0 20 -20 20h-8c-16 0 -20 4 -20 20v54c0 15 4 20 20 20h108c15 0 20 -5 20 -20v-210c0 -115 -57 -190 -160 -190c-83 0 -160 52 -160 190v328c0 138 77 190 160 190c78 0 150 -46 159 -165c1 -14 -5 -26 -20 -26h-59
c-15 0 -20 5 -20 20v7c0 52 -29 72 -60 72s-60 -20 -60 -72v-380zM143 -88c0 31 25 57 56 57c67 0 98 -108 -6 -212c-5 -5 -8 -6 -14 -2l-19 14c-6 4 -7 7 -3 12c72 90 -14 66 -14 131z" />
    <glyph glyph-name="IJ" unicode="&#x132;" horiz-adv-x="419" 
d="M150 20c0 -15 -5 -20 -20 -20h-60c-15 0 -20 5 -20 20v660c0 15 5 20 20 20h60c15 0 20 -5 20 -20v-660zM210 94c64 4 64 43 64 104v482c0 15 5 20 20 20h60c15 0 20 -5 20 -20v-480c0 -151 -50 -200 -164 -200c-15 0 -20 5 -20 20v54c0 15 5 19 20 20z" />
    <glyph glyph-name="Kcommaaccent" unicode="&#x136;" horiz-adv-x="381" 
d="M150 20c0 -15 -5 -20 -20 -20h-60c-15 0 -20 5 -20 20v660c0 15 5 20 20 20h60c15 0 20 -5 20 -20v-243c0 -5 5 -7 8 -1l105 244c8 18 14 20 29 20h59c15 0 17 -9 12 -20l-108 -249c-2 -5 -3 -7 0 -18l108 -393c3 -11 0 -20 -15 -20h-59c-15 0 -22 5 -26 20l-77 279
c-1 4 -6 5 -8 0l-24 -56c-3 -7 -4 -14 -4 -24v-199zM146 -88c0 31 25 57 56 57c67 0 98 -108 -6 -212c-5 -5 -8 -6 -14 -2l-19 14c-6 4 -7 7 -3 12c72 90 -14 66 -14 131z" />
    <glyph glyph-name="Lcommaaccent" unicode="&#x13b;" horiz-adv-x="316" 
d="M70 0c-15 0 -20 5 -20 20v660c0 15 5 20 20 20h60c15 0 20 -5 20 -20v-565c0 -21 0 -21 21 -21h110c15 0 20 -5 20 -20v-54c0 -15 -5 -20 -20 -20h-211zM120 -88c0 31 25 57 56 57c67 0 98 -108 -6 -212c-5 -5 -8 -6 -14 -2l-19 14c-6 4 -7 7 -3 12c72 90 -14 66 -14 131
z" />
    <glyph glyph-name="Rcommaaccent" unicode="&#x156;" horiz-adv-x="391" 
d="M200 700c83 0 150 -48 150 -186v-32c0 -91 -26 -137 -61 -163l60 -298c4 -16 -4 -21 -12 -21h-63c-13 0 -19 0 -22 15l-51 269c-2 9 -8 9 -12 9h-19c-20 0 -20 0 -20 -20v-253c0 -15 -5 -20 -20 -20h-60c-15 0 -20 5 -20 20v660c0 15 5 20 20 20h130zM200 612h-30
c-20 0 -20 0 -20 -20v-191c0 -20 0 -20 20 -20h30c31 0 50 20 50 71v88c0 52 -19 72 -50 72zM143 -88c0 31 25 57 56 57c67 0 98 -108 -6 -212c-5 -5 -8 -6 -14 -2l-19 14c-6 4 -7 7 -3 12c72 90 -14 66 -14 131z" />
    <glyph glyph-name="gcommaaccent" unicode="&#x123;" horiz-adv-x="403" 
d="M45 334c0 119 56 170 128 170c41 0 67 -20 83 -43v19c0 15 4 20 20 20h57c15 0 20 -5 20 -20v-479c0 -123 -71 -184 -164 -184c-65 0 -115 28 -145 89c-5 10 -6 19 9 24l61 20c12 4 19 3 27 -10c17 -26 35 -29 48 -29c19 0 64 9 64 99v24c-16 -21 -41 -38 -80 -38
c-72 0 -128 50 -128 170v168zM253 164v172c0 60 -27 76 -54 76s-54 -16 -54 -76v-172c0 -60 27 -76 54 -76s54 16 54 76zM250 602c0 -31 -25 -57 -56 -57c-67 0 -98 108 6 212c5 5 8 6 14 2l19 -14c6 -4 7 -7 3 -12c-72 -90 14 -66 14 -131z" />
    <glyph glyph-name="kcommaaccent" unicode="&#x137;" horiz-adv-x="379" 
d="M70 0c-15 0 -20 5 -20 20v660c0 15 5 20 20 20h60c15 0 20 -5 20 -20v-382l102 187c8 15 12 15 22 15h71c9 0 18 -4 9 -21l-103 -189l110 -269c6 -15 -2 -21 -13 -21h-60c-13 0 -16 0 -22 15l-76 182l-40 -73v-104c0 -15 -5 -20 -20 -20h-60zM147 -88c0 31 25 57 56 57
c67 0 98 -108 -6 -212c-5 -5 -8 -6 -14 -2l-19 14c-6 4 -7 7 -3 12c72 90 -14 66 -14 131z" />
    <glyph glyph-name="napostrophe" unicode="&#x149;" horiz-adv-x="498" 
d="M353 20v316c0 60 -27 76 -54 76s-54 -16 -54 -76v-316c0 -15 -5 -20 -20 -20h-60c-15 0 -20 5 -20 20v460c0 15 5 20 20 20h57c15 0 20 -5 20 -20v-19c15 22 39 41 77 43c75 3 134 -47 134 -170v-314c0 -15 -5 -20 -20 -20h-60c-15 0 -20 5 -20 20zM25 693
c0 31 25 57 56 57c67 0 98 -108 -6 -212c-5 -5 -8 -6 -14 -2l-19 14c-6 4 -7 7 -3 12c72 90 -14 66 -14 131z" />
    <glyph glyph-name="ncommaaccent" unicode="&#x146;" horiz-adv-x="403" 
d="M258 20v316c0 60 -27 76 -54 76s-54 -16 -54 -76v-316c0 -15 -5 -20 -20 -20h-60c-15 0 -20 5 -20 20v460c0 15 5 20 20 20h57c15 0 20 -5 20 -20v-19c15 22 39 41 77 43c75 3 134 -47 134 -170v-314c0 -15 -5 -20 -20 -20h-60c-15 0 -20 5 -20 20zM133 -88
c0 31 25 57 56 57c67 0 98 -108 -6 -212c-5 -5 -8 -6 -14 -2l-19 14c-6 4 -7 7 -3 12c72 90 -14 66 -14 131z" />
    <glyph glyph-name="rcommaaccent" unicode="&#x157;" horiz-adv-x="267" 
d="M232 405c-16 4 -23 5 -32 5c-50 0 -50 -52 -50 -102v-288c0 -15 -5 -20 -20 -20h-60c-15 0 -20 5 -20 20v460c0 15 5 20 20 20h60c15 0 20 -5 20 -20v-12c23 23 51 31 72 32h10c15 0 20 -5 20 -20v-55c0 -15 -5 -24 -20 -20zM38 -88c0 31 25 57 56 57
c67 0 98 -108 -6 -212c-5 -5 -8 -6 -14 -2l-19 14c-6 4 -7 7 -3 12c72 90 -14 66 -14 131z" />
    <glyph glyph-name="afii61352" unicode="&#x2116;" horiz-adv-x="640" 
d="M600 591v-67c0 -79 -31 -109 -82 -109c-52 0 -83 28 -83 109v67c0 80 31 109 83 109c51 0 82 -29 82 -109zM543 524v67c0 29 0 58 -25 58c-26 0 -26 -29 -26 -58v-67c0 -29 0 -58 26 -58c25 0 25 29 25 58zM435 331c0 15 5 20 20 20h125c15 0 20 -5 20 -20v-54
c0 -15 -5 -20 -20 -20h-125c-15 0 -20 5 -20 20v54zM355 0h-45c-9 0 -16 2 -20 12l-132 373c-2 7 -8 5 -8 0v-365c0 -15 -5 -20 -20 -20h-60c-15 0 -20 5 -20 20v660c0 15 5 20 20 20h45c11 0 16 -2 20 -13l132 -373c2 -6 8 -5 8 0v366c0 15 5 20 20 20h60
c15 0 20 -5 20 -20v-660c0 -15 -5 -20 -20 -20z" />
    <glyph glyph-name="perthousand" unicode="&#x2030;" horiz-adv-x="773" 
d="M164 20l121 658c2 15 8 22 23 22h48c15 0 21 -8 19 -20l-121 -658c-2 -15 -8 -22 -23 -22h-48c-15 0 -21 8 -19 20zM135 500c-55 0 -100 45 -100 100c0 56 45 101 100 101c56 0 101 -45 101 -101c0 -55 -45 -100 -101 -100zM92 600c0 -24 19 -43 43 -43c25 0 44 19 44 43
c0 25 -19 44 -44 44c-24 0 -43 -19 -43 -44zM403 0c-55 0 -100 45 -100 100c0 56 45 101 100 101c56 0 101 -45 101 -101c0 -55 -45 -100 -101 -100zM360 100c0 -24 19 -43 43 -43c25 0 44 19 44 43c0 25 -19 44 -44 44c-24 0 -43 -19 -43 -44zM637 0
c-55 0 -100 45 -100 100c0 56 45 101 100 101c56 0 101 -45 101 -101c0 -55 -45 -100 -101 -100zM594 100c0 -24 19 -43 43 -43c25 0 44 19 44 43c0 25 -19 44 -44 44c-24 0 -43 -19 -43 -44z" />
    <glyph glyph-name="lcommaaccent" unicode="&#x13c;" horiz-adv-x="239" 
d="M45 200v480c0 15 5 20 20 20h60c15 0 20 -5 20 -20v-482c0 -61 0 -103 54 -104c15 -1 20 -5 20 -20v-54c0 -15 -5 -20 -20 -20c-114 0 -154 49 -154 200zM80 -88c0 31 25 57 56 57c67 0 98 -108 -6 -212c-5 -5 -8 -6 -14 -2l-19 14c-6 4 -7 7 -3 12c72 90 -14 66 -14 131
z" />
    <glyph glyph-name="ldot" unicode="&#x140;" horiz-adv-x="310" 
d="M45 200v480c0 15 5 20 20 20h60c15 0 20 -5 20 -20v-482c0 -61 0 -103 54 -104c15 -1 20 -5 20 -20v-54c0 -15 -5 -20 -20 -20c-114 0 -154 49 -154 200zM177 369c0 32 25 57 56 57c32 0 57 -25 57 -57c0 -31 -25 -56 -57 -56c-31 0 -56 25 -56 56z" />
    <glyph glyph-name="Ncommaaccent" unicode="&#x145;" horiz-adv-x="465" 
d="M395 0h-45c-9 0 -16 2 -20 12l-172 403c-3 7 -8 4 -8 -1v-394c0 -15 -5 -20 -20 -20h-60c-15 0 -20 5 -20 20v660c0 15 5 20 20 20h45c11 0 16 -2 20 -13l172 -403c3 -6 8 -4 8 1v395c0 15 5 20 20 20h60c15 0 20 -5 20 -20v-660c0 -15 -5 -20 -20 -20zM177 -88
c0 31 25 57 56 57c67 0 98 -108 -6 -212c-5 -5 -8 -6 -14 -2l-19 14c-6 4 -7 7 -3 12c72 90 -14 66 -14 131z" />
    <glyph glyph-name="Tbar" unicode="&#x166;" horiz-adv-x="330" 
d="M15 680c0 15 5 20 20 20h260c15 0 20 -5 20 -20v-54c0 -15 -5 -20 -20 -20h-60c-20 0 -20 0 -20 -20v-76c0 -8 2 -10 10 -10h50c15 0 20 -5 20 -20v-54c0 -15 -5 -20 -20 -20h-50c-8 0 -10 -2 -10 -10v-376c0 -20 -10 -20 -20 -20h-60c-10 0 -20 0 -20 20v376
c0 8 -2 10 -10 10h-45c-15 0 -20 5 -20 20v54c0 15 5 20 20 20h45c8 0 10 2 10 10v76c0 20 0 20 -19 20h-61c-15 0 -20 5 -20 20v54z" />
    <glyph glyph-name="uni0163" unicode="&#x163;" horiz-adv-x="244" 
d="M159 -121l-50 11c-11 3 -12 7 -10 17l32 103c-59 21 -81 77 -81 190v196c0 8 -2 10 -10 10c-15 0 -20 5 -20 20v54c0 15 5 20 20 20c8 0 10 2 10 10v77c0 15 5 20 20 20h60c15 0 20 -5 20 -20v-77c0 -8 2 -10 10 -10h25c15 0 20 -5 20 -20v-54c0 -15 -5 -20 -20 -20h-25
c-8 0 -10 -2 -10 -10v-198c0 -61 0 -103 54 -104c15 -1 20 -5 20 -20v-54c0 -14 -5 -20 -17 -20l-14 -43c82 28 140 -35 139 -102c-2 -95 -99 -145 -173 -106c-7 3 -7 8 -5 14l16 43c3 8 9 7 15 5c37 -13 75 3 75 44c0 26 -20 50 -49 48c-15 -1 -27 -7 -37 -19
c-4 -5 -6 -7 -15 -5z" />
    <glyph glyph-name="uni021A" unicode="&#x21a;" horiz-adv-x="330" 
d="M15 680c0 15 5 20 20 20h260c15 0 20 -5 20 -20v-54c0 -15 -5 -20 -20 -20h-60c-20 0 -20 0 -20 -20v-566c0 -15 -5 -20 -20 -20h-60c-15 0 -20 5 -20 20v566c0 20 0 20 -19 20h-61c-15 0 -20 5 -20 20v54zM106 -88c0 31 25 57 56 57c67 0 98 -108 -6 -212
c-5 -5 -8 -6 -14 -2l-19 14c-6 4 -7 7 -3 12c72 90 -14 66 -14 131z" />
    <glyph glyph-name="uni021B" unicode="&#x21b;" horiz-adv-x="244" 
d="M50 200v196c0 8 -2 10 -10 10c-15 0 -20 5 -20 20v54c0 15 5 20 20 20c8 0 10 2 10 10v77c0 15 5 20 20 20h60c15 0 20 -5 20 -20v-77c0 -8 2 -10 10 -10h25c15 0 20 -5 20 -20v-54c0 -15 -5 -20 -20 -20h-25c-8 0 -10 -2 -10 -10v-198c0 -61 0 -103 54 -104
c15 -1 20 -5 20 -20v-54c0 -15 -5 -20 -20 -20c-114 0 -154 49 -154 200zM99 -89c0 31 25 57 56 57c67 0 98 -108 -6 -212c-5 -5 -8 -6 -14 -2l-19 14c-6 4 -7 7 -3 12c72 90 -14 66 -14 131z" />
    <glyph glyph-name="uni0162" unicode="&#x162;" horiz-adv-x="342" 
d="M153 -121l-50 11c-11 3 -12 7 -10 17l29 95c-5 2 -7 8 -7 18v566c0 20 0 20 -19 20h-61c-15 0 -20 5 -20 20v54c0 15 5 20 20 20h260c15 0 20 -5 20 -20v-54c0 -15 -5 -20 -20 -20h-60c-20 0 -20 0 -20 -20v-566c0 -13 -4 -19 -14 -20l-14 -43c82 28 140 -35 139 -102
c-2 -95 -99 -145 -173 -106c-7 3 -7 8 -5 14l16 43c3 8 9 7 15 5c37 -13 75 3 75 44c0 26 -20 50 -49 48c-15 -1 -27 -7 -37 -19c-4 -5 -6 -7 -15 -5z" />
    <glyph glyph-name="tcaron" unicode="&#x165;" horiz-adv-x="341" 
d="M50 200v196c0 8 -2 10 -10 10c-15 0 -20 5 -20 20v54c0 15 5 20 20 20c8 0 10 2 10 10v77c0 15 5 20 20 20h60c15 0 20 -5 20 -20v-77c0 -8 2 -10 10 -10h25c15 0 20 -5 20 -20v-54c0 -15 -5 -20 -20 -20h-25c-8 0 -10 -2 -10 -10v-198c0 -61 0 -103 54 -104
c15 -1 20 -5 20 -20v-54c0 -15 -5 -20 -20 -20c-114 0 -154 49 -154 200zM203 694c0 31 25 57 56 57c67 0 98 -108 -6 -212c-5 -5 -8 -6 -14 -2l-19 14c-6 4 -7 7 -3 12c72 90 -14 66 -14 131z" />
    <glyph glyph-name="eth" unicode="&#xf0;" horiz-adv-x="380" 
d="M140 277v-113c0 -60 23 -76 50 -76s50 16 50 76v113c0 60 -23 76 -50 76s-50 -16 -50 -76zM102 667l9 31c1 4 4 6 8 5c15 -3 53 -12 94 -42c6 -5 8 -4 13 1l32 32c11 11 18 11 29 0l19 -19c11 -11 11 -18 0 -29l-34 -34c-5 -5 -3 -7 1 -12c38 -52 67 -131 67 -249v-171
c0 -138 -79 -184 -150 -184s-150 46 -150 184v95c0 117 55 170 125 170c34 0 57 -14 75 -31c0 55 -10 97 -25 131c-1 3 -5 5 -9 1l-24 -25c-10 -11 -18 -10 -29 0l-19 20c-11 11 -11 18 0 28l32 33c5 5 5 9 0 14c-25 24 -49 35 -60 41c-4 2 -6 4 -4 10z" />
    <glyph glyph-name="Thorn" unicode="&#xde;" horiz-adv-x="380" 
d="M200 585c100 0 150 -50 150 -200v-68c0 -149 -50 -199 -150 -199h-30c-20 0 -20 0 -20 -20v-78c0 -15 -6 -20 -20 -20h-60c-16 0 -20 5 -20 20v660c0 15 4 20 20 20h60c14 0 20 -5 20 -20v-75c0 -20 0 -20 20 -20h30zM150 477v-253c0 -18 0 -18 20 -18h30
c50 0 50 51 50 102v87c0 51 0 102 -50 102h-30c-20 0 -20 0 -20 -20z" />
    <glyph glyph-name="tbar" unicode="&#x167;" horiz-adv-x="244" 
d="M50 200v46c0 8 -2 10 -10 10c-15 0 -20 5 -20 20v54c0 15 5 20 20 20c8 0 10 2 10 10v36c0 8 -2 10 -10 10c-15 0 -20 5 -20 20v54c0 15 5 20 20 20c8 0 10 2 10 10v77c0 15 5 20 20 20h60c15 0 20 -5 20 -20v-77c0 -8 2 -10 10 -10h25c15 0 20 -5 20 -20v-54
c0 -15 -5 -20 -20 -20h-25c-8 0 -10 -2 -10 -10v-36c0 -8 2 -10 10 -10h25c15 0 20 -5 20 -20v-54c0 -15 -5 -20 -20 -20h-25c-8 0 -10 -2 -10 -10v-48c0 -61 0 -103 54 -104c15 -1 20 -5 20 -20v-54c0 -15 -5 -20 -20 -20c-114 0 -154 49 -154 200z" />
    <glyph glyph-name="partialdiff" unicode="&#x2202;" horiz-adv-x="380" 
d="M140 277v-113c0 -60 23 -76 50 -76s50 16 50 76v113c0 60 -23 76 -50 76s-50 -16 -50 -76zM102 667l9 31c1 4 4 6 8 5c150 -34 221 -173 221 -352v-171c0 -138 -79 -184 -150 -184s-150 46 -150 184v95c0 117 55 170 125 170c34 0 57 -14 75 -31c-2 108 -36 195 -134 243
c-4 2 -6 4 -4 10z" />
    <glyph glyph-name="zeroinferior" unicode="&#x2080;" horiz-adv-x="230" 
d="M180 67v-134c0 -56 -31 -77 -65 -77c-33 0 -65 21 -65 77v134c0 56 32 77 65 77c34 0 65 -21 65 -77zM140 -77v154c0 21 -12 29 -25 29c-12 0 -24 -8 -24 -29v-154c0 -21 12 -29 24 -29c13 0 25 8 25 29z" />
    <glyph glyph-name="oneinferior" unicode="&#x2081;" horiz-adv-x="171" 
d="M76 138c0 1 2 4 7 4h25c6 0 8 -2 8 -8v-268c0 -6 -2 -8 -8 -8h-24c-6 0 -8 2 -8 8v191c0 3 -2 4 -4 4h-26c-5 0 -7 3 -5 8z" />
    <glyph glyph-name="twoinferior" unicode="&#x2082;" horiz-adv-x="222" 
d="M91 -78v-18c0 -8 0 -8 8 -8h65c6 0 8 -2 8 -8v-22c0 -6 -2 -8 -8 -8h-106c-6 0 -8 2 -8 8v56c0 35 25 62 45 90c19 25 36 46 36 66c0 7 0 28 -20 28c-16 0 -20 -13 -20 -32c0 -6 -2 -8 -9 -8h-24c-6 0 -8 2 -8 8c0 36 19 70 61 70c43 0 58 -36 60 -61
c1 -36 -23 -66 -44 -94c-19 -26 -36 -47 -36 -67z" />
    <glyph glyph-name="threeinferior" unicode="&#x2083;" horiz-adv-x="212" 
d="M162 -67c0 -56 -28 -77 -61 -77c-31 0 -57 19 -60 66c-1 7 2 12 8 12h24c6 0 8 -2 8 -8v-3c0 -21 7 -29 20 -29c12 0 20 8 20 29v36c0 18 -2 30 -20 30h-6c-5 0 -6 2 -6 8v22c0 6 2 8 8 8h4c18 1 20 12 20 29v21c0 21 -8 29 -20 29c-13 0 -20 -8 -20 -29v-3
c0 -6 -2 -8 -8 -8h-24c-6 0 -9 5 -8 12c3 47 29 66 60 66c33 0 61 -21 61 -77v-15c0 -23 -5 -33 -13 -44c8 -12 13 -21 13 -44v-31z" />
    <glyph glyph-name="fourinferior" unicode="&#x2084;" horiz-adv-x="213" 
d="M105 51l-30 -58c-1 -3 -1 -4 2 -4h27c3 0 4 1 4 4v57c0 2 -2 3 -3 1zM148 -134c0 -6 -2 -8 -8 -8h-24c-6 0 -8 2 -8 8v80c0 3 -1 5 -4 5h-66c-6 0 -8 2 -8 8v18c0 5 0 7 3 13l75 146c2 4 5 6 10 6h22c6 0 8 -2 8 -8v-141c0 -3 1 -4 4 -4h2c7 0 9 -2 9 -8v-22
c0 -6 -2 -8 -9 -8h-2c-2 0 -4 -2 -4 -5v-80z" />
    <glyph glyph-name="fiveinferior" unicode="&#x2085;" horiz-adv-x="222" 
d="M132 -7c0 24 -10 31 -21 31c-10 0 -19 -7 -20 -28v-7c0 -6 -2 -8 -8 -8h-25c-6 0 -8 2 -8 8v145c0 6 2 8 8 8h101c6 0 8 -2 8 -8v-22c0 -6 -2 -8 -8 -8h-60c-7 0 -8 -2 -8 -8v-48c7 7 16 12 29 13c29 1 52 -21 52 -69v-59c0 -56 -27 -77 -61 -77c-31 0 -57 19 -60 66
c-1 7 2 12 8 12h24c6 0 8 -2 8 -8v-3c0 -21 8 -29 20 -29c13 0 21 8 21 29v70z" />
    <glyph glyph-name="sixinferior" unicode="&#x2086;" horiz-adv-x="222" 
d="M172 -30v-39c0 -56 -32 -75 -61 -75s-61 19 -61 75v136c0 56 27 77 61 77c31 0 57 -19 61 -66c0 -7 -3 -12 -9 -12h-24c-6 0 -8 2 -8 8v3c0 21 -7 29 -20 29c-12 0 -20 -8 -20 -29v-51c7 6 16 12 29 13c29 0 52 -21 52 -69zM91 -30v-45c0 -25 9 -31 20 -31s20 6 20 31v45
c0 25 -9 31 -20 31s-20 -6 -20 -31z" />
    <glyph glyph-name="seveninferior" unicode="&#x2087;" horiz-adv-x="194" 
d="M51 -134l52 233c0 4 -1 5 -4 5h-61c-6 0 -8 2 -8 8v22c0 6 2 8 8 8h98c6 0 8 -2 8 -8v-24c0 -4 0 -4 -1 -10l-52 -234c-1 -8 -5 -8 -9 -8h-25c-4 0 -8 2 -6 8z" />
    <glyph glyph-name="eightinferior" unicode="&#x2088;" horiz-adv-x="218" 
d="M168 66v-4c0 -28 -5 -47 -15 -59c10 -13 15 -32 15 -59v-10c0 -57 -22 -78 -59 -78c-36 0 -59 21 -59 78v10c0 28 6 47 15 59c-9 12 -15 31 -15 59v4c0 57 23 78 59 78c37 0 59 -21 59 -78zM128 -56c0 20 0 41 -19 41c-18 0 -18 -21 -18 -41v-9c0 -20 0 -41 18 -41
c19 0 19 21 19 41v9zM128 65c0 21 0 41 -19 41c-18 0 -18 -21 -18 -41v-3c0 -20 0 -41 18 -41c19 0 19 21 19 41v3z" />
    <glyph glyph-name="nineinferior" unicode="&#x2089;" horiz-adv-x="222" 
d="M103 -39c-30 0 -53 21 -53 69v39c0 56 32 75 61 75s61 -19 61 -75v-136c0 -56 -27 -77 -61 -77c-31 0 -57 19 -60 66c-1 7 2 12 8 12h24c6 0 8 -2 8 -8v-3c0 -21 8 -29 20 -29c13 0 20 8 20 29v51c-7 -7 -15 -12 -28 -13zM111 -1c11 0 20 6 20 31v45c0 25 -9 31 -20 31
s-20 -6 -20 -31v-45c0 -25 9 -31 20 -31z" />
    <glyph glyph-name="parenleftinferior" unicode="&#x208d;" horiz-adv-x="138" 
d="M95 152c-22 0 -22 -22 -22 -44v-216c0 -22 0 -44 22 -44h4c7 0 9 -2 9 -9v-21c0 -6 -2 -9 -9 -9h-4c-43 0 -65 22 -65 87v208c0 65 22 87 65 87h4c7 0 9 -3 9 -9v-21c0 -7 -2 -9 -9 -9h-4z" />
    <glyph glyph-name="parenrightinferior" unicode="&#x208e;" horiz-adv-x="138" 
d="M43 152h-4c-7 0 -9 2 -9 9v21c0 6 2 9 9 9h4c43 0 65 -22 65 -87v-207c0 -66 -22 -87 -65 -87h-4c-7 0 -9 2 -9 9v21c0 7 2 9 9 9h4c22 0 22 22 22 44v215c0 22 0 44 -22 44z" />
    <glyph glyph-name="Eth" unicode="&#xd0;" horiz-adv-x="390" 
d="M70 700h123c82 -2 157 -54 157 -190v-320c0 -138 -77 -190 -160 -190h-120c-15 0 -20 5 -20 20v376c0 7 -3 10 -10 10c-15 0 -20 5 -20 20v54c0 15 5 20 20 20c7 0 10 3 10 10v170c0 15 5 20 20 20zM190 94c31 0 60 20 60 72v368c0 50 -27 70 -57 72h-23
c-20 0 -20 0 -20 -20v-76c0 -6 2 -10 10 -10h25c15 0 20 -5 20 -20v-54c0 -15 -5 -20 -20 -20h-25c-7 0 -10 -3 -10 -10v-281c0 -21 0 -21 20 -21h20z" />
    <glyph glyph-name="uni0218" unicode="&#x218;" horiz-adv-x="367" 
d="M181 -4c-92 0 -162 76 -160 164c0 17 4 22 21 22h58c13 0 20 -5 20 -23c0 -39 20 -71 61 -71c40 0 58 31 62 59c19 119 -201 234 -211 399c-5 86 57 158 147 158c69 0 135 -53 143 -133c2 -27 0 -32 -20 -32h-55c-15 0 -20 5 -20 20c0 36 -21 53 -48 53
c-46 0 -51 -45 -49 -65c11 -112 191 -213 210 -370c11 -90 -56 -181 -159 -181zM120 -88c0 31 25 57 56 57c67 0 98 -108 -6 -212c-5 -5 -8 -6 -14 -2l-19 14c-6 4 -7 7 -3 12c72 90 -14 66 -14 131z" />
    <glyph glyph-name="uni0219" unicode="&#x219;" horiz-adv-x="332" 
d="M128 374c-1 -74 194 -110 183 -247c-5 -62 -59 -131 -145 -131c-93 0 -146 81 -146 140c0 15 5 20 20 20h58c15 0 20 -5 20 -20c0 -30 25 -48 48 -48c22 0 47 18 48 48c4 90 -170 107 -178 234c-5 77 60 134 130 134c72 0 133 -62 133 -137c0 -15 -5 -20 -20 -20h-52
c-14 0 -20 4 -20 24c0 25 -17 43 -40 43c-22 0 -39 -18 -39 -40zM108 -88c0 31 25 57 56 57c67 0 98 -108 -6 -212c-5 -5 -8 -6 -14 -2l-19 14c-6 4 -7 7 -3 12c72 90 -14 66 -14 131z" />
    <glyph glyph-name="D" unicode="D" horiz-adv-x="390" 
d="M70 700h120c83 0 160 -52 160 -190v-320c0 -138 -77 -190 -160 -190h-120c-15 0 -20 5 -20 20v660c0 15 5 20 20 20zM150 115c0 -21 0 -21 20 -21h20c31 0 60 20 60 72v368c0 52 -29 72 -60 72h-20c-20 0 -20 0 -20 -20v-471z" />
    <glyph glyph-name="scommaaccent" horiz-adv-x="332" 
d="M128 374c-1 -74 194 -110 183 -247c-5 -62 -59 -131 -145 -131c-93 0 -146 81 -146 140c0 15 5 20 20 20h58c15 0 20 -5 20 -20c0 -30 25 -48 48 -48c22 0 47 18 48 48c4 90 -170 107 -178 234c-5 77 60 134 130 134c69 0 133 -57 133 -134v-3c0 -15 -5 -20 -20 -20h-52
c-14 0 -20 4 -20 24c0 25 -17 43 -40 43c-22 0 -39 -18 -39 -40zM110 -88c0 31 25 57 56 57c67 0 98 -108 -6 -212c-5 -5 -8 -6 -14 -2l-19 14c-6 4 -7 7 -3 12c72 90 -14 66 -14 131z" />
    <glyph glyph-name="Aring" unicode="&#xc5;" horiz-adv-x="412" 
d="M364 0h-60c-13 0 -19 0 -22 15l-9 54c-4 20 -4 20 -22 20h-89c-19 0 -19 0 -23 -20l-9 -54c-3 -15 -9 -15 -22 -15h-60c-10 0 -20 0 -17 17l126 665c3 15 6 18 22 18h54c16 0 19 -3 22 -18l126 -665c3 -17 -7 -17 -17 -17zM202 446l-41 -243c-3 -20 -3 -20 17 -20h56
c20 0 20 0 17 20l-41 243c-1 5 -7 5 -8 0zM206 731c-55 0 -100 45 -100 100c0 56 45 101 100 101c56 0 101 -45 101 -101c0 -55 -45 -100 -101 -100zM170 831c0 -21 15 -36 36 -36s36 15 36 36s-15 36 -36 36s-36 -15 -36 -36z" />
    <glyph glyph-name="Atilde" unicode="&#xc3;" horiz-adv-x="412" 
d="M364 0h-60c-13 0 -19 0 -22 15l-9 54c-4 20 -4 20 -22 20h-89c-19 0 -19 0 -23 -20l-9 -54c-3 -15 -9 -15 -22 -15h-60c-10 0 -20 0 -17 17l126 665c3 15 6 18 22 18h54c16 0 19 -3 22 -18l126 -665c3 -17 -7 -17 -17 -17zM202 446l-41 -243c-3 -20 -3 -20 17 -20h56
c20 0 20 0 17 20l-41 243c-1 5 -7 5 -8 0zM244 731c-25 3 -46 16 -66 21c-6 1 -18 1 -22 -14c-1 -3 -2 -7 -8 -7h-59c-4 0 -7 1 -6 6c8 42 32 91 86 86c25 -2 45 -16 66 -21c6 -1 18 -1 22 14c1 3 2 7 8 7h59c4 0 7 -1 6 -6c-8 -42 -32 -91 -86 -86z" />
    <glyph glyph-name="uni0401" unicode="&#x401;" horiz-adv-x="346" 
d="M70 0c-15 0 -20 5 -20 20v660c0 15 5 20 20 20h211c15 0 20 -5 20 -20v-54c0 -15 -5 -20 -20 -20h-111c-20 0 -20 0 -20 -20v-150c0 -20 0 -20 20 -20h111c15 0 20 -5 20 -20v-54c0 -15 -5 -20 -20 -20h-111c-20 0 -20 0 -20 -20v-188c0 -20 0 -20 20 -20h111
c15 0 20 -5 20 -20v-54c0 -15 -5 -20 -20 -20h-211zM54 787c0 31 25 56 56 56s56 -25 56 -56s-25 -56 -56 -56s-56 25 -56 56zM188 787c0 31 25 56 56 56s56 -25 56 -56s-25 -56 -56 -56s-56 25 -56 56z" />
    <glyph glyph-name="uni0402" unicode="&#x402;" horiz-adv-x="420" 
d="M180 20c0 -15 -5 -20 -20 -20h-60c-15 0 -20 5 -20 20v566c0 20 0 20 -19 20h-36c-15 0 -20 5 -20 20v54c0 15 5 20 20 20h210c15 0 20 -5 20 -20v-54c0 -15 -5 -20 -20 -20h-35c-16 0 -20 0 -20 -20v-116c23 23 52 30 73 30c75 0 127 -41 127 -191v-119
c0 -150 -52 -190 -127 -190c-31 0 -45 0 -42 21l8 55c2 13 7 13 11 13c50 0 50 50 50 101v119c0 51 0 102 -50 102s-50 -52 -50 -102v-289z" />
    <glyph glyph-name="uni0403" unicode="&#x403;" horiz-adv-x="300" 
d="M50 680c0 15 5 20 20 20h195c15 0 20 -5 20 -20v-54c0 -15 -5 -20 -20 -20h-95c-20 0 -20 0 -20 -20v-566c0 -15 -5 -20 -20 -20h-60c-15 0 -20 5 -20 20v660zM145 735c-7 0 -10 3 -10 10v98c0 17 6 21 21 21h59c15 0 20 -8 13 -27l-30 -85c-5 -15 -7 -17 -17 -17h-36z
" />
    <glyph glyph-name="uni0404" unicode="&#x404;" horiz-adv-x="395" 
d="M140 160c0 -52 29 -72 60 -72s60 20 60 72v7c0 15 5 20 20 20h59c15 0 21 -12 20 -26c-9 -119 -81 -165 -159 -165c-83 0 -160 52 -160 190v328c0 138 77 190 160 190c78 0 150 -46 159 -165c1 -14 -5 -26 -20 -26h-59c-15 0 -20 5 -20 20v7c0 52 -29 72 -60 72
s-60 -20 -60 -72v-122c0 -20 0 -20 20 -20h111c15 0 20 -5 20 -20v-54c0 -15 -5 -20 -20 -20h-111c-20 0 -20 0 -20 -20v-124z" />
    <glyph glyph-name="uni0405" unicode="&#x405;" horiz-adv-x="367" 
d="M181 -4c-92 0 -162 76 -160 164c0 17 4 22 21 22h58c13 0 20 -5 20 -23c0 -39 20 -71 61 -71c40 0 58 31 62 59c19 119 -201 234 -211 399c-5 86 57 158 147 158c69 0 135 -53 143 -133c2 -27 0 -32 -20 -32h-55c-15 0 -20 5 -20 20c0 36 -21 53 -48 53
c-46 0 -51 -45 -49 -65c11 -112 191 -213 210 -370c11 -90 -56 -181 -159 -181z" />
    <glyph glyph-name="uni0406" unicode="&#x406;" 
d="M150 20c0 -15 -5 -20 -20 -20h-60c-15 0 -20 5 -20 20v660c0 15 5 20 20 20h60c15 0 20 -5 20 -20v-660z" />
    <glyph glyph-name="uni0407" unicode="&#x407;" 
d="M150 20c0 -15 -5 -20 -20 -20h-60c-15 0 -20 5 -20 20v660c0 15 5 20 20 20h60c15 0 20 -5 20 -20v-660zM-23 787c0 31 25 56 56 56s56 -25 56 -56s-25 -56 -56 -56s-56 25 -56 56zM111 787c0 31 25 56 56 56s56 -25 56 -56s-25 -56 -56 -56s-56 25 -56 56z" />
    <glyph glyph-name="uni0408" unicode="&#x408;" horiz-adv-x="244" 
d="M35 94c64 4 64 43 64 104v482c0 15 5 20 20 20h60c15 0 20 -5 20 -20v-480c0 -151 -50 -200 -164 -200c-15 0 -20 5 -20 20v54c0 15 5 19 20 20z" />
    <glyph glyph-name="uni0409" unicode="&#x409;" horiz-adv-x="624" 
d="M364 700c15 0 20 -5 20 -20v-210c23 23 52 30 73 30c75 0 127 -41 127 -191v-119c0 -150 -52 -190 -127 -190c-22 0 -50 7 -73 32v-12c0 -15 -5 -20 -20 -20h-60c-15 0 -20 5 -20 20v566c0 20 0 20 -20 20h-45c-20 0 -20 0 -20 -20v-386c0 -151 -50 -200 -164 -200
c-15 0 -20 5 -20 20v54c0 15 5 19 20 20c64 4 64 43 64 104v482c0 15 5 20 20 20h245zM384 309v-119c0 -50 0 -101 50 -101s50 50 50 101v119c0 51 0 102 -50 102s-50 -52 -50 -102z" />
    <glyph glyph-name="uni040A" unicode="&#x40a;" horiz-adv-x="590" 
d="M150 20c0 -20 -10 -20 -20 -20h-60c-10 0 -20 0 -20 20v660c0 15 5 20 20 20h60c15 0 20 -5 20 -20v-242c0 -20 0 -20 20 -20h60c20 0 20 0 20 20v245c0 12 6 17 20 17h60c15 0 20 -5 20 -20v-210c23 23 52 30 73 30c75 0 127 -41 127 -191v-119
c0 -150 -52 -190 -127 -190c-22 0 -50 7 -73 32v-12c0 -15 -5 -20 -20 -20h-60c-15 0 -20 5 -20 20v284c0 20 0 20 -20 20h-60c-20 0 -20 0 -20 -20v-284zM350 309v-142c1 -42 7 -78 50 -78c50 0 50 50 50 101v119c0 51 0 102 -50 102s-50 -52 -50 -102z" />
    <glyph glyph-name="uni040B" unicode="&#x40b;" horiz-adv-x="415" 
d="M290 0c-15 0 -20 5 -20 20v291c0 41 0 102 -45 102c-37 0 -44 -42 -45 -79v-314c0 -15 -5 -20 -20 -20h-60c-15 0 -20 5 -20 20v566c0 20 0 20 -19 20h-36c-15 0 -20 5 -20 20v54c0 15 5 20 20 20h210c15 0 20 -5 20 -20v-54c0 -15 -5 -20 -20 -20h-35
c-20 0 -20 0 -20 -20v-131c16 23 43 45 88 45c15 0 102 0 102 -144v-336c0 -15 -5 -20 -20 -20h-60z" />
    <glyph glyph-name="uni040C" unicode="&#x40c;" horiz-adv-x="381" 
d="M150 20c0 -15 -5 -20 -20 -20h-60c-15 0 -20 5 -20 20v660c0 15 5 20 20 20h60c15 0 20 -5 20 -20v-243c0 -5 5 -7 8 -1l105 244c8 18 14 20 29 20h59c15 0 17 -9 12 -20l-108 -249c-2 -5 -3 -7 0 -18l108 -393c3 -11 0 -20 -15 -20h-59c-15 0 -22 5 -26 20l-77 279
c-1 4 -6 5 -8 0l-24 -56c-3 -7 -4 -14 -4 -24v-199zM178 735c-7 0 -10 3 -10 10v98c0 17 6 21 21 21h59c15 0 20 -8 13 -27l-30 -85c-5 -15 -7 -17 -17 -17h-36z" />
    <glyph glyph-name="uni00AD" unicode="&#xad;" horiz-adv-x="499" 
d="M35 302c0 15 5 20 20 20h389c15 0 20 -5 20 -20v-54c0 -15 -5 -20 -20 -20h-389c-15 0 -20 5 -20 20v54z" />
    <glyph glyph-name="uni040E" unicode="&#x40e;" horiz-adv-x="368" 
d="M106 18l32 141l-117 524c-4 17 7 17 17 17h60c13 0 19 0 22 -15l60 -324c1 -5 7 -5 8 0l60 324c3 15 9 15 22 15h60c10 0 21 0 17 -17l-148 -665c-3 -15 -7 -18 -23 -18h-54c-12 0 -19 3 -16 18zM182 731c-55 0 -110 40 -114 118c-1 20 2 20 19 20h27c15 0 18 0 20 -17
c4 -35 21 -55 48 -55s44 20 48 55c2 17 5 17 20 17h27c17 0 20 0 19 -20c-4 -78 -59 -118 -114 -118z" />
    <glyph glyph-name="uni040F" unicode="&#x40f;" horiz-adv-x="430" 
d="M380 20c0 -15 -5 -20 -20 -20h-75c-20 0 -20 0 -20 -20v-45c0 -15 -5 -20 -20 -20h-60c-15 0 -20 5 -20 20v45c0 20 0 20 -20 20h-75c-15 0 -20 5 -20 20v660c0 15 5 20 20 20h60c15 0 20 -5 20 -20v-571c0 -10 5 -15 15 -15h100c10 0 15 5 15 15v571c0 15 5 20 20 20h60
c15 0 20 -5 20 -20v-660z" />
    <glyph glyph-name="uni0410" unicode="&#x410;" horiz-adv-x="412" 
d="M364 0h-60c-13 0 -19 0 -22 15l-9 54c-4 20 -4 20 -22 20h-89c-19 0 -19 0 -23 -20l-9 -54c-3 -15 -9 -15 -22 -15h-60c-10 0 -20 0 -17 17l126 665c3 15 6 18 22 18h54c16 0 19 -3 22 -18l126 -665c3 -17 -7 -17 -17 -17zM202 446l-41 -243c-3 -20 -3 -20 17 -20h56
c20 0 20 0 17 20l-41 243c-1 5 -7 5 -8 0z" />
    <glyph glyph-name="uni0411" unicode="&#x411;" horiz-adv-x="390" 
d="M50 680c0 15 5 20 20 20h240c15 0 20 -5 20 -20v-54c0 -15 -5 -20 -20 -20h-140c-20 0 -20 0 -20 -20v-66c0 -20 0 -20 20 -20h30c100 0 150 -50 150 -200v-100c0 -150 -50 -200 -150 -200h-130c-15 0 -20 5 -20 20v660zM150 391v-282c0 -20 0 -20 20 -20h30
c50 0 50 51 50 102v118c0 51 0 102 -50 102h-30c-20 0 -20 0 -20 -20z" />
    <glyph glyph-name="uni0412" unicode="&#x412;" horiz-adv-x="390" 
d="M70 700h130c83 0 150 -48 150 -186v-5c0 -66 -15 -110 -40 -141c-1 -1 -1 -3 0 -4c25 -30 40 -75 40 -140v-37c0 -138 -67 -187 -150 -187h-130c-15 0 -20 5 -20 20v660c0 15 5 20 20 20zM150 109c0 -21 0 -21 20 -21h30c31 0 50 20 50 72v90c0 52 -19 72 -50 72h-29
c-21 0 -21 0 -21 -21v-192zM200 416c31 0 50 19 50 71v53c0 52 -19 72 -50 72h-30c-20 0 -20 0 -20 -20v-155c0 -21 0 -21 20 -21h30z" />
    <glyph glyph-name="uni0413" unicode="&#x413;" horiz-adv-x="300" 
d="M50 680c0 15 5 20 20 20h195c15 0 20 -5 20 -20v-54c0 -15 -5 -20 -20 -20h-95c-20 0 -20 0 -20 -20v-566c0 -15 -5 -20 -20 -20h-60c-15 0 -20 5 -20 20v660z" />
    <glyph glyph-name="uni0414" unicode="&#x414;" horiz-adv-x="522" 
d="M407 680v-566c0 -20 0 -20 20 -20h60c15 0 20 -5 20 -20v-139c0 -15 -5 -20 -20 -20h-60c-15 0 -20 5 -20 20v45c0 20 0 20 -20 20h-257c-10 0 -15 -5 -15 -15v-51c0 -15 -5 -20 -20 -20h-60c-15 0 -20 5 -20 20v140c0 15 5 20 20 20h39s75 290 74 586c0 15 5 20 20 20
h219c15 0 20 -5 20 -20zM243 591c-8 -239 -68 -497 -68 -497h112c20 0 20 0 20 20v477c0 10 -5 15 -15 15h-34c-10 0 -15 -5 -15 -15z" />
    <glyph glyph-name="uni0415" unicode="&#x415;" horiz-adv-x="346" 
d="M70 0c-15 0 -20 5 -20 20v660c0 15 5 20 20 20h211c15 0 20 -5 20 -20v-54c0 -15 -5 -20 -20 -20h-111c-20 0 -20 0 -20 -20v-150c0 -20 0 -20 20 -20h111c15 0 20 -5 20 -20v-54c0 -15 -5 -20 -20 -20h-111c-20 0 -20 0 -20 -20v-188c0 -20 0 -20 20 -20h111
c15 0 20 -5 20 -20v-54c0 -15 -5 -20 -20 -20h-211z" />
    <glyph glyph-name="uni0416" unicode="&#x416;" horiz-adv-x="502" 
d="M23 21l116 330l-116 328c-7 18 2 21 8 21h67c13 0 17 0 22 -15l75 -236c2 -7 11 -7 11 2v229c0 15 5 20 20 20h50c15 0 20 -5 20 -20v-229c0 -9 9 -9 11 -2l75 236c5 15 9 15 22 15h67c6 0 15 -3 8 -21l-116 -328l116 -330c7 -18 -2 -21 -8 -21h-67c-13 0 -17 0 -22 15
l-75 236c-2 7 -11 7 -11 -2v-229c0 -15 -5 -20 -20 -20h-50c-15 0 -20 5 -20 20v229c0 9 -9 9 -11 2l-75 -236c-5 -15 -9 -15 -22 -15h-67c-6 0 -15 3 -8 21z" />
    <glyph glyph-name="uni0417" unicode="&#x417;" horiz-adv-x="374" 
d="M35 180c0 15 5 20 20 20h59c15 0 20 -5 20 -20v-8c0 -44 7 -84 50 -84c50 0 50 48 50 99v62c-1 44 -6 73 -50 73h-14c-12 1 -16 6 -16 20v54c0 15 5 20 20 20h10c44 2 49 31 50 73v24c0 51 0 99 -50 99c-43 0 -50 -40 -50 -84v-8c0 -15 -5 -20 -20 -20h-59
c-15 0 -20 5 -20 20v7c1 95 35 177 149 177c98 0 150 -48 150 -189v-38c0 -56 -12 -80 -32 -108c20 -28 32 -52 32 -107v-77c-2 -141 -52 -189 -150 -189c-114 0 -148 82 -149 176v8z" />
    <glyph glyph-name="uni0418" unicode="&#x418;" horiz-adv-x="425" 
d="M115 0h-45c-15 0 -20 5 -20 20v660c0 15 5 20 20 20h60c15 0 20 -5 20 -20v-366c0 -5 6 -6 8 0l132 373c4 11 9 13 20 13h45c15 0 20 -5 20 -20v-660c0 -15 -5 -20 -20 -20h-60c-15 0 -20 5 -20 20v365c0 5 -6 7 -8 0l-132 -373c-4 -10 -11 -12 -20 -12z" />
    <glyph glyph-name="uni0419" unicode="&#x419;" horiz-adv-x="425" 
d="M115 0h-45c-15 0 -20 5 -20 20v660c0 15 5 20 20 20h60c15 0 20 -5 20 -20v-366c0 -5 6 -6 8 0l132 373c4 11 9 13 20 13h45c15 0 20 -5 20 -20v-660c0 -15 -5 -20 -20 -20h-60c-15 0 -20 5 -20 20v365c0 5 -6 7 -8 0l-132 -373c-4 -10 -11 -12 -20 -12zM168 848
c6 -70 89 -72 96 0c2 20 5 20 20 20h27c19 0 20 0 19 -20c-8 -155 -220 -157 -228 0c-1 20 0 20 19 20h27c15 0 18 0 20 -20z" />
    <glyph glyph-name="uni041A" unicode="&#x41a;" horiz-adv-x="381" 
d="M150 20c0 -15 -5 -20 -20 -20h-60c-15 0 -20 5 -20 20v660c0 15 5 20 20 20h60c15 0 20 -5 20 -20v-243c0 -5 5 -7 8 -1l105 244c8 18 14 20 29 20h59c15 0 17 -9 12 -20l-108 -249c-2 -5 -3 -7 0 -18l108 -393c3 -11 0 -20 -15 -20h-59c-15 0 -22 5 -26 20l-77 279
c-1 4 -6 5 -8 0l-24 -56c-3 -7 -4 -14 -4 -24v-199z" />
    <glyph glyph-name="uni041B" unicode="&#x41b;" horiz-adv-x="464" 
d="M394 700c15 0 20 -5 20 -20v-660c0 -15 -5 -20 -20 -20h-60c-15 0 -20 5 -20 20v566c0 20 0 20 -20 20h-75c-20 0 -20 0 -20 -20v-386c0 -151 -50 -200 -164 -200c-15 0 -20 5 -20 20v54c0 15 5 19 20 20c64 4 64 43 64 104v482c0 15 5 20 20 20h275z" />
    <glyph glyph-name="uni041C" unicode="&#x41c;" horiz-adv-x="502" 
d="M240 0c-10 0 -18 0 -22 14l-62 257c-1 5 -6 4 -6 0v-251c0 -15 -5 -20 -20 -20h-60c-15 0 -20 5 -20 20v660c0 15 5 20 20 20h45c12 0 17 -3 19 -12l113 -471c1 -5 7 -5 8 0l113 471c2 9 7 12 19 12h45c15 0 20 -5 20 -20v-660c0 -15 -5 -20 -20 -20h-60
c-15 0 -20 5 -20 20v251c0 4 -5 5 -6 0l-62 -257c-4 -14 -12 -14 -22 -14h-22z" />
    <glyph glyph-name="uni041D" unicode="&#x41d;" horiz-adv-x="400" 
d="M250 302c0 20 0 20 -20 20h-60c-20 0 -20 0 -20 -20v-282c0 -15 -5 -20 -20 -20h-60c-15 0 -20 5 -20 20v660c0 15 5 20 20 20h60c15 0 20 -5 20 -20v-244c0 -20 0 -20 20 -20h60c20 0 20 0 20 20v244c0 15 5 20 20 20h60c15 0 20 -5 20 -20v-660c0 -15 -5 -20 -20 -20
h-60c-15 0 -20 5 -20 20v282z" />
    <glyph glyph-name="uni041E" unicode="&#x41e;" horiz-adv-x="400" 
d="M360 514v-328c0 -138 -77 -190 -160 -190s-160 52 -160 190v328c0 138 77 190 160 190s160 -52 160 -190zM260 160v380c0 52 -29 72 -60 72s-60 -20 -60 -72v-380c0 -52 29 -72 60 -72s60 20 60 72z" />
    <glyph glyph-name="uni041F" unicode="&#x41f;" horiz-adv-x="460" 
d="M410 680v-660c0 -15 -5 -20 -20 -20h-60c-15 0 -20 5 -20 20v571c0 10 -5 15 -15 15h-130c-10 0 -15 -5 -15 -15v-571c0 -15 -5 -20 -20 -20h-60c-15 0 -20 5 -20 20v660c0 15 5 20 20 20h320c15 0 20 -5 20 -20z" />
    <glyph glyph-name="uni0420" unicode="&#x420;" horiz-adv-x="380" 
d="M350 432c0 -149 -50 -199 -150 -199h-30c-20 0 -20 0 -20 -20v-193c0 -15 -6 -20 -20 -20h-60c-16 0 -20 5 -20 20v660c0 15 5 20 20 20h130c100 0 150 -50 150 -200v-68zM150 592v-252c0 -18 0 -18 20 -18h30c50 0 50 51 50 102v86c0 51 0 102 -50 102h-30
c-20 0 -20 0 -20 -20z" />
    <glyph glyph-name="uni0421" unicode="&#x421;" horiz-adv-x="395" 
d="M140 160c0 -52 29 -72 60 -72s60 20 60 72v7c0 15 5 20 20 20h59c15 0 21 -12 20 -26c-9 -119 -81 -165 -159 -165c-83 0 -160 52 -160 190v328c0 138 77 190 160 190c78 0 150 -46 159 -165c1 -14 -5 -26 -20 -26h-59c-15 0 -20 5 -20 20v7c0 52 -29 72 -60 72
s-60 -20 -60 -72v-380z" />
    <glyph glyph-name="uni0422" unicode="&#x422;" horiz-adv-x="330" 
d="M15 680c0 15 5 20 20 20h260c15 0 20 -5 20 -20v-54c0 -15 -5 -20 -20 -20h-60c-20 0 -20 0 -20 -20v-566c0 -15 -5 -20 -20 -20h-60c-15 0 -20 5 -20 20v566c0 20 0 20 -19 20h-61c-15 0 -20 5 -20 20v54z" />
    <glyph glyph-name="uni0423" unicode="&#x423;" horiz-adv-x="368" 
d="M106 18l32 141l-117 524c-4 17 7 17 17 17h60c13 0 19 0 22 -15l60 -324c1 -5 7 -5 8 0l60 324c3 15 9 15 22 15h60c10 0 21 0 17 -17l-148 -665c-3 -15 -7 -18 -23 -18h-54c-12 0 -19 3 -16 18z" />
    <glyph glyph-name="uni0424" unicode="&#x424;" horiz-adv-x="536" 
d="M218 680c0 15 6 20 20 20h60c14 0 20 -5 20 -20v-9c0 -20 0 -20 20 -20h8c100 0 150 -50 150 -199v-204c0 -149 -50 -199 -150 -199h-8c-20 0 -20 0 -20 -20v-9c0 -15 -6 -20 -20 -20h-60c-14 0 -20 5 -20 20v9c0 20 0 20 -20 20h-8c-100 0 -150 50 -150 199v204
c0 149 50 199 150 199h8c20 0 20 0 20 20v9zM396 240v220c0 51 0 102 -50 102h-8c-20 0 -20 0 -20 -18v-388c0 -18 0 -18 20 -18h8c50 0 50 51 50 102zM140 460v-220c0 -51 0 -102 50 -102h8c20 0 20 0 20 18v388c0 18 0 18 -20 18h-8c-50 0 -50 -51 -50 -102z" />
    <glyph glyph-name="uni0425" unicode="&#x425;" horiz-adv-x="343" 
d="M326 679l-105 -329l105 -329c5 -16 -3 -21 -11 -21h-64c-13 0 -17 0 -22 15l-58 180l-57 -180c-5 -15 -9 -15 -22 -15h-64c-8 0 -16 5 -11 21l105 329l-105 329c-5 16 3 21 11 21h64c13 0 17 0 22 -15l57 -180l58 180c5 15 9 15 22 15h64c8 0 16 -5 11 -21z" />
    <glyph glyph-name="uni0426" unicode="&#x426;" horiz-adv-x="496" 
d="M461 94c15 0 20 -5 20 -20v-139c0 -15 -5 -20 -20 -20h-60c-15 0 -20 5 -20 20v45c0 20 0 20 -20 20h-291c-15 0 -20 5 -20 20v660c0 15 5 20 20 20h60c15 0 20 -5 20 -20v-566c0 -20 0 -20 20 -20h91c20 0 20 0 20 20v566c0 15 5 20 20 20h60c15 0 20 -5 20 -20v-566
c0 -20 0 -20 20 -20h60z" />
    <glyph glyph-name="uni0427" unicode="&#x427;" horiz-adv-x="380" 
d="M210 373c20 0 20 0 20 20v287c0 15 5 20 20 20h60c15 0 20 -5 20 -20v-660c0 -15 -5 -20 -20 -20h-60c-15 0 -20 5 -20 20v244c0 20 0 20 -20 20h-30c-100 0 -150 50 -150 200v196c0 15 5 20 20 20h60c15 0 20 -5 20 -20v-205c0 -51 0 -102 50 -102h30z" />
    <glyph glyph-name="uni0428" unicode="&#x428;" horiz-adv-x="563" 
d="M232 680c0 15 5 20 20 20h59c15 0 20 -5 20 -20v-566c0 -20 0 -20 20 -20h42c20 0 20 0 20 20v566c0 15 5 20 20 20h60c15 0 20 -5 20 -20v-660c0 -15 -5 -20 -20 -20h-423c-15 0 -20 5 -20 20v660c0 15 5 20 20 20h60c15 0 20 -5 20 -20v-566c0 -20 0 -20 20 -20h42
c20 0 20 0 20 20v566z" />
    <glyph glyph-name="uni0429" unicode="&#x429;" horiz-adv-x="629" 
d="M594 94c15 0 20 -5 20 -20v-139c0 -15 -5 -20 -20 -20h-60c-15 0 -20 5 -20 20v45c0 20 0 20 -20 20h-424c-15 0 -20 5 -20 20v660c0 15 5 20 20 20h60c15 0 20 -5 20 -20v-566c0 -20 0 -20 20 -20h42c20 0 20 0 20 20v566c0 15 5 20 20 20h60c15 0 20 -5 20 -20v-566
c0 -20 0 -20 20 -20h42c20 0 20 0 20 20v566c0 15 5 20 20 20h60c15 0 20 -5 20 -20v-566c0 -20 0 -20 20 -20h60z" />
    <glyph glyph-name="uni042A" unicode="&#x42a;" horiz-adv-x="430" 
d="M210 500h30c100 0 150 -50 150 -200v-100c0 -150 -50 -200 -150 -200h-130c-15 0 -20 5 -20 20v566c0 20 0 20 -20 20h-35c-15 0 -20 5 -20 20v54c0 15 5 20 20 20h135c15 0 20 -5 20 -20v-160c0 -20 0 -20 20 -20zM190 391v-282c0 -20 0 -20 20 -20h30
c50 0 50 51 50 102v118c0 51 0 102 -50 102h-30c-20 0 -20 0 -20 -20z" />
    <glyph glyph-name="uni042C" unicode="&#x42c;" horiz-adv-x="390" 
d="M50 20v660c0 15 5 20 20 20h60c15 0 20 -5 20 -20v-160c0 -20 0 -20 20 -20h30c100 0 150 -50 150 -200v-100c0 -150 -50 -200 -150 -200h-130c-15 0 -20 5 -20 20zM150 391v-282c0 -20 0 -20 20 -20h30c50 0 50 51 50 102v118c0 51 0 102 -50 102h-30
c-20 0 -20 0 -20 -20z" />
    <glyph glyph-name="uni042B" unicode="&#x42b;" horiz-adv-x="545" 
d="M415 0c-10 0 -20 0 -20 20v660c0 15 5 20 20 20h60c15 0 20 -5 20 -20v-660c0 -20 -10 -20 -20 -20h-60zM50 20v660c0 15 5 20 20 20h60c15 0 20 -5 20 -20v-160c0 -20 0 -20 20 -20h30c100 0 150 -50 150 -200v-100c0 -150 -50 -200 -150 -200h-130c-15 0 -20 5 -20 20z
M150 391v-282c0 -20 0 -20 20 -20h30c50 0 50 51 50 102v118c0 51 0 102 -50 102h-30c-20 0 -20 0 -20 -20z" />
    <glyph glyph-name="uni042D" unicode="&#x42d;" horiz-adv-x="395" 
d="M255 160v124c0 20 0 20 -20 20h-111c-15 0 -20 5 -20 20v54c0 15 5 20 20 20h111c20 0 20 0 20 20v122c0 52 -29 72 -60 72s-60 -20 -60 -72v-7c0 -15 -5 -20 -20 -20h-59c-15 0 -21 12 -20 26c9 119 81 165 159 165c83 0 160 -52 160 -190v-328
c0 -138 -77 -190 -160 -190c-78 0 -150 46 -159 165c-1 14 5 26 20 26h59c15 0 20 -5 20 -20v-7c0 -52 29 -72 60 -72s60 20 60 72z" />
    <glyph glyph-name="uni042E" unicode="&#x42e;" horiz-adv-x="558" 
d="M418 510c0 51 0 102 -50 102s-50 -52 -50 -102v-320c0 -50 0 -102 50 -102s50 51 50 102v320zM198 416c20 0 20 0 20 20v68c0 151 50 200 150 200s150 -50 150 -200v-308c0 -150 -50 -200 -150 -200s-150 49 -150 200v106c0 20 0 20 -20 20h-28c-20 0 -20 0 -20 -20v-282
c0 -15 -5 -20 -20 -20h-60c-15 0 -20 5 -20 20v660c0 15 5 20 20 20h60c15 0 20 -5 20 -20v-244c0 -20 0 -20 20 -20h28z" />
    <glyph glyph-name="uni042F" unicode="&#x42f;" horiz-adv-x="391" 
d="M191 700h130c15 0 20 -5 20 -20v-660c0 -15 -5 -20 -20 -20h-60c-15 0 -20 5 -20 20v253c0 20 0 20 -20 20h-19c-4 0 -10 0 -12 -9l-51 -269c-3 -15 -9 -15 -22 -15h-63c-8 0 -16 5 -12 21l60 298c-35 26 -61 72 -61 163v32c0 138 67 186 150 186zM221 612h-30
c-31 0 -50 -20 -50 -72v-88c0 -51 19 -71 50 -71h30c20 0 20 0 20 20v191c0 20 0 20 -20 20z" />
    <glyph glyph-name="uni0430" unicode="&#x430;" horiz-adv-x="382" 
d="M337 350v-281c1 -21 5 -37 8 -49c3 -15 -5 -20 -20 -20h-56c-14 0 -19 3 -22 30c0 0 -32 -34 -83 -34c-72 0 -127 44 -127 133v44c0 110 95 122 155 144c30 11 45 26 45 50c0 23 -18 45 -45 45c-25 0 -49 -21 -47 -59c1 -15 -4 -20 -20 -20h-56c-15 0 -19 5 -20 20
c-3 83 61 151 143 151c75 0 145 -58 145 -154zM187 88c43 0 49 38 50 80v80c-54 -24 -100 -35 -100 -85v-8c0 -15 0 -67 50 -67z" />
    <glyph glyph-name="uni0431" unicode="&#x431;" horiz-adv-x="380" 
d="M140 503v-30c17 16 39 30 71 31c72 2 129 -51 129 -170v-154c0 -138 -79 -184 -150 -184s-150 46 -150 184v262c0 151 46 189 146 189c21 0 44 -1 44 49c0 15 5 20 20 20h46c15 0 20 -5 20 -20c0 -113 -47 -134 -134 -134c-41 0 -42 -38 -42 -43zM140 336v-172
c0 -60 23 -76 50 -76s50 16 50 76v172c0 60 -23 76 -50 76s-50 -16 -50 -76z" />
    <glyph glyph-name="uni0433" unicode="&#x433;" horiz-adv-x="280" 
d="M50 480c0 15 5 20 20 20h175c15 0 20 -5 20 -20v-54c0 -15 -5 -20 -20 -20h-75c-20 0 -20 0 -20 -20v-366c0 -15 -5 -20 -20 -20h-60c-15 0 -20 5 -20 20v460z" />
    <glyph glyph-name="uni0435" unicode="&#x435;" horiz-adv-x="380" 
d="M240 342c-1 55 -24 70 -50 70s-48 -15 -50 -70c0 -20 0 -20 20 -20h60c20 0 20 0 20 20zM140 213v-49c0 -60 23 -76 50 -76c20 0 46 11 48 53c1 17 2 26 20 26h57c15 0 19 -5 20 -20c3 -57 -40 -151 -145 -151c-71 0 -150 46 -150 184v140c0 138 79 184 150 184
s150 -46 150 -184v-67c0 -16 -5 -20 -21 -20h-159c-15 0 -20 -5 -20 -20z" />
    <glyph glyph-name="uni0436" unicode="&#x436;" horiz-adv-x="504" 
d="M275 0h-46c-15 0 -20 5 -20 20v182c0 6 -6 8 -9 2l-81 -189c-6 -14 -9 -15 -22 -15h-64c-8 0 -17 6 -11 21l99 229l-99 229c-6 15 3 21 11 21h64c13 0 16 -1 22 -15l81 -189c3 -6 9 -4 9 2v182c0 15 5 20 20 20h46c15 0 20 -5 20 -20v-182c0 -6 6 -8 9 -2l81 189
c6 14 9 15 22 15h64c8 0 17 -6 11 -21l-99 -229l99 -229c6 -15 -3 -21 -11 -21h-64c-13 0 -16 1 -22 15l-81 189c-3 6 -9 4 -9 -2v-182c0 -15 -5 -20 -20 -20z" />
    <glyph glyph-name="uni043E" unicode="&#x43e;" horiz-adv-x="380" 
d="M340 320v-140c0 -138 -79 -184 -150 -184s-150 46 -150 184v140c0 138 79 184 150 184s150 -46 150 -184zM240 336c0 60 -23 76 -50 76s-50 -16 -50 -76v-172c0 -60 23 -76 50 -76s50 16 50 76v172z" />
    <glyph glyph-name="uni0441" unicode="&#x441;" horiz-adv-x="376" 
d="M190 -4c-71 0 -150 46 -150 184v140c0 138 79 184 150 184c105 0 148 -94 145 -151c-1 -15 -5 -20 -20 -20h-57c-18 0 -19 9 -20 26c-2 42 -28 53 -48 53c-27 0 -50 -16 -50 -76v-172c0 -60 23 -76 50 -76c20 0 46 11 48 53c1 17 2 26 20 26h57c15 0 19 -5 20 -20
c3 -57 -40 -151 -145 -151z" />
    <glyph glyph-name="uni0440" unicode="&#x440;" horiz-adv-x="398" 
d="M150 164c0 -60 27 -76 54 -76s54 16 54 76v172c0 60 -27 76 -54 76s-54 -16 -54 -76v-172zM70 500h60c15 0 20 -5 20 -20v-13c15 20 38 35 74 37c75 3 134 -47 134 -170v-168c0 -123 -59 -173 -134 -170c-36 2 -59 18 -74 38v-194c0 -15 -5 -20 -20 -20h-60
c-15 0 -20 5 -20 20v640c0 15 6 20 20 20z" />
    <glyph glyph-name="uni0443" unicode="&#x443;" horiz-adv-x="352" 
d="M176 157c2 0 3 1 4 4l52 324c3 15 9 15 22 15h60c10 0 20 0 17 -17l-99 -495c-28 -145 -78 -168 -154 -168c-15 0 -20 5 -20 20v54c0 15 5 20 20 20c54 1 47 50 42 77l-99 492c-3 17 7 17 17 17h60c13 0 19 0 22 -15l52 -324c0 -2 2 -4 4 -4z" />
    <glyph glyph-name="uni044E" unicode="&#x44e;" horiz-adv-x="523" 
d="M483 309v-118c0 -139 -55 -191 -145 -191s-145 50 -145 191c0 11 -5 11 -20 11h-3c-20 0 -20 0 -20 -20v-162c0 -15 -5 -20 -20 -20h-60c-15 0 -20 5 -20 20v460c0 15 5 20 20 20h60c15 0 20 -5 20 -20v-162c0 -20 0 -20 20 -20h3c15 0 20 0 20 11c0 141 55 191 145 191
s145 -51 145 -191zM383 191v118c0 51 0 102 -45 102s-45 -52 -45 -102v-118c0 -50 0 -102 45 -102s45 51 45 102z" />
    <glyph glyph-name="uni0455" unicode="&#x455;" horiz-adv-x="332" 
d="M128 374c-1 -74 194 -110 183 -247c-5 -62 -59 -131 -145 -131c-93 0 -146 81 -146 140c0 15 5 20 20 20h58c15 0 20 -5 20 -20c0 -30 25 -48 48 -48c22 0 47 18 48 48c4 90 -170 107 -178 234c-5 77 60 134 130 134c69 0 133 -57 133 -134v-3c0 -15 -5 -20 -20 -20h-52
c-14 0 -20 4 -20 24c0 25 -17 43 -40 43c-22 0 -39 -18 -39 -40z" />
    <glyph glyph-name="uni0442" unicode="&#x442;" horiz-adv-x="310" 
d="M15 480c0 15 5 20 20 20h240c15 0 20 -5 20 -20v-54c0 -15 -5 -20 -20 -20h-50c-20 0 -20 0 -20 -20v-366c0 -15 -5 -20 -20 -20h-60c-15 0 -20 5 -20 20v366c0 20 0 20 -19 20h-51c-15 0 -20 5 -20 20v54z" />
    <glyph glyph-name="uni0453" unicode="&#x453;" horiz-adv-x="267" 
d="M232 405c-16 4 -23 5 -32 5c-50 0 -50 -52 -50 -102v-288c0 -15 -5 -20 -20 -20h-60c-15 0 -20 5 -20 20v460c0 15 5 20 20 20h60c15 0 20 -5 20 -20v-12c23 23 51 31 72 32h10c15 0 20 -5 20 -20v-55c0 -15 -5 -24 -20 -20zM80 549c-7 0 -10 3 -10 10v98
c0 17 6 21 21 21h59c15 0 20 -8 13 -27l-30 -85c-5 -15 -7 -17 -17 -17h-36z" />
    <glyph glyph-name="uni0458" unicode="&#x458;" 
d="M44 601c0 31 24 56 56 56c31 0 56 -25 56 -56c0 -32 -25 -56 -56 -56c-32 0 -56 24 -56 56zM16 -86c34 4 34 48 34 109v457c0 15 5 20 20 20h60c15 0 20 -5 20 -20v-484c0 -137 -57 -176 -134 -176c-15 0 -20 5 -20 20v54c0 15 5 19 20 20z" />
    <glyph glyph-name="uni045F" unicode="&#x45f;" horiz-adv-x="410" 
d="M360 20c0 -15 -5 -20 -20 -20h-85s-5 0 -5 -5v-60c0 -15 -5 -20 -20 -20h-50c-15 0 -20 5 -20 20v60c0 5 -5 5 -5 5h-85c-15 0 -20 5 -20 20v460c0 15 5 20 20 20h60c15 0 20 -5 20 -20v-371c0 -15 0 -15 15 -15h80c15 0 15 0 15 15v371c0 15 5 20 20 20h60
c15 0 20 -5 20 -20v-460z" />
    <glyph glyph-name="uni045E" unicode="&#x45e;" horiz-adv-x="352" 
d="M176 157c2 0 3 1 4 4l52 324c3 15 9 15 22 15h60c10 0 20 0 17 -17l-99 -495c-28 -145 -78 -168 -154 -168c-15 0 -20 5 -20 20v54c0 15 5 20 20 20c54 1 47 50 42 77l-99 492c-3 17 7 17 17 17h60c13 0 19 0 22 -15l52 -324c0 -2 2 -4 4 -4zM176 545
c-55 0 -110 40 -114 118c-1 20 2 20 19 20h27c15 0 18 0 20 -17c4 -35 21 -55 48 -55s44 20 48 55c2 17 5 17 20 17h27c17 0 20 0 19 -20c-4 -78 -59 -118 -114 -118z" />
    <glyph glyph-name="uni043B" unicode="&#x43b;" horiz-adv-x="424" 
d="M354 500c15 0 20 -5 20 -20v-460c0 -15 -5 -20 -20 -20h-60c-15 0 -20 5 -20 20v366c0 20 0 20 -20 20h-35c-20 0 -20 0 -20 -20v-186c0 -151 -50 -200 -164 -200c-15 0 -20 5 -20 20v54c0 15 5 19 20 20c64 4 64 43 64 104v282c0 15 5 20 20 20h235z" />
    <glyph glyph-name="uni0451" unicode="&#x451;" horiz-adv-x="380" 
d="M240 342c-1 55 -24 70 -50 70s-48 -15 -50 -70c0 -20 0 -20 20 -20h60c20 0 20 0 20 20zM140 213v-49c0 -60 23 -76 50 -76c20 0 46 11 48 53c1 17 2 26 20 26h57c15 0 19 -5 20 -20c3 -57 -40 -151 -145 -151c-71 0 -150 46 -150 184v140c0 138 79 184 150 184
s150 -46 150 -184v-67c0 -16 -5 -20 -21 -20h-159c-15 0 -20 -5 -20 -20zM70 601c0 31 25 56 56 56s56 -25 56 -56s-25 -56 -56 -56s-56 25 -56 56zM204 601c0 31 25 56 56 56s56 -25 56 -56s-25 -56 -56 -56s-56 25 -56 56z" />
    <glyph glyph-name="uni044A" unicode="&#x44a;" horiz-adv-x="381" 
d="M80 387c0 19 0 19 -19 19h-36c-15 0 -20 5 -20 20v54c0 15 5 20 20 20h135c15 0 20 -5 20 -20v-144c0 -19 0 -19 19 -19h21c87 0 141 -65 141 -158c0 -82 -43 -159 -141 -159h-120c-15 0 -20 5 -20 20v367zM215 94c38 0 49 28 49 64c0 37 -11 65 -49 65h-15
c-20 0 -20 0 -20 -20v-89c0 -20 0 -20 20 -20h15z" />
    <glyph glyph-name="uni044C" unicode="&#x44c;" horiz-adv-x="351" 
d="M331 159c0 -82 -43 -159 -141 -159h-120c-15 0 -20 5 -20 20v460c0 15 5 20 20 20h60c15 0 20 -5 20 -20v-144c0 -19 0 -19 19 -19h21c87 0 141 -65 141 -158zM185 94c38 0 49 28 49 64c0 37 -11 65 -49 65h-15c-20 0 -20 0 -20 -20v-89c0 -20 0 -20 20 -20h15z" />
    <glyph glyph-name="uni044B" unicode="&#x44b;" horiz-adv-x="526" 
d="M396 0c-10 0 -20 0 -20 20v460c0 15 5 20 20 20h60c15 0 20 -5 20 -20v-460c0 -20 -10 -20 -20 -20h-60zM331 159c0 -82 -43 -159 -141 -159h-120c-15 0 -20 5 -20 20v460c0 15 5 20 20 20h60c15 0 20 -5 20 -20v-144c0 -19 0 -19 19 -19h21c87 0 141 -65 141 -158z
M185 94c38 0 49 28 49 64c0 37 -11 65 -49 65h-15c-20 0 -20 0 -20 -20v-89c0 -20 0 -20 20 -20h15z" />
    <glyph glyph-name="uni0432" unicode="&#x432;" horiz-adv-x="371" 
d="M331 346c0 -36 -8 -70 -25 -96c17 -27 25 -60 25 -96c0 -93 -54 -154 -141 -154h-120c-15 0 -20 5 -20 20v460c0 15 5 20 20 20h120c87 0 141 -61 141 -154zM190 218h-20c-20 0 -20 0 -20 -20v-89c0 -20 0 -20 20 -20h20c38 0 49 28 49 65c0 36 -11 64 -49 64zM190 282
c38 0 49 28 49 64c0 37 -11 65 -49 65h-20c-20 0 -20 0 -20 -20v-89c0 -20 0 -20 20 -20h20z" />
    <glyph glyph-name="uni043F" unicode="&#x43f;" horiz-adv-x="390" 
d="M170 406c-20 0 -20 0 -20 -20v-366c0 -15 -5 -20 -20 -20h-60c-15 0 -20 5 -20 20v460c0 15 5 20 20 20h250c15 0 20 -5 20 -20v-460c0 -15 -5 -20 -20 -20h-60c-15 0 -20 5 -20 20v366c0 20 0 20 -20 20h-50z" />
    <glyph glyph-name="uni043D" unicode="&#x43d;" horiz-adv-x="390" 
d="M260 0c-15 0 -20 5 -20 20v169c0 20 0 20 -20 20h-50c-20 0 -20 0 -20 -20v-169c0 -15 -5 -20 -20 -20h-60c-15 0 -20 5 -20 20v460c0 15 5 20 20 20h60c15 0 20 -5 20 -20v-157c0 -20 0 -20 20 -20h50c20 0 20 0 20 20v157c0 15 5 20 20 20h60c15 0 20 -5 20 -20v-460
c0 -15 -5 -20 -20 -20h-60z" />
    <glyph glyph-name="uni0448" unicode="&#x448;" horiz-adv-x="543" 
d="M222 480c0 15 5 20 20 20h59c15 0 20 -5 20 -20v-366c0 -20 0 -20 20 -20h32c20 0 20 0 20 20v366c0 15 5 20 20 20h60c15 0 20 -5 20 -20v-460c0 -15 -5 -20 -20 -20h-403c-15 0 -20 5 -20 20v460c0 15 5 20 20 20h60c15 0 20 -5 20 -20v-366c0 -20 0 -20 20 -20h32
c20 0 20 0 20 20v366z" />
    <glyph glyph-name="uni0449" unicode="&#x449;" horiz-adv-x="599" 
d="M564 94c15 0 20 -5 20 -20v-139c0 -15 -5 -20 -20 -20h-50c-15 0 -20 5 -20 20v45c0 20 0 20 -20 20h-404c-15 0 -20 5 -20 20v460c0 15 5 20 20 20h60c15 0 20 -5 20 -20v-366c0 -20 0 -20 20 -20h32c20 0 20 0 20 20v366c0 15 5 20 20 20h60c15 0 20 -5 20 -20v-366
c0 -20 0 -20 20 -20h32c20 0 20 0 20 20v366c0 15 5 20 20 20h60c15 0 20 -5 20 -20v-366c0 -20 0 -20 20 -20h50z" />
    <glyph glyph-name="uni0447" unicode="&#x447;" horiz-adv-x="370" 
d="M200 250c20 0 20 0 20 20v210c0 15 5 20 20 20h60c15 0 20 -5 20 -20v-460c0 -15 -5 -20 -20 -20h-60c-15 0 -20 5 -20 20v121c0 20 0 20 -20 20h-20c-100 0 -150 50 -150 200v119c0 15 5 20 20 20h60c15 0 20 -5 20 -20v-128c0 -51 0 -102 50 -102h20z" />
    <glyph glyph-name="uni044D" unicode="&#x44d;" horiz-adv-x="368" 
d="M328 184c-1 -138 -56 -188 -145 -188c-94 0 -136 61 -142 151c-1 15 5 20 20 20h57c15 0 19 -5 20 -20c2 -23 8 -59 45 -59c45 0 45 53 45 103c0 12 -7 12 -19 12h-20c-15 0 -20 5 -20 20v54c0 15 5 20 20 20h20c12 0 19 0 19 12c0 50 0 103 -45 103
c-37 0 -43 -36 -45 -59c-1 -15 -5 -20 -20 -20h-57c-15 0 -21 5 -20 20c6 90 48 151 142 151c89 0 143 -50 145 -187v-133z" />
    <glyph glyph-name="uni0446" unicode="&#x446;" horiz-adv-x="446" 
d="M411 94c15 0 20 -5 20 -20v-139c0 -15 -5 -20 -20 -20h-50c-15 0 -20 5 -20 20v45c0 20 0 20 -20 20h-251c-15 0 -20 5 -20 20v460c0 15 5 20 20 20h60c15 0 20 -5 20 -20v-366c0 -20 0 -20 20 -20h51c20 0 20 0 20 20v366c0 15 5 20 20 20h60c15 0 20 -5 20 -20v-366
c0 -20 0 -20 20 -20h50z" />
    <glyph glyph-name="uni044F" unicode="&#x44f;" horiz-adv-x="371" 
d="M40 341c0 82 43 159 141 159h120c15 0 20 -5 20 -20v-460c0 -15 -5 -20 -20 -20h-60c-15 0 -20 5 -20 20v144c0 19 0 19 -19 19c-8 0 -11 -1 -15 -13l-46 -152c-4 -14 -9 -18 -22 -18h-60c-15 0 -19 8 -16 20l56 188c-37 27 -59 74 -59 133zM201 406h-12
c-38 0 -49 -28 -49 -64c0 -37 11 -65 49 -65h12c20 0 20 0 20 20v89c0 20 0 20 -20 20z" />
    <glyph glyph-name="uni0459" unicode="&#x459;" horiz-adv-x="575" 
d="M274 386c0 20 0 20 -20 20h-35c-20 0 -20 0 -20 -20v-186c0 -151 -50 -200 -164 -200c-15 0 -20 5 -20 20v54c0 15 5 19 20 20c64 4 64 43 64 104v282c0 15 5 20 20 20h235c15 0 20 -5 20 -20v-146c0 -17 1 -17 19 -17h21c87 0 141 -65 141 -158
c0 -82 -43 -159 -141 -159h-120c-15 0 -20 5 -20 20v366zM409 94c38 0 49 28 49 64c0 37 -11 65 -49 65h-15c-20 0 -20 0 -20 -20v-89c0 -20 0 -20 20 -20h15z" />
    <glyph glyph-name="uni045A" unicode="&#x45a;" horiz-adv-x="526" 
d="M225 386c0 20 0 20 -20 20h-35c-20 0 -20 0 -20 -20v-366c0 -15 -5 -20 -20 -20h-60c-15 0 -20 5 -20 20v460c0 15 5 20 20 20h235c15 0 20 -5 20 -20v-144c0 -19 0 -19 19 -19h21c87 0 141 -65 141 -158c0 -82 -43 -159 -141 -159h-120c-15 0 -20 5 -20 20v366zM360 94
c38 0 49 28 49 64c0 37 -11 65 -49 65h-15c-20 0 -20 0 -20 -20v-89c0 -20 0 -20 20 -20h15z" />
    <glyph glyph-name="uni0454" unicode="&#x454;" horiz-adv-x="368" 
d="M40 184v133c2 137 56 187 145 187c94 0 136 -61 142 -151c1 -15 -5 -20 -20 -20h-57c-15 0 -19 5 -20 20c-2 23 -8 59 -45 59c-45 0 -45 -53 -45 -103c0 -12 7 -12 19 -12h20c15 0 20 -5 20 -20v-54c0 -15 -5 -20 -20 -20h-20c-12 0 -19 0 -19 -12c0 -50 0 -103 45 -103
c37 0 43 36 45 59c1 15 5 20 20 20h57c15 0 21 -5 20 -20c-6 -90 -48 -151 -142 -151c-89 0 -144 50 -145 188z" />
    <glyph glyph-name="uni0437" unicode="&#x437;" horiz-adv-x="373" 
d="M176 277c0 15 5 20 20 20c27 0 39 22 39 53c0 49 -25 62 -49 62c-20 0 -46 -11 -48 -53c-1 -17 -2 -26 -20 -26h-57c-15 0 -19 5 -20 20c-3 57 40 151 145 151c65 0 146 -39 146 -151c2 -44 -20 -86 -40 -103c20 -17 40 -59 40 -103c0 -112 -81 -151 -146 -151
c-105 0 -148 94 -145 151c1 15 5 20 20 20h57c18 0 19 -9 20 -26c2 -42 28 -53 48 -53c24 0 49 13 49 62c0 31 -12 53 -39 53c-15 0 -20 5 -20 20v54z" />
    <glyph glyph-name="uni0438" unicode="&#x438;" horiz-adv-x="405" 
d="M115 0h-45c-15 0 -20 5 -20 20v460c0 15 5 20 20 20h60c15 0 20 -5 20 -20v-230c0 -5 5 -7 8 0l112 237c6 13 9 13 20 13h45c15 0 20 -5 20 -20v-460c0 -15 -5 -20 -20 -20h-60c-15 0 -20 5 -20 20v231c0 4 -5 7 -8 0l-112 -239c-5 -11 -9 -12 -20 -12z" />
    <glyph glyph-name="uni0439" unicode="&#x439;" horiz-adv-x="405" 
d="M115 0h-45c-15 0 -20 5 -20 20v460c0 15 5 20 20 20h60c15 0 20 -5 20 -20v-230c0 -5 5 -7 8 0l112 237c6 13 9 13 20 13h45c15 0 20 -5 20 -20v-460c0 -15 -5 -20 -20 -20h-60c-15 0 -20 5 -20 20v231c0 4 -5 7 -8 0l-112 -239c-5 -11 -9 -12 -20 -12zM161 662
c6 -70 89 -72 96 0c2 20 5 20 20 20h27c19 0 20 0 19 -20c-8 -155 -220 -157 -228 0c-1 20 0 20 19 20h27c15 0 18 0 20 -20z" />
    <glyph glyph-name="uni043C" unicode="&#x43c;" horiz-adv-x="504" 
d="M247 214c2 -5 8 -5 10 0l112 273c5 13 9 13 20 13h45c15 0 20 -5 20 -20v-460c0 -15 -5 -20 -20 -20h-60c-15 0 -20 5 -20 20v200c0 4 -5 7 -8 1l-89 -218c-2 -4 -8 -4 -10 0l-89 218c-3 6 -8 3 -8 -1v-200c0 -15 -5 -20 -20 -20h-60c-15 0 -20 5 -20 20v460
c0 15 5 20 20 20h45c11 0 15 0 20 -13z" />
    <glyph glyph-name="uni043A" unicode="&#x43a;" horiz-adv-x="354" 
d="M50 480c0 15 5 20 20 20h60c15 0 20 -5 20 -20v-182c0 -6 6 -8 9 -2l81 189c6 14 9 15 22 15h64c8 0 17 -6 11 -21l-99 -229l99 -229c6 -15 -3 -21 -11 -21h-64c-13 0 -16 1 -22 15l-81 189c-3 6 -9 4 -9 -2v-182c0 -15 -5 -20 -20 -20h-60c-15 0 -20 5 -20 20v460z" />
    <glyph glyph-name="uni0445" unicode="&#x445;" horiz-adv-x="341" 
d="M221 15l-51 117l-50 -117c-7 -15 -11 -15 -24 -15h-62c-8 0 -18 5 -11 21l97 228l-98 230c-6 15 3 21 11 21h64c13 0 16 -1 22 -15l51 -120l52 120c6 14 9 15 22 15h64c8 0 17 -6 11 -21l-99 -230l98 -228c7 -16 -3 -21 -11 -21h-62c-13 0 -17 0 -24 15z" />
    <glyph glyph-name="uni045C" unicode="&#x45c;" horiz-adv-x="354" 
d="M50 480c0 15 5 20 20 20h60c15 0 20 -5 20 -20v-182c0 -6 6 -8 9 -2l81 189c6 14 9 15 22 15h64c8 0 17 -6 11 -21l-99 -229l99 -229c6 -15 -3 -21 -11 -21h-64c-13 0 -16 1 -22 15l-81 189c-3 6 -9 4 -9 -2v-182c0 -15 -5 -20 -20 -20h-60c-15 0 -20 5 -20 20v460z
M172 549c-7 0 -10 3 -10 10v98c0 17 6 21 21 21h59c15 0 20 -8 13 -27l-30 -85c-5 -15 -7 -17 -17 -17h-36z" />
    <glyph glyph-name="uni045B" unicode="&#x45b;" horiz-adv-x="420" 
d="M25 540c-15 0 -20 5 -20 20v54c0 15 5 20 20 20h36c19 0 19 0 19 20v26c0 15 5 20 20 20h60c15 0 20 -5 20 -20v-26c0 -20 0 -20 20 -20h35c15 0 20 -5 20 -20v-54c0 -15 -5 -20 -20 -20h-35c-20 0 -20 0 -20 -20v-50c23 23 52 30 73 30c75 0 127 -41 127 -191v-119
c0 -150 -52 -190 -127 -190c-31 0 -45 0 -42 21l8 55c2 13 7 13 11 13c50 0 50 50 50 101v119c0 51 0 102 -50 102s-50 -52 -50 -102v-289c0 -15 -5 -20 -20 -20h-60c-15 0 -20 5 -20 20v500c0 20 0 20 -19 20h-36z" />
    <glyph glyph-name="uni0452" unicode="&#x452;" horiz-adv-x="420" 
d="M280 309c0 51 0 102 -50 102s-50 -52 -50 -102v-289c0 -15 -5 -20 -20 -20h-60c-15 0 -20 5 -20 20v500c0 20 0 20 -19 20h-36c-15 0 -20 5 -20 20v54c0 15 5 20 20 20h36c19 0 19 0 19 20v26c0 15 5 20 20 20h60c15 0 20 -5 20 -20v-26c0 -20 0 -20 20 -20h35
c15 0 20 -5 20 -20v-54c0 -15 -5 -20 -20 -20h-35c-20 0 -20 0 -20 -20v-50c23 23 52 30 73 30c75 0 127 -41 127 -191v-207c0 -150 -52 -190 -127 -190c-31 0 -45 0 -42 21l8 55c2 13 7 13 11 13c50 0 50 50 50 101v207z" />
    <glyph glyph-name="uni0444" unicode="&#x444;" horiz-adv-x="509" 
d="M228 -49c-14 0 -20 5 -20 20v9c0 19 0 20 -18 20c-100 0 -150 50 -150 199v102c0 149 50 199 150 199c18 0 18 1 18 20v9c0 15 6 20 20 20h53c14 0 20 -5 20 -20v-9c0 -19 0 -20 18 -20c100 0 150 -50 150 -199v-102c0 -149 -50 -199 -150 -199c-18 0 -18 -1 -18 -20v-9
c0 -15 -6 -20 -20 -20h-53zM369 191v118c0 51 0 102 -50 102c-18 0 -18 0 -18 -18v-286c0 -18 0 -18 20 -18c48 0 48 51 48 102zM140 309v-118c0 -51 0 -102 48 -102c20 0 20 0 20 18v286c0 18 0 18 -18 18c-50 0 -50 -51 -50 -102z" />
    <glyph glyph-name="uni0434" unicode="&#x434;" horiz-adv-x="482" 
d="M377 480v-386h70c15 0 20 -5 20 -20v-139c0 -15 -5 -20 -20 -20h-50c-15 0 -20 5 -20 20v50c0 10 -5 15 -15 15h-242c-10 0 -15 -5 -15 -15v-50c0 -15 -5 -20 -20 -20h-50c-15 0 -20 5 -20 20v139c0 15 5 20 20 20h29s75 90 74 386c0 15 5 20 20 20h199
c15 0 20 -5 20 -20zM233 392c0 -195 -62 -298 -62 -298h106v298c0 10 -5 15 -15 15h-14c-10 0 -15 -5 -15 -15z" />
    <glyph glyph-name="uni0457" unicode="&#x457;" 
d="M70 0c-15 0 -20 5 -20 20v460c0 15 5 20 20 20h60c15 0 20 -5 20 -20v-460c0 -15 -5 -20 -20 -20h-60zM-23 601c0 31 25 56 56 56s56 -25 56 -56s-25 -56 -56 -56s-56 25 -56 56zM111 601c0 31 25 56 56 56s56 -25 56 -56s-25 -56 -56 -56s-56 25 -56 56z" />
    <glyph glyph-name="uni0456" unicode="&#x456;" 
d="M70 0c-10 0 -20 0 -20 20v460c0 15 5 20 20 20h60c15 0 20 -5 20 -20v-460c0 -20 -10 -20 -20 -20h-60zM44 601c0 31 24 56 56 56c31 0 56 -25 56 -56c0 -32 -25 -56 -56 -56c-32 0 -56 24 -56 56z" />
    <glyph glyph-name="a.salt" horiz-adv-x="398" 
d="M328 0h-60c-15 0 -20 5 -20 20v13c-15 -20 -38 -35 -74 -37c-75 -3 -134 47 -134 170v168c0 123 59 173 134 170c36 -2 59 -18 74 -38v14c0 15 5 20 20 20h60c15 0 20 -5 20 -20v-460c0 -15 -5 -20 -20 -20zM248 174v136c0 50 -4 102 -54 102s-54 -51 -54 -102v-121
c0 -51 4 -101 54 -101c45 0 53 41 54 86z" />
    <glyph glyph-name="aacute.salt" horiz-adv-x="398" 
d="M328 0h-60c-15 0 -20 5 -20 20v13c-15 -20 -38 -35 -74 -37c-75 -3 -134 47 -134 170v168c0 123 59 173 134 170c36 -2 59 -18 74 -38v14c0 15 5 20 20 20h60c15 0 20 -5 20 -20v-460c0 -15 -5 -20 -20 -20zM248 174v136c0 50 -4 102 -54 102s-54 -51 -54 -102v-121
c0 -51 4 -101 54 -101c45 0 53 41 54 86zM173 549c-7 0 -10 3 -10 10v98c0 17 6 21 21 21h59c15 0 20 -8 13 -27l-30 -85c-5 -15 -7 -17 -17 -17h-36z" />
    <glyph glyph-name="abreve.salt" horiz-adv-x="398" 
d="M145 662c6 -70 89 -72 96 0c2 20 5 20 20 20h27c19 0 20 0 19 -20c-8 -155 -220 -157 -228 0c-1 20 0 20 19 20h27c15 0 18 0 20 -20zM328 0h-60c-15 0 -20 5 -20 20v13c-15 -20 -38 -35 -74 -37c-75 -3 -134 47 -134 170v168c0 123 59 173 134 170c36 -2 59 -18 74 -38
v14c0 15 5 20 20 20h60c15 0 20 -5 20 -20v-460c0 -15 -5 -20 -20 -20zM248 174v136c0 50 -4 102 -54 102s-54 -51 -54 -102v-121c0 -51 4 -101 54 -101c45 0 53 41 54 86z" />
    <glyph glyph-name="acircumflex.salt" horiz-adv-x="398" 
d="M181 674h28c7 0 10 0 15 -7l63 -104c6 -8 5 -18 -9 -18h-57c-8 0 -12 4 -13 11l-9 56c-1 5 -7 5 -8 0l-9 -56c-1 -7 -5 -11 -13 -11h-58c-13 0 -15 10 -9 18l64 104c5 7 8 7 15 7zM328 0h-60c-15 0 -20 5 -20 20v13c-15 -20 -38 -35 -74 -37c-75 -3 -134 47 -134 170v168
c0 123 59 173 134 170c36 -2 59 -18 74 -38v14c0 15 5 20 20 20h60c15 0 20 -5 20 -20v-460c0 -15 -5 -20 -20 -20zM248 174v136c0 50 -4 102 -54 102s-54 -51 -54 -102v-121c0 -51 4 -101 54 -101c45 0 53 41 54 86z" />
    <glyph glyph-name="adieresis.salt" horiz-adv-x="398" 
d="M77 601c0 31 25 56 56 56s56 -25 56 -56s-25 -56 -56 -56s-56 25 -56 56zM211 601c0 31 25 56 56 56s56 -25 56 -56s-25 -56 -56 -56s-56 25 -56 56zM328 0h-60c-15 0 -20 5 -20 20v13c-15 -20 -38 -35 -74 -37c-75 -3 -134 47 -134 170v168c0 123 59 173 134 170
c36 -2 59 -18 74 -38v14c0 15 5 20 20 20h60c15 0 20 -5 20 -20v-460c0 -15 -5 -20 -20 -20zM248 174v136c0 50 -4 102 -54 102s-54 -51 -54 -102v-121c0 -51 4 -101 54 -101c45 0 53 41 54 86z" />
    <glyph glyph-name="agrave.salt" horiz-adv-x="398" 
d="M123 654c-6 13 1 20 9 20h70c15 0 21 -4 21 -21v-87c0 -16 -4 -21 -17 -21h-18c-11 0 -16 0 -26 21c-14 30 -16 35 -39 88zM328 0h-60c-15 0 -20 5 -20 20v13c-15 -20 -38 -35 -74 -37c-75 -3 -134 47 -134 170v168c0 123 59 173 134 170c36 -2 59 -18 74 -38v14
c0 15 5 20 20 20h60c15 0 20 -5 20 -20v-460c0 -15 -5 -20 -20 -20zM248 174v136c0 50 -4 102 -54 102s-54 -51 -54 -102v-121c0 -51 4 -101 54 -101c45 0 53 41 54 86z" />
    <glyph glyph-name="amacron.salt" horiz-adv-x="398" 
d="M91 607c0 15 5 20 20 20h159c15 0 20 -5 20 -20v-38c0 -15 -5 -20 -20 -20h-159c-15 0 -20 5 -20 20v38zM328 0h-60c-15 0 -20 5 -20 20v13c-15 -20 -38 -35 -74 -37c-75 -3 -134 47 -134 170v168c0 123 59 173 134 170c36 -2 59 -18 74 -38v14c0 15 5 20 20 20h60
c15 0 20 -5 20 -20v-460c0 -15 -5 -20 -20 -20zM248 174v136c0 50 -4 102 -54 102s-54 -51 -54 -102v-121c0 -51 4 -101 54 -101c45 0 53 41 54 86z" />
    <glyph glyph-name="aogonek.salt" horiz-adv-x="400" 
d="M328 0c-6 -8 -11 -17 -13 -21c-11 -25 5 -38 25 -38c6 0 11 -3 9 -12c-8 -34 -9 -45 -16 -69c-2 -11 -6 -9 -13 -8c-65 11 -104 70 -65 130c2 4 7 11 13 18c-15 0 -20 5 -20 20v13c-15 -20 -38 -35 -74 -37c-75 -3 -134 47 -134 170v168c0 123 59 173 134 170
c36 -2 59 -18 74 -38v14c0 15 5 20 20 20h60c15 0 20 -5 20 -20v-460c0 -15 -5 -20 -20 -20zM248 174v136c0 50 -4 102 -54 102s-54 -51 -54 -102v-121c0 -51 4 -101 54 -101c45 0 53 41 54 86z" />
    <glyph glyph-name="aring.salt" horiz-adv-x="398" 
d="M190 545c-55 0 -100 45 -100 100c0 56 45 101 100 101c56 0 101 -45 101 -101c0 -55 -45 -100 -101 -100zM154 645c0 -21 15 -36 36 -36s36 15 36 36s-15 36 -36 36s-36 -15 -36 -36zM328 0h-60c-15 0 -20 5 -20 20v13c-15 -20 -38 -35 -74 -37c-75 -3 -134 47 -134 170
v168c0 123 59 173 134 170c36 -2 59 -18 74 -38v14c0 15 5 20 20 20h60c15 0 20 -5 20 -20v-460c0 -15 -5 -20 -20 -20zM248 174v136c0 50 -4 102 -54 102s-54 -51 -54 -102v-121c0 -51 4 -101 54 -101c45 0 53 41 54 86z" />
    <glyph glyph-name="atilde.salt" horiz-adv-x="398" 
d="M242 545c-25 3 -46 16 -66 21c-6 1 -18 1 -22 -14c-1 -3 -2 -7 -8 -7h-59c-4 0 -7 1 -6 6c8 42 32 91 86 86c25 -2 45 -16 66 -21c6 -1 18 -1 22 14c1 3 2 7 8 7h59c4 0 7 -1 6 -6c-8 -42 -32 -91 -86 -86zM328 0h-60c-15 0 -20 5 -20 20v13c-15 -20 -38 -35 -74 -37
c-75 -3 -134 47 -134 170v168c0 123 59 173 134 170c36 -2 59 -18 74 -38v14c0 15 5 20 20 20h60c15 0 20 -5 20 -20v-460c0 -15 -5 -20 -20 -20zM248 174v136c0 50 -4 102 -54 102s-54 -51 -54 -102v-121c0 -51 4 -101 54 -101c45 0 53 41 54 86z" />
    <glyph glyph-name="d.salt" horiz-adv-x="390" 
d="M340 20c0 -15 -5 -20 -20 -20h-130c-100 0 -150 50 -150 200v100c0 150 50 200 150 200h30c20 0 20 0 20 20v160c0 15 5 20 20 20h60c15 0 20 -5 20 -20v-660zM240 109v282c0 20 0 20 -20 20h-30c-50 0 -50 -51 -50 -102v-118c0 -51 0 -102 50 -102h30c20 0 20 0 20 20z
" />
    <glyph glyph-name="dcaron.salt" horiz-adv-x="526" 
d="M340 20c0 -15 -5 -20 -20 -20h-130c-100 0 -150 50 -150 200v100c0 150 50 200 150 200h30c20 0 20 0 20 20v160c0 15 5 20 20 20h60c15 0 20 -5 20 -20v-660zM240 109v282c0 20 0 20 -20 20h-30c-50 0 -50 -51 -50 -102v-118c0 -51 0 -102 50 -102h30c20 0 20 0 20 20z
M381 695c0 31 25 57 56 57c67 0 98 -108 -6 -212c-5 -5 -8 -6 -14 -2l-19 14c-6 4 -7 7 -3 12c72 90 -14 66 -14 131z" />
    <glyph glyph-name="dcroat.salt" horiz-adv-x="390" 
d="M340 20c0 -15 -5 -20 -20 -20h-130c-100 0 -150 50 -150 200v100c0 150 50 200 150 200h30c20 0 20 0 20 20v31c0 8 -2 10 -10 10h-90c-15 0 -20 5 -20 20v28c0 15 5 20 20 20h90c8 0 10 2 10 10v41c0 15 5 20 20 20h60c15 0 20 -5 20 -20v-41c0 -8 2 -10 10 -10
c15 0 20 -5 20 -20v-28c0 -15 -5 -20 -20 -20c-8 0 -10 -2 -10 -10v-531zM240 109v282c0 20 0 20 -20 20h-30c-50 0 -50 -51 -50 -102v-118c0 -51 0 -102 50 -102h30c20 0 20 0 20 20z" />
    <glyph glyph-name="g.salt" horiz-adv-x="398" 
d="M184 -86c64 4 64 43 64 104v16c-16 -21 -41 -38 -80 -38c-72 0 -128 50 -128 170v168c0 119 56 170 128 170c41 0 67 -20 83 -43v19c0 15 4 20 20 20h57c15 0 20 -5 20 -20v-467c-2 -145 -52 -193 -164 -193h-101c-15 0 -20 5 -20 20v56c0 12 5 18 20 18h101zM248 175
v135c0 50 -4 102 -54 102s-54 -51 -54 -102v-120c0 -51 4 -102 54 -102c45 0 53 42 54 87z" />
    <glyph glyph-name="gbreve.salt" horiz-adv-x="398" 
d="M184 -86c64 4 64 43 64 104v16c-16 -21 -41 -38 -80 -38c-72 0 -128 50 -128 170v168c0 119 56 170 128 170c41 0 67 -20 83 -43v19c0 15 4 20 20 20h57c15 0 20 -5 20 -20v-467c-2 -145 -52 -193 -164 -193h-101c-15 0 -20 5 -20 20v56c0 12 5 18 20 18h101zM248 175
v135c0 50 -4 102 -54 102s-54 -51 -54 -102v-120c0 -51 4 -102 54 -102c45 0 53 42 54 87zM194 545c-55 0 -110 40 -114 118c-1 20 2 20 19 20h27c15 0 18 0 20 -17c4 -35 21 -55 48 -55s44 20 48 55c2 17 5 17 20 17h27c17 0 20 0 19 -20c-4 -78 -59 -118 -114 -118z" />
    <glyph glyph-name="gcircumflex.salt" horiz-adv-x="398" 
d="M184 -86c64 4 64 43 64 104v16c-16 -21 -41 -38 -80 -38c-72 0 -128 50 -128 170v168c0 119 56 170 128 170c41 0 67 -20 83 -43v19c0 15 4 20 20 20h57c15 0 20 -5 20 -20v-467c-2 -145 -52 -193 -164 -193h-101c-15 0 -20 5 -20 20v56c0 12 5 18 20 18h101zM248 175
v135c0 50 -4 102 -54 102s-54 -51 -54 -102v-120c0 -51 4 -102 54 -102c45 0 53 42 54 87zM208 560l-9 56c-1 5 -7 5 -8 0l-9 -56c-2 -10 -5 -11 -13 -11h-61c-9 0 -12 8 -6 18l64 104c5 7 8 7 15 7h28c7 0 10 0 15 -7l64 -104c6 -10 3 -18 -6 -18h-61c-8 0 -11 1 -13 11z
" />
    <glyph glyph-name="gcommaaccent.salt" horiz-adv-x="398" 
d="M184 -86c64 4 64 43 64 104v16c-16 -21 -41 -38 -80 -38c-72 0 -128 50 -128 170v168c0 119 56 170 128 170c41 0 67 -20 83 -43v19c0 15 4 20 20 20h57c15 0 20 -5 20 -20v-467c-2 -145 -52 -193 -164 -193h-101c-15 0 -20 5 -20 20v56c0 12 5 18 20 18h101zM248 175
v135c0 50 -4 102 -54 102s-54 -51 -54 -102v-120c0 -51 4 -102 54 -102c45 0 53 42 54 87zM248 602c0 -31 -25 -57 -56 -57c-67 0 -98 108 6 212c5 5 8 6 14 2l19 -14c6 -4 7 -7 3 -12c-72 -90 14 -66 14 -131z" />
    <glyph glyph-name="gdotaccent.salt" horiz-adv-x="398" 
d="M184 -86c64 4 64 43 64 104v16c-16 -21 -41 -38 -80 -38c-72 0 -128 50 -128 170v168c0 119 56 170 128 170c41 0 67 -20 83 -43v19c0 15 4 20 20 20h57c15 0 20 -5 20 -20v-467c-2 -145 -52 -193 -164 -193h-101c-15 0 -20 5 -20 20v56c0 12 5 18 20 18h101zM248 175
v135c0 50 -4 102 -54 102s-54 -51 -54 -102v-120c0 -51 4 -102 54 -102c45 0 53 42 54 87zM138 601c0 31 25 56 56 56s56 -25 56 -56s-25 -56 -56 -56s-56 25 -56 56z" />
    <glyph glyph-name="l.salt" 
d="M150 20c0 -15 -5 -20 -20 -20h-60c-15 0 -20 5 -20 20v660c0 15 5 20 20 20h60c15 0 20 -5 20 -20v-660z" />
    <glyph glyph-name="lacute.salt" 
d="M150 20c0 -15 -5 -20 -20 -20h-60c-15 0 -20 5 -20 20v660c0 15 5 20 20 20h60c15 0 20 -5 20 -20v-660zM83 735c-7 0 -10 3 -10 10v98c0 17 6 21 21 21h59c15 0 20 -8 13 -27l-30 -85c-5 -15 -7 -17 -17 -17h-36z" />
    <glyph glyph-name="lcaron.salt" horiz-adv-x="326" 
d="M150 20c0 -15 -5 -20 -20 -20h-60c-15 0 -20 5 -20 20v660c0 15 5 20 20 20h60c15 0 20 -5 20 -20v-660zM190 694c0 31 25 57 56 57c67 0 98 -108 -6 -212c-5 -5 -8 -6 -14 -2l-19 14c-6 4 -7 7 -3 12c72 90 -14 66 -14 131z" />
    <glyph glyph-name="lcommaaccent.salt" 
d="M150 20c0 -15 -5 -20 -20 -20h-60c-15 0 -20 5 -20 20v660c0 15 5 20 20 20h60c15 0 20 -5 20 -20v-660zM40 -89c0 31 25 57 56 57c67 0 98 -108 -6 -212c-5 -5 -8 -6 -14 -2l-19 14c-6 4 -7 7 -3 12c72 90 -14 66 -14 131z" />
    <glyph glyph-name="ldot.salt" horiz-adv-x="315" 
d="M150 20c0 -15 -5 -20 -20 -20h-60c-15 0 -20 5 -20 20v660c0 15 5 20 20 20h60c15 0 20 -5 20 -20v-660zM182 369c0 32 25 57 56 57c32 0 57 -25 57 -57c0 -31 -25 -56 -57 -56c-31 0 -56 25 -56 56z" />
    <glyph glyph-name="lslash.salt" horiz-adv-x="251" 
d="M96 0c-15 0 -20 5 -20 20v224l-38 -38c-6 -6 -13 -4 -13 5v106c0 15 1 22 10 31l41 41v291c0 15 5 20 20 20h60c15 0 20 -5 20 -20v-180l36 36c9 9 14 3 14 -5v-112c0 -6 0 -14 -10 -24l-40 -40v-335c0 -15 -5 -20 -20 -20h-60z" />
    <glyph glyph-name="AEacute" unicode="&#x1fc;" horiz-adv-x="501" 
d="M230 0c-10 0 -20 0 -20 20v49c0 20 0 20 -20 20h-28c-20 0 -19 0 -23 -20l-9 -54c-3 -15 -9 -15 -22 -15h-60c-10 0 -20 0 -17 17l126 665c3 15 6 18 22 18h262c15 0 20 -5 20 -20v-54c0 -15 -5 -20 -20 -20h-111c-20 0 -20 0 -20 -20v-150c0 -20 0 -20 20 -20h111
c15 0 20 -5 20 -20v-54c0 -15 -5 -20 -20 -20h-111c-20 0 -20 0 -20 -20v-188c0 -20 0 -20 20 -20h111c15 0 20 -5 20 -20v-54c0 -15 -5 -20 -20 -20h-211zM161 203c-3 -20 -3 -20 17 -20h12c20 0 20 0 20 20v243c-1 5 -7 5 -8 0zM286 735c-7 0 -10 3 -10 10v98
c0 17 6 21 21 21h59c15 0 20 -8 13 -27l-30 -85c-5 -15 -7 -17 -17 -17h-36z" />
    <glyph glyph-name="trademark" unicode="&#x2122;" horiz-adv-x="377" 
d="M35 692c0 6 2 8 8 8h106c6 0 8 -2 8 -8v-22c0 -6 -2 -8 -8 -8h-25c-8 0 -8 0 -8 -8v-230c0 -6 -2 -8 -8 -8h-24c-6 0 -8 2 -8 8v230c0 8 0 8 -8 8h-25c-6 0 -8 2 -8 8v22zM256 416c-4 0 -7 0 -9 6l-25 104c0 2 -2 2 -2 0v-102c0 -6 -2 -8 -9 -8h-24c-6 0 -8 2 -8 8v268
c0 6 2 8 8 8h18c5 0 7 -1 8 -5l46 -191c0 -2 3 -2 3 0l46 191c1 4 3 5 8 5h18c6 0 8 -2 8 -8v-268c0 -6 -2 -8 -8 -8h-24c-6 0 -8 2 -8 8v102c0 2 -2 2 -3 0l-25 -104c-2 -6 -5 -6 -9 -6h-9z" />
    <glyph glyph-name="uni0430.salt" horiz-adv-x="382" 
d="M337 350v-281c1 -21 5 -37 8 -49c3 -15 -5 -20 -20 -20h-56c-14 0 -19 3 -22 30c0 0 -32 -34 -83 -34c-72 0 -127 44 -127 133v44c0 110 95 122 155 144c30 11 45 26 45 50c0 23 -18 45 -45 45c-25 0 -49 -21 -47 -59c1 -15 -4 -20 -20 -20h-56c-15 0 -19 5 -20 20
c-3 83 61 151 143 151c75 0 145 -58 145 -154zM187 88c43 0 49 38 50 80v80c-54 -24 -100 -35 -100 -85v-8c0 -15 0 -67 50 -67z" />
    <glyph glyph-name="Iacute" unicode="&#xcd;" 
d="M150 20c0 -15 -5 -20 -20 -20h-60c-15 0 -20 5 -20 20v660c0 15 5 20 20 20h60c15 0 20 -5 20 -20v-660zM82 735c-7 0 -10 3 -10 10v98c0 17 6 21 21 21h59c15 0 20 -8 13 -27l-30 -85c-5 -15 -7 -17 -17 -17h-36z" />
    <glyph glyph-name="Ibreve" unicode="&#x12c;" 
d="M150 20c0 -15 -5 -20 -20 -20h-60c-15 0 -20 5 -20 20v660c0 15 5 20 20 20h60c15 0 20 -5 20 -20v-660zM101 731c-55 0 -110 40 -114 118c-1 20 2 20 19 20h27c15 0 18 0 20 -17c4 -35 21 -55 48 -55s44 20 48 55c2 17 5 17 20 17h27c17 0 20 0 19 -20
c-4 -78 -59 -118 -114 -118z" />
    <glyph glyph-name="Icircumflex" unicode="&#xce;" 
d="M150 20c0 -15 -5 -20 -20 -20h-60c-15 0 -20 5 -20 20v660c0 15 5 20 20 20h60c15 0 20 -5 20 -20v-660zM113 746l-9 56c-1 5 -7 5 -8 0l-9 -56c-2 -10 -5 -11 -13 -11h-61c-9 0 -12 8 -6 18l64 104c5 7 8 7 15 7h28c7 0 10 0 15 -7l64 -104c6 -10 3 -18 -6 -18h-61
c-8 0 -11 1 -13 11z" />
    <glyph glyph-name="Idieresis" unicode="&#xcf;" 
d="M150 20c0 -15 -5 -20 -20 -20h-60c-15 0 -20 5 -20 20v660c0 15 5 20 20 20h60c15 0 20 -5 20 -20v-660zM-23 787c0 31 25 56 56 56s56 -25 56 -56s-25 -56 -56 -56s-56 25 -56 56zM111 787c0 31 25 56 56 56s56 -25 56 -56s-25 -56 -56 -56s-56 25 -56 56z" />
    <glyph glyph-name="Idotaccent" unicode="&#x130;" 
d="M150 20c0 -15 -5 -20 -20 -20h-60c-15 0 -20 5 -20 20v660c0 15 5 20 20 20h60c15 0 20 -5 20 -20v-660zM44 787c0 31 25 56 56 56s56 -25 56 -56s-25 -56 -56 -56s-56 25 -56 56z" />
    <glyph glyph-name="Igrave" unicode="&#xcc;" 
d="M150 20c0 -15 -5 -20 -20 -20h-60c-15 0 -20 5 -20 20v660c0 15 5 20 20 20h60c15 0 20 -5 20 -20v-660zM119 735h-36c-10 0 -12 2 -17 17l-30 85c-7 19 -2 27 13 27h59c15 0 21 -4 21 -21v-98c0 -7 -3 -10 -10 -10z" />
    <glyph glyph-name="Imacron" unicode="&#x12a;" 
d="M150 20c0 -15 -5 -20 -20 -20h-60c-15 0 -20 5 -20 20v660c0 15 5 20 20 20h60c15 0 20 -5 20 -20v-660zM1 793c0 15 5 20 20 20h159c15 0 20 -5 20 -20v-38c0 -15 -5 -20 -20 -20h-159c-15 0 -20 5 -20 20v38z" />
    <glyph glyph-name="Iogonek" unicode="&#x12e;" 
d="M150 20c0 -15 -5 -20 -20 -20h-3c-6 -8 -12 -17 -13 -21c-11 -25 6 -36 25 -38c9 -1 11 -3 9 -12l-16 -69c-2 -8 -6 -9 -13 -8c-65 11 -104 70 -65 130c2 4 7 11 13 18c-13 0 -17 6 -17 20v660c0 15 5 20 20 20h60c15 0 20 -5 20 -20v-660z" />
    <glyph glyph-name="Itilde" unicode="&#x128;" 
d="M150 20c0 -15 -5 -20 -20 -20h-60c-15 0 -20 5 -20 20v660c0 15 5 20 20 20h60c15 0 20 -5 20 -20v-660zM138 735c-25 3 -46 16 -66 21c-6 1 -18 1 -22 -14c-1 -3 -2 -7 -8 -7h-59c-4 0 -7 1 -6 6c8 42 32 91 86 86c25 -2 45 -16 66 -21c6 -1 18 -1 22 14c1 3 2 7 8 7h59
c4 0 7 -1 6 -6c-8 -42 -32 -91 -86 -86z" />
    <glyph glyph-name="iacute" unicode="&#xed;" 
d="M70 0c-15 0 -20 5 -20 20v460c0 15 5 20 20 20h60c15 0 20 -5 20 -20v-460c0 -15 -5 -20 -20 -20h-60zM81 549c-7 0 -10 3 -10 10v98c0 17 6 21 21 21h59c15 0 20 -8 13 -27l-30 -85c-5 -15 -7 -17 -17 -17h-36z" />
    <glyph glyph-name="ibreve" unicode="&#x12d;" 
d="M70 0c-15 0 -20 5 -20 20v460c0 15 5 20 20 20h60c15 0 20 -5 20 -20v-460c0 -15 -5 -20 -20 -20h-60zM101 545c-55 0 -110 40 -114 118c-1 20 2 20 19 20h27c15 0 18 0 20 -17c4 -35 21 -55 48 -55s44 20 48 55c2 17 5 17 20 17h27c17 0 20 0 19 -20
c-4 -78 -59 -118 -114 -118z" />
    <glyph glyph-name="icircumflex" unicode="&#xee;" 
d="M70 0c-15 0 -20 5 -20 20v460c0 15 5 20 20 20h60c15 0 20 -5 20 -20v-460c0 -15 -5 -20 -20 -20h-60zM113 560l-9 56c-1 5 -7 5 -8 0l-9 -56c-2 -10 -5 -11 -13 -11h-61c-9 0 -12 8 -6 18l64 104c5 7 8 7 15 7h28c7 0 10 0 15 -7l64 -104c6 -10 3 -18 -6 -18h-61
c-8 0 -11 1 -13 11z" />
    <glyph glyph-name="idieresis" unicode="&#xef;" 
d="M70 0c-15 0 -20 5 -20 20v460c0 15 5 20 20 20h60c15 0 20 -5 20 -20v-460c0 -15 -5 -20 -20 -20h-60zM-23 601c0 31 25 56 56 56s56 -25 56 -56s-25 -56 -56 -56s-56 25 -56 56zM111 601c0 31 25 56 56 56s56 -25 56 -56s-25 -56 -56 -56s-56 25 -56 56z" />
    <glyph glyph-name="igrave" unicode="&#xec;" 
d="M70 0c-15 0 -20 5 -20 20v460c0 15 5 20 20 20h60c15 0 20 -5 20 -20v-460c0 -15 -5 -20 -20 -20h-60zM119 549h-36c-10 0 -12 2 -17 17l-30 85c-7 19 -2 27 13 27h59c15 0 21 -4 21 -21v-98c0 -7 -3 -10 -10 -10z" />
    <glyph glyph-name="imacron" unicode="&#x12b;" 
d="M70 0c-15 0 -20 5 -20 20v460c0 15 5 20 20 20h60c15 0 20 -5 20 -20v-460c0 -15 -5 -20 -20 -20h-60zM1 607c0 15 5 20 20 20h159c15 0 20 -5 20 -20v-38c0 -15 -5 -20 -20 -20h-159c-15 0 -20 5 -20 20v38z" />
    <glyph glyph-name="iogonek" unicode="&#x12f;" 
d="M130 0h-2c-6 -8 -12 -17 -13 -21c-11 -25 6 -36 25 -38c9 -1 11 -3 9 -12l-16 -69c-2 -8 -6 -9 -13 -8c-65 11 -104 70 -65 130c2 4 7 11 13 18c-14 0 -18 5 -18 20v460c0 15 5 20 20 20h60c15 0 20 -5 20 -20v-460c0 -15 -5 -20 -20 -20zM44 601c0 31 24 56 56 56
c31 0 56 -25 56 -56c0 -32 -25 -56 -56 -56c-32 0 -56 24 -56 56z" />
    <glyph glyph-name="itilde" unicode="&#x129;" 
d="M70 0c-15 0 -20 5 -20 20v460c0 15 5 20 20 20h60c15 0 20 -5 20 -20v-460c0 -15 -5 -20 -20 -20h-60zM138 545c-25 3 -46 16 -66 21c-6 1 -18 1 -22 -14c-1 -3 -2 -7 -8 -7h-59c-4 0 -7 1 -6 6c8 42 32 91 86 86c25 -2 45 -16 66 -21c6 -1 18 -1 22 14c1 3 2 7 8 7h59
c4 0 7 -1 6 -6c-8 -42 -32 -91 -86 -86z" />
    </font>
</defs>
</svg>
